<ttFont>
    <TTGlyph name=".notdef" xMin="60" yMin="0" xMax="961" yMax="1024">
      <contour>
        <pt x="113" y="1024" on="1"/>
        <pt x="961" y="1024" on="1"/>
        <pt x="908" y="0" on="1"/>
        <pt x="60" y="0" on="1"/>
      </contour>
      <contour>
        <pt x="229" y="75" on="1"/>
        <pt x="747" y="75" on="1"/>
        <pt x="792" y="949" on="1"/>
        <pt x="274" y="949" on="1"/>
      </contour>
    </TTGlyph>
    <TTGlyph name="A" xMin="-29" yMin="0" xMax="1266" yMax="1473">
      <contour>
        <pt x="260" y="223" on="1"/>
        <pt x="251" y="199" on="0"/>
        <pt x="236" y="161" on="0"/>
        <pt x="221" y="129" on="0"/>
        <pt x="206" y="99" on="0"/>
        <pt x="197" y="82" on="1"/>
        <pt x="350" y="90" on="1"/>
        <pt x="350" y="0" on="1"/>
        <pt x="-29" y="0" on="1"/>
        <pt x="-26" y="68" on="1"/>
        <pt x="12" y="69" on="0"/>
        <pt x="72" y="106" on="0"/>
        <pt x="123" y="173" on="0"/>
        <pt x="168" y="267" on="0"/>
        <pt x="191" y="324" on="1"/>
        <pt x="653" y="1473" on="1"/>
        <pt x="699" y="1473" on="1"/>
        <pt x="1090" y="307" on="1"/>
        <pt x="1096" y="287" on="0"/>
        <pt x="1111" y="234" on="0"/>
        <pt x="1124" y="177" on="0"/>
        <pt x="1133" y="121" on="0"/>
        <pt x="1133" y="97" on="1"/>
        <pt x="1133" y="82" on="1"/>
        <pt x="1266" y="90" on="1"/>
        <pt x="1266" y="0" on="1"/>
        <pt x="817" y="0" on="1"/>
        <pt x="819" y="68" on="1"/>
        <pt x="856" y="69" on="0"/>
        <pt x="904" y="86" on="0"/>
        <pt x="932" y="114" on="0"/>
        <pt x="943" y="151" on="0"/>
        <pt x="943" y="171" on="1"/>
        <pt x="943" y="194" on="0"/>
        <pt x="932" y="242" on="0"/>
        <pt x="926" y="262" on="1"/>
        <pt x="867" y="454" on="1"/>
        <pt x="343" y="442" on="1"/>
      </contour>
      <contour>
        <pt x="539" y="958" on="1"/>
        <pt x="486" y="824" on="0"/>
        <pt x="407" y="615" on="0"/>
        <pt x="375" y="530" on="1"/>
        <pt x="844" y="530" on="1"/>
        <pt x="628" y="1188" on="1"/>
        <pt x="624" y="1188" on="1"/>
      </contour>
    </TTGlyph>
    <TTGlyph name="AE" xMin="-50" yMin="0" xMax="1852" yMax="1434">
      <contour>
        <pt x="1504" y="530" on="1"/>
        <pt x="1507" y="598" on="0"/>
        <pt x="1483" y="671" on="0"/>
        <pt x="1426" y="705" on="0"/>
        <pt x="1335" y="710" on="0"/>
        <pt x="1270" y="710" on="1"/>
        <pt x="1232" y="710" on="0"/>
        <pt x="1156" y="708" on="0"/>
        <pt x="1120" y="706" on="1"/>
        <pt x="1095" y="242" on="1"/>
        <pt x="1092" y="186" on="0"/>
        <pt x="1085" y="108" on="0"/>
        <pt x="1080" y="82" on="1"/>
        <pt x="1476" y="76" on="1"/>
        <pt x="1543" y="75" on="0"/>
        <pt x="1652" y="108" on="0"/>
        <pt x="1731" y="184" on="0"/>
        <pt x="1778" y="309" on="0"/>
        <pt x="1783" y="399" on="1"/>
        <pt x="1852" y="399" on="1"/>
        <pt x="1820" y="0" on="1"/>
        <pt x="771" y="0" on="1"/>
        <pt x="775" y="74" on="1"/>
        <pt x="821" y="75" on="0"/>
        <pt x="878" y="100" on="0"/>
        <pt x="911" y="148" on="0"/>
        <pt x="925" y="219" on="0"/>
        <pt x="927" y="266" on="1"/>
        <pt x="937" y="453" on="1"/>
        <pt x="437" y="442" on="1"/>
        <pt x="177" y="83" on="1"/>
        <pt x="177" y="81" on="1"/>
        <pt x="335" y="90" on="1"/>
        <pt x="331" y="0" on="1"/>
        <pt x="-50" y="0" on="1"/>
        <pt x="-46" y="68" on="1"/>
        <pt x="-6" y="68" on="0"/>
        <pt x="61" y="104" on="0"/>
        <pt x="119" y="159" on="0"/>
        <pt x="169" y="225" on="0"/>
        <pt x="191" y="256" on="1"/>
        <pt x="987" y="1350" on="1"/>
        <pt x="987" y="1350" on="0"/>
        <pt x="988" y="1352" on="1"/>
        <pt x="804" y="1343" on="1"/>
        <pt x="808" y="1434" on="1"/>
        <pt x="1824" y="1434" on="1"/>
        <pt x="1816" y="1075" on="1"/>
        <pt x="1748" y="1075" on="1"/>
        <pt x="1752" y="1166" on="0"/>
        <pt x="1715" y="1279" on="0"/>
        <pt x="1643" y="1342" on="0"/>
        <pt x="1543" y="1363" on="0"/>
        <pt x="1486" y="1362" on="1"/>
        <pt x="1310" y="1358" on="1"/>
        <pt x="1252" y="1356" on="0"/>
        <pt x="1188" y="1327" on="0"/>
        <pt x="1155" y="1267" on="0"/>
        <pt x="1145" y="1176" on="0"/>
        <pt x="1142" y="1114" on="1"/>
        <pt x="1124" y="784" on="1"/>
        <pt x="1275" y="784" on="1"/>
        <pt x="1339" y="784" on="0"/>
        <pt x="1432" y="794" on="0"/>
        <pt x="1493" y="832" on="0"/>
        <pt x="1524" y="909" on="0"/>
        <pt x="1527" y="977" on="1"/>
        <pt x="1594" y="977" on="1"/>
        <pt x="1572" y="530" on="1"/>
      </contour>
      <contour>
        <pt x="941" y="530" on="1"/>
        <pt x="974" y="1192" on="1"/>
        <pt x="972" y="1192" on="1"/>
        <pt x="500" y="530" on="1"/>
      </contour>
    </TTGlyph>
    <TTGlyph name="Aacute" xMin="-29" yMin="0" xMax="1266" yMax="1896">
      <component glyphName="A" x="0" y="0" flags="0x204"/>
      <component glyphName="Acute" x="534" y="0" flags="0x4"/>
    </TTGlyph>
    <TTGlyph name="Abreve" xMin="-29" yMin="0" xMax="1266" yMax="1892">
      <component glyphName="A" x="0" y="0" flags="0x0"/>
      <component glyphName="Breve" x="267" y="0" flags="0x0"/>
    </TTGlyph>
    <TTGlyph name="Acircumflex" xMin="-29" yMin="0" xMax="1266" yMax="1905">
      <component glyphName="A" x="0" y="0" flags="0x204"/>
      <component glyphName="Circumflex" x="201" y="0" flags="0x4"/>
    </TTGlyph>
    <TTGlyph name="Acute" xMin="92" yMin="1556" xMax="500" yMax="1896">
      <contour>
        <pt x="135" y="1556" on="1"/>
        <pt x="92" y="1614" on="1"/>
        <pt x="352" y="1855" on="1"/>
        <pt x="378" y="1878" on="0"/>
        <pt x="419" y="1896" on="0"/>
        <pt x="435" y="1896" on="1"/>
        <pt x="472" y="1896" on="0"/>
        <pt x="500" y="1857" on="0"/>
        <pt x="500" y="1834" on="1"/>
        <pt x="500" y="1815" on="0"/>
        <pt x="472" y="1772" on="0"/>
        <pt x="434" y="1747" on="1"/>
      </contour>
    </TTGlyph>
    <TTGlyph name="Adieresis" xMin="-29" yMin="0" xMax="1266" yMax="1838">
      <component glyphName="A" x="0" y="0" flags="0x204"/>
      <component glyphName="Dieresis" x="334" y="0" flags="0x4"/>
    </TTGlyph>
    <TTGlyph name="Agrave" xMin="-29" yMin="0" xMax="1266" yMax="1896">
      <component glyphName="A" x="0" y="0" flags="0x204"/>
      <component glyphName="Grave" x="340" y="0" flags="0x4"/>
    </TTGlyph>
    <TTGlyph name="Amacron" xMin="-29" yMin="0" xMax="1266" yMax="1846">
      <component glyphName="A" x="0" y="0" flags="0x0"/>
      <component glyphName="macron" x="317" y="410" flags="0x0"/>
    </TTGlyph>
    <TTGlyph name="Aogonek" xMin="-29" yMin="-571" xMax="1266" yMax="1473">
      <contour>
        <pt x="1113" y="0" on="1"/>
        <pt x="1057" y="-24" on="0"/>
        <pt x="955" y="-95" on="0"/>
        <pt x="878" y="-180" on="0"/>
        <pt x="832" y="-278" on="0"/>
        <pt x="832" y="-330" on="1"/>
        <pt x="832" y="-395" on="0"/>
        <pt x="895" y="-473" on="0"/>
        <pt x="955" y="-473" on="1"/>
        <pt x="992" y="-473" on="0"/>
        <pt x="1073" y="-442" on="0"/>
        <pt x="1111" y="-407" on="1"/>
        <pt x="1139" y="-442" on="1"/>
        <pt x="1118" y="-466" on="0"/>
        <pt x="1061" y="-512" on="0"/>
        <pt x="996" y="-549" on="0"/>
        <pt x="925" y="-571" on="0"/>
        <pt x="888" y="-571" on="1"/>
        <pt x="843" y="-571" on="0"/>
        <pt x="772" y="-540" on="0"/>
        <pt x="724" y="-485" on="0"/>
        <pt x="701" y="-408" on="0"/>
        <pt x="703" y="-362" on="1"/>
        <pt x="706" y="-305" on="0"/>
        <pt x="753" y="-201" on="0"/>
        <pt x="830" y="-109" on="0"/>
        <pt x="932" y="-31" on="0"/>
        <pt x="990" y="0" on="1"/>
        <pt x="817" y="0" on="1"/>
        <pt x="819" y="68" on="1"/>
        <pt x="877" y="69" on="0"/>
        <pt x="931" y="109" on="0"/>
        <pt x="947" y="167" on="0"/>
        <pt x="935" y="233" on="0"/>
        <pt x="926" y="262" on="1"/>
        <pt x="867" y="454" on="1"/>
        <pt x="343" y="442" on="1"/>
        <pt x="320" y="379" on="0"/>
        <pt x="279" y="271" on="0"/>
        <pt x="260" y="223" on="1"/>
        <pt x="251" y="199" on="0"/>
        <pt x="235" y="161" on="0"/>
        <pt x="221" y="129" on="0"/>
        <pt x="206" y="99" on="0"/>
        <pt x="197" y="82" on="1"/>
        <pt x="350" y="90" on="1"/>
        <pt x="346" y="0" on="1"/>
        <pt x="-29" y="0" on="1"/>
        <pt x="-26" y="68" on="1"/>
        <pt x="12" y="69" on="0"/>
        <pt x="72" y="106" on="0"/>
        <pt x="123" y="173" on="0"/>
        <pt x="168" y="267" on="0"/>
        <pt x="191" y="324" on="1"/>
        <pt x="653" y="1473" on="1"/>
        <pt x="699" y="1473" on="1"/>
        <pt x="1090" y="307" on="1"/>
        <pt x="1097" y="286" on="0"/>
        <pt x="1114" y="227" on="0"/>
        <pt x="1128" y="165" on="0"/>
        <pt x="1135" y="105" on="0"/>
        <pt x="1133" y="82" on="1"/>
        <pt x="1266" y="90" on="1"/>
        <pt x="1262" y="0" on="1"/>
      </contour>
      <contour>
        <pt x="844" y="530" on="1"/>
        <pt x="793" y="691" on="0"/>
        <pt x="686" y="1020" on="0"/>
        <pt x="628" y="1188" on="1"/>
        <pt x="624" y="1188" on="1"/>
        <pt x="539" y="958" on="1"/>
        <pt x="486" y="824" on="0"/>
        <pt x="407" y="615" on="0"/>
        <pt x="375" y="530" on="1"/>
      </contour>
    </TTGlyph>
    <TTGlyph name="Aring" xMin="-29" yMin="0" xMax="1266" yMax="1968">
      <component glyphName="A" x="0" y="0" flags="0x204"/>
      <component glyphName="Ring" x="359" y="55" flags="0x4"/>
    </TTGlyph>
    <TTGlyph name="Atilde" xMin="-29" yMin="0" xMax="1266" yMax="1853">
      <component glyphName="A" x="0" y="0" flags="0x204"/>
      <component glyphName="Tilde" x="201" y="0" flags="0x4"/>
    </TTGlyph>
    <TTGlyph name="B" xMin="82" yMin="0" xMax="1172" yMax="1438">
      <contour>
        <pt x="287" y="1190" on="1"/>
        <pt x="289" y="1247" on="0"/>
        <pt x="297" y="1326" on="0"/>
        <pt x="302" y="1352" on="1"/>
        <pt x="152" y="1343" on="1"/>
        <pt x="158" y="1434" on="1"/>
        <pt x="270" y="1434" on="0"/>
        <pt x="492" y="1438" on="0"/>
        <pt x="615" y="1438" on="1"/>
        <pt x="729" y="1438" on="0"/>
        <pt x="907" y="1400" on="0"/>
        <pt x="1029" y="1321" on="0"/>
        <pt x="1093" y="1200" on="0"/>
        <pt x="1093" y="1117" on="1"/>
        <pt x="1093" y="1064" on="0"/>
        <pt x="1054" y="955" on="0"/>
        <pt x="970" y="859" on="0"/>
        <pt x="837" y="786" on="0"/>
        <pt x="744" y="770" on="1"/>
        <pt x="744" y="766" on="1"/>
        <pt x="853" y="766" on="0"/>
        <pt x="1014" y="715" on="0"/>
        <pt x="1120" y="624" on="0"/>
        <pt x="1172" y="499" on="0"/>
        <pt x="1172" y="424" on="1"/>
        <pt x="1172" y="325" on="0"/>
        <pt x="1097" y="167" on="0"/>
        <pt x="964" y="58" on="0"/>
        <pt x="781" y="0" on="0"/>
        <pt x="674" y="0" on="1"/>
        <pt x="82" y="0" on="1"/>
        <pt x="87" y="68" on="1"/>
        <pt x="144" y="69" on="0"/>
        <pt x="205" y="108" on="0"/>
        <pt x="233" y="177" on="0"/>
        <pt x="239" y="272" on="0"/>
        <pt x="242" y="330" on="1"/>
      </contour>
      <contour>
        <pt x="621" y="1364" on="1"/>
        <pt x="571" y="1364" on="0"/>
        <pt x="510" y="1344" on="0"/>
        <pt x="475" y="1297" on="0"/>
        <pt x="460" y="1221" on="0"/>
        <pt x="457" y="1165" on="1"/>
        <pt x="437" y="784" on="1"/>
        <pt x="475" y="784" on="0"/>
        <pt x="552" y="786" on="0"/>
        <pt x="586" y="788" on="1"/>
        <pt x="677" y="792" on="0"/>
        <pt x="801" y="851" on="0"/>
        <pt x="878" y="941" on="0"/>
        <pt x="912" y="1054" on="0"/>
        <pt x="912" y="1113" on="1"/>
        <pt x="912" y="1191" on="0"/>
        <pt x="858" y="1289" on="0"/>
        <pt x="774" y="1344" on="0"/>
        <pt x="670" y="1364" on="0"/>
      </contour>
      <contour>
        <pt x="394" y="84" on="1"/>
        <pt x="419" y="82" on="0"/>
        <pt x="488" y="80" on="0"/>
        <pt x="553" y="80" on="0"/>
        <pt x="604" y="80" on="0"/>
        <pt x="611" y="80" on="1"/>
        <pt x="694" y="80" on="0"/>
        <pt x="830" y="122" on="0"/>
        <pt x="927" y="206" on="0"/>
        <pt x="980" y="332" on="0"/>
        <pt x="980" y="416" on="1"/>
        <pt x="980" y="499" on="0"/>
        <pt x="926" y="612" on="0"/>
        <pt x="833" y="681" on="0"/>
        <pt x="711" y="711" on="0"/>
        <pt x="644" y="711" on="1"/>
        <pt x="581" y="711" on="0"/>
        <pt x="482" y="708" on="0"/>
        <pt x="433" y="705" on="1"/>
        <pt x="408" y="244" on="1"/>
        <pt x="405" y="187" on="0"/>
        <pt x="399" y="110" on="0"/>
      </contour>
    </TTGlyph>
    <TTGlyph name="Breve" xMin="82" yMin="1657" xMax="682" yMax="1892">
      <contour>
        <pt x="682" y="1868" on="1"/>
        <pt x="627" y="1765" on="0"/>
        <pt x="461" y="1657" on="0"/>
        <pt x="367" y="1657" on="1"/>
        <pt x="273" y="1657" on="0"/>
        <pt x="122" y="1765" on="0"/>
        <pt x="82" y="1868" on="1"/>
        <pt x="138" y="1892" on="1"/>
        <pt x="153" y="1871" on="0"/>
        <pt x="201" y="1831" on="0"/>
        <pt x="264" y="1801" on="0"/>
        <pt x="337" y="1782" on="0"/>
        <pt x="376" y="1782" on="1"/>
        <pt x="415" y="1782" on="0"/>
        <pt x="490" y="1801" on="0"/>
        <pt x="556" y="1831" on="0"/>
        <pt x="610" y="1871" on="0"/>
        <pt x="628" y="1892" on="1"/>
      </contour>
    </TTGlyph>
    <TTGlyph name="C" xMin="100" yMin="-33" xMax="1355" yMax="1467">
      <contour>
        <pt x="1342" y="260" on="1"/>
        <pt x="1271" y="171" on="0"/>
        <pt x="1115" y="57" on="0"/>
        <pt x="959" y="-8" on="0"/>
        <pt x="811" y="-33" on="0"/>
        <pt x="748" y="-33" on="1"/>
        <pt x="600" y="-33" on="0"/>
        <pt x="360" y="72" on="0"/>
        <pt x="191" y="255" on="0"/>
        <pt x="100" y="504" on="0"/>
        <pt x="100" y="648" on="1"/>
        <pt x="100" y="748" on="0"/>
        <pt x="141" y="947" on="0"/>
        <pt x="224" y="1129" on="0"/>
        <pt x="348" y="1286" on="0"/>
        <pt x="513" y="1401" on="0"/>
        <pt x="720" y="1467" on="0"/>
        <pt x="843" y="1467" on="1"/>
        <pt x="960" y="1467" on="0"/>
        <pt x="1156" y="1407" on="0"/>
        <pt x="1247" y="1344" on="1"/>
        <pt x="1249" y="1344" on="1"/>
        <pt x="1244" y="1455" on="1"/>
        <pt x="1355" y="1455" on="1"/>
        <pt x="1330" y="980" on="1"/>
        <pt x="1256" y="980" on="1"/>
        <pt x="1251" y="1076" on="0"/>
        <pt x="1190" y="1226" on="0"/>
        <pt x="1085" y="1329" on="0"/>
        <pt x="940" y="1383" on="0"/>
        <pt x="851" y="1383" on="1"/>
        <pt x="738" y="1383" on="0"/>
        <pt x="536" y="1283" on="0"/>
        <pt x="383" y="1099" on="0"/>
        <pt x="293" y="838" on="0"/>
        <pt x="293" y="678" on="1"/>
        <pt x="293" y="543" on="0"/>
        <pt x="372" y="320" on="0"/>
        <pt x="510" y="161" on="0"/>
        <pt x="698" y="74" on="0"/>
        <pt x="808" y="74" on="1"/>
        <pt x="874" y="74" on="0"/>
        <pt x="1008" y="103" on="0"/>
        <pt x="1134" y="161" on="0"/>
        <pt x="1246" y="246" on="0"/>
        <pt x="1291" y="303" on="1"/>
      </contour>
    </TTGlyph>
    <TTGlyph name="Cacute" xMin="100" yMin="-33" xMax="1355" yMax="1896">
      <component glyphName="C" x="0" y="0" flags="0x0"/>
      <component glyphName="Acute" x="600" y="0" flags="0x0"/>
    </TTGlyph>
    <TTGlyph name="Caron" xMin="92" yMin="1528" xMax="868" yMax="1886">
      <contour>
        <pt x="471" y="1528" on="1"/>
        <pt x="467" y="1528" on="1"/>
        <pt x="92" y="1821" on="1"/>
        <pt x="131" y="1882" on="1"/>
        <pt x="473" y="1686" on="1"/>
        <pt x="477" y="1686" on="1"/>
        <pt x="836" y="1886" on="1"/>
        <pt x="868" y="1833" on="1"/>
      </contour>
    </TTGlyph>
    <TTGlyph name="Ccaron" xMin="101" yMin="-33" xMax="1356" yMax="1886">
      <component glyphName="C" x="1" y="0" flags="0x0"/>
      <component glyphName="Caron" x="340" y="0" flags="0x0"/>
    </TTGlyph>
    <TTGlyph name="Ccedilla" xMin="102" yMin="-514" xMax="1357" yMax="1467">
      <contour>
        <pt x="509" y="-446" on="1"/>
        <pt x="563" y="-437" on="0"/>
        <pt x="660" y="-404" on="0"/>
        <pt x="735" y="-360" on="0"/>
        <pt x="779" y="-306" on="0"/>
        <pt x="779" y="-275" on="1"/>
        <pt x="779" y="-244" on="0"/>
        <pt x="741" y="-212" on="0"/>
        <pt x="709" y="-212" on="1"/>
        <pt x="685" y="-212" on="0"/>
        <pt x="633" y="-227" on="0"/>
        <pt x="612" y="-244" on="1"/>
        <pt x="546" y="-209" on="1"/>
        <pt x="605" y="-19" on="1"/>
        <pt x="489" y="5" on="0"/>
        <pt x="302" y="124" on="0"/>
        <pt x="172" y="299" on="0"/>
        <pt x="102" y="521" on="0"/>
        <pt x="102" y="647" on="1"/>
        <pt x="102" y="747" on="0"/>
        <pt x="143" y="946" on="0"/>
        <pt x="226" y="1128" on="0"/>
        <pt x="350" y="1285" on="0"/>
        <pt x="515" y="1401" on="0"/>
        <pt x="721" y="1467" on="0"/>
        <pt x="845" y="1467" on="1"/>
        <pt x="963" y="1467" on="0"/>
        <pt x="1158" y="1407" on="0"/>
        <pt x="1251" y="1344" on="1"/>
        <pt x="1246" y="1455" on="1"/>
        <pt x="1357" y="1455" on="1"/>
        <pt x="1332" y="980" on="1"/>
        <pt x="1258" y="980" on="1"/>
        <pt x="1253" y="1076" on="0"/>
        <pt x="1192" y="1226" on="0"/>
        <pt x="1087" y="1329" on="0"/>
        <pt x="942" y="1383" on="0"/>
        <pt x="853" y="1383" on="1"/>
        <pt x="740" y="1383" on="0"/>
        <pt x="538" y="1283" on="0"/>
        <pt x="385" y="1099" on="0"/>
        <pt x="295" y="838" on="0"/>
        <pt x="295" y="678" on="1"/>
        <pt x="295" y="543" on="0"/>
        <pt x="374" y="320" on="0"/>
        <pt x="512" y="161" on="0"/>
        <pt x="700" y="74" on="0"/>
        <pt x="810" y="74" on="1"/>
        <pt x="876" y="74" on="0"/>
        <pt x="1010" y="103" on="0"/>
        <pt x="1136" y="161" on="0"/>
        <pt x="1248" y="246" on="0"/>
        <pt x="1293" y="303" on="1"/>
        <pt x="1344" y="260" on="1"/>
        <pt x="1273" y="171" on="0"/>
        <pt x="1117" y="57" on="0"/>
        <pt x="961" y="-8" on="0"/>
        <pt x="813" y="-33" on="0"/>
        <pt x="750" y="-33" on="1"/>
        <pt x="741" y="-33" on="0"/>
        <pt x="724" y="-32" on="0"/>
        <pt x="715" y="-32" on="1"/>
        <pt x="669" y="-154" on="1"/>
        <pt x="684" y="-145" on="0"/>
        <pt x="722" y="-131" on="0"/>
        <pt x="761" y="-122" on="0"/>
        <pt x="796" y="-117" on="0"/>
        <pt x="808" y="-117" on="1"/>
        <pt x="844" y="-117" on="0"/>
        <pt x="897" y="-137" on="0"/>
        <pt x="931" y="-172" on="0"/>
        <pt x="948" y="-218" on="0"/>
        <pt x="948" y="-244" on="1"/>
        <pt x="948" y="-289" on="0"/>
        <pt x="906" y="-361" on="0"/>
        <pt x="836" y="-418" on="0"/>
        <pt x="746" y="-460" on="0"/>
        <pt x="651" y="-490" on="0"/>
        <pt x="558" y="-509" on="0"/>
        <pt x="521" y="-514" on="1"/>
      </contour>
    </TTGlyph>
    <TTGlyph name="Cedilla" xMin="92" yMin="-514" xMax="531" yMax="16">
      <contour>
        <pt x="92" y="-446" on="1"/>
        <pt x="146" y="-437" on="0"/>
        <pt x="243" y="-404" on="0"/>
        <pt x="318" y="-360" on="0"/>
        <pt x="362" y="-306" on="0"/>
        <pt x="362" y="-275" on="1"/>
        <pt x="362" y="-244" on="0"/>
        <pt x="324" y="-212" on="0"/>
        <pt x="292" y="-212" on="1"/>
        <pt x="268" y="-212" on="0"/>
        <pt x="216" y="-227" on="0"/>
        <pt x="195" y="-244" on="1"/>
        <pt x="129" y="-209" on="1"/>
        <pt x="199" y="16" on="1"/>
        <pt x="317" y="16" on="1"/>
        <pt x="252" y="-154" on="1"/>
        <pt x="267" y="-145" on="0"/>
        <pt x="305" y="-131" on="0"/>
        <pt x="344" y="-122" on="0"/>
        <pt x="379" y="-117" on="0"/>
        <pt x="391" y="-117" on="1"/>
        <pt x="427" y="-117" on="0"/>
        <pt x="480" y="-137" on="0"/>
        <pt x="514" y="-172" on="0"/>
        <pt x="531" y="-218" on="0"/>
        <pt x="531" y="-244" on="1"/>
        <pt x="531" y="-289" on="0"/>
        <pt x="489" y="-361" on="0"/>
        <pt x="419" y="-418" on="0"/>
        <pt x="329" y="-460" on="0"/>
        <pt x="234" y="-490" on="0"/>
        <pt x="141" y="-509" on="0"/>
        <pt x="104" y="-514" on="1"/>
      </contour>
    </TTGlyph>
    <TTGlyph name="Circumflex" xMin="92" yMin="1559" xMax="868" yMax="1905">
      <contour>
        <pt x="494" y="1905" on="1"/>
        <pt x="498" y="1905" on="1"/>
        <pt x="868" y="1616" on="1"/>
        <pt x="831" y="1559" on="1"/>
        <pt x="475" y="1741" on="1"/>
        <pt x="471" y="1741" on="1"/>
        <pt x="123" y="1563" on="1"/>
        <pt x="92" y="1618" on="1"/>
      </contour>
    </TTGlyph>
    <TTGlyph name="D" xMin="82" yMin="0" xMax="1423" yMax="1437">
      <contour>
        <pt x="406" y="242" on="1"/>
        <pt x="403" y="186" on="0"/>
        <pt x="397" y="108" on="0"/>
        <pt x="392" y="82" on="1"/>
        <pt x="426" y="80" on="0"/>
        <pt x="483" y="78" on="0"/>
        <pt x="536" y="78" on="0"/>
        <pt x="585" y="78" on="0"/>
        <pt x="611" y="78" on="1"/>
        <pt x="750" y="78" on="0"/>
        <pt x="979" y="186" on="0"/>
        <pt x="1142" y="375" on="0"/>
        <pt x="1232" y="630" on="0"/>
        <pt x="1232" y="778" on="1"/>
        <pt x="1232" y="910" on="0"/>
        <pt x="1158" y="1125" on="0"/>
        <pt x="1007" y="1277" on="0"/>
        <pt x="777" y="1360" on="0"/>
        <pt x="620" y="1360" on="1"/>
        <pt x="562" y="1360" on="0"/>
        <pt x="497" y="1333" on="0"/>
        <pt x="465" y="1276" on="0"/>
        <pt x="456" y="1189" on="0"/>
        <pt x="453" y="1129" on="1"/>
      </contour>
      <contour>
        <pt x="633" y="1436" on="1"/>
        <pt x="811" y="1437" on="0"/>
        <pt x="1103" y="1357" on="0"/>
        <pt x="1310" y="1192" on="0"/>
        <pt x="1423" y="941" on="0"/>
        <pt x="1423" y="770" on="1"/>
        <pt x="1423" y="670" on="0"/>
        <pt x="1378" y="479" on="0"/>
        <pt x="1289" y="307" on="0"/>
        <pt x="1154" y="163" on="0"/>
        <pt x="974" y="59" on="0"/>
        <pt x="749" y="0" on="0"/>
        <pt x="613" y="0" on="1"/>
        <pt x="82" y="0" on="1"/>
        <pt x="87" y="68" on="1"/>
        <pt x="144" y="70" on="0"/>
        <pt x="205" y="108" on="0"/>
        <pt x="232" y="174" on="0"/>
        <pt x="238" y="265" on="0"/>
        <pt x="240" y="319" on="1"/>
        <pt x="289" y="1204" on="1"/>
        <pt x="291" y="1246" on="0"/>
        <pt x="299" y="1321" on="0"/>
        <pt x="304" y="1352" on="1"/>
        <pt x="152" y="1343" on="1"/>
        <pt x="158" y="1434" on="1"/>
      </contour>
    </TTGlyph>
    <TTGlyph name="Dcaron" xMin="83" yMin="0" xMax="1424" yMax="1886">
      <component glyphName="D" x="1" y="0" flags="0x0"/>
      <component glyphName="Caron" x="270" y="0" flags="0x0"/>
    </TTGlyph>
    <TTGlyph name="Dcroat" xMin="47" yMin="0" xMax="1425" yMax="1437">
      <contour>
        <pt x="635" y="1436" on="1"/>
        <pt x="813" y="1437" on="0"/>
        <pt x="1105" y="1357" on="0"/>
        <pt x="1312" y="1192" on="0"/>
        <pt x="1425" y="941" on="0"/>
        <pt x="1425" y="770" on="1"/>
        <pt x="1425" y="670" on="0"/>
        <pt x="1380" y="479" on="0"/>
        <pt x="1291" y="307" on="0"/>
        <pt x="1156" y="163" on="0"/>
        <pt x="976" y="59" on="0"/>
        <pt x="751" y="0" on="0"/>
        <pt x="615" y="0" on="1"/>
        <pt x="84" y="0" on="1"/>
        <pt x="89" y="68" on="1"/>
        <pt x="146" y="70" on="0"/>
        <pt x="207" y="108" on="0"/>
        <pt x="234" y="174" on="0"/>
        <pt x="240" y="265" on="0"/>
        <pt x="242" y="319" on="1"/>
        <pt x="261" y="672" on="1"/>
        <pt x="47" y="672" on="1"/>
        <pt x="54" y="772" on="1"/>
        <pt x="267" y="772" on="1"/>
        <pt x="291" y="1204" on="1"/>
        <pt x="293" y="1246" on="0"/>
        <pt x="301" y="1321" on="0"/>
        <pt x="306" y="1352" on="1"/>
        <pt x="154" y="1343" on="1"/>
        <pt x="160" y="1436" on="1"/>
      </contour>
      <contour>
        <pt x="408" y="242" on="1"/>
        <pt x="405" y="186" on="0"/>
        <pt x="399" y="108" on="0"/>
        <pt x="394" y="82" on="1"/>
        <pt x="428" y="80" on="0"/>
        <pt x="485" y="78" on="0"/>
        <pt x="538" y="78" on="0"/>
        <pt x="587" y="78" on="0"/>
        <pt x="613" y="78" on="1"/>
        <pt x="752" y="78" on="0"/>
        <pt x="981" y="186" on="0"/>
        <pt x="1144" y="375" on="0"/>
        <pt x="1234" y="630" on="0"/>
        <pt x="1234" y="778" on="1"/>
        <pt x="1234" y="910" on="0"/>
        <pt x="1160" y="1125" on="0"/>
        <pt x="1009" y="1277" on="0"/>
        <pt x="779" y="1360" on="0"/>
        <pt x="622" y="1360" on="1"/>
        <pt x="564" y="1360" on="0"/>
        <pt x="499" y="1333" on="0"/>
        <pt x="467" y="1276" on="0"/>
        <pt x="458" y="1189" on="0"/>
        <pt x="455" y="1129" on="1"/>
        <pt x="436" y="772" on="1"/>
        <pt x="699" y="772" on="1"/>
        <pt x="693" y="680" on="1"/>
        <pt x="431" y="676" on="1"/>
      </contour>
    </TTGlyph>
    <TTGlyph name="Delta" xMin="20" yMin="0" xMax="1337" yMax="1467">
      <contour>
        <pt x="819" y="1467" on="1"/>
        <pt x="1337" y="0" on="1"/>
        <pt x="20" y="0" on="1"/>
        <pt x="655" y="1467" on="1"/>
      </contour>
      <contour>
        <pt x="187" y="120" on="1"/>
        <pt x="187" y="118" on="1"/>
        <pt x="1127" y="112" on="1"/>
        <pt x="1127" y="114" on="1"/>
        <pt x="710" y="1351" on="1"/>
        <pt x="708" y="1351" on="1"/>
      </contour>
    </TTGlyph>
    <TTGlyph name="Dieresis" xMin="93" yMin="1593" xMax="627" yMax="1838">
      <contour>
        <pt x="295" y="1715" on="1"/>
        <pt x="294" y="1689" on="0"/>
        <pt x="276" y="1645" on="0"/>
        <pt x="247" y="1612" on="0"/>
        <pt x="209" y="1593" on="0"/>
        <pt x="190" y="1593" on="1"/>
        <pt x="169" y="1593" on="0"/>
        <pt x="133" y="1612" on="0"/>
        <pt x="107" y="1645" on="0"/>
        <pt x="93" y="1689" on="0"/>
        <pt x="94" y="1715" on="1"/>
        <pt x="95" y="1741" on="0"/>
        <pt x="114" y="1786" on="0"/>
        <pt x="144" y="1819" on="0"/>
        <pt x="183" y="1838" on="0"/>
        <pt x="204" y="1838" on="1"/>
        <pt x="225" y="1838" on="0"/>
        <pt x="260" y="1819" on="0"/>
        <pt x="284" y="1786" on="0"/>
        <pt x="296" y="1741" on="0"/>
      </contour>
      <contour>
        <pt x="626" y="1715" on="1"/>
        <pt x="625" y="1689" on="0"/>
        <pt x="607" y="1645" on="0"/>
        <pt x="578" y="1612" on="0"/>
        <pt x="540" y="1593" on="0"/>
        <pt x="521" y="1593" on="1"/>
        <pt x="500" y="1593" on="0"/>
        <pt x="464" y="1612" on="0"/>
        <pt x="438" y="1645" on="0"/>
        <pt x="424" y="1689" on="0"/>
        <pt x="425" y="1715" on="1"/>
        <pt x="426" y="1741" on="0"/>
        <pt x="445" y="1786" on="0"/>
        <pt x="475" y="1819" on="0"/>
        <pt x="514" y="1838" on="0"/>
        <pt x="535" y="1838" on="1"/>
        <pt x="556" y="1838" on="0"/>
        <pt x="591" y="1819" on="0"/>
        <pt x="615" y="1786" on="0"/>
        <pt x="627" y="1741" on="0"/>
      </contour>
    </TTGlyph>
    <TTGlyph name="E" xMin="83" yMin="0" xMax="1165" yMax="1434">
      <contour>
        <pt x="407" y="236" on="1"/>
        <pt x="404" y="180" on="0"/>
        <pt x="398" y="102" on="0"/>
        <pt x="393" y="76" on="1"/>
        <pt x="784" y="82" on="1"/>
        <pt x="851" y="83" on="0"/>
        <pt x="961" y="114" on="0"/>
        <pt x="1042" y="187" on="0"/>
        <pt x="1090" y="308" on="0"/>
        <pt x="1095" y="399" on="1"/>
        <pt x="1165" y="399" on="1"/>
        <pt x="1132" y="0" on="1"/>
        <pt x="83" y="0" on="1"/>
        <pt x="88" y="68" on="1"/>
        <pt x="145" y="70" on="0"/>
        <pt x="206" y="108" on="0"/>
        <pt x="233" y="174" on="0"/>
        <pt x="239" y="265" on="0"/>
        <pt x="241" y="319" on="1"/>
        <pt x="290" y="1204" on="1"/>
        <pt x="292" y="1246" on="0"/>
        <pt x="300" y="1321" on="0"/>
        <pt x="305" y="1352" on="1"/>
        <pt x="155" y="1343" on="1"/>
        <pt x="159" y="1434" on="1"/>
        <pt x="1136" y="1434" on="1"/>
        <pt x="1128" y="1075" on="1"/>
        <pt x="1060" y="1075" on="1"/>
        <pt x="1065" y="1166" on="0"/>
        <pt x="1028" y="1279" on="0"/>
        <pt x="956" y="1342" on="0"/>
        <pt x="856" y="1363" on="0"/>
        <pt x="798" y="1362" on="1"/>
        <pt x="622" y="1358" on="1"/>
        <pt x="564" y="1356" on="0"/>
        <pt x="500" y="1327" on="0"/>
        <pt x="468" y="1267" on="0"/>
        <pt x="458" y="1176" on="0"/>
        <pt x="454" y="1114" on="1"/>
        <pt x="436" y="786" on="1"/>
        <pt x="583" y="784" on="1"/>
        <pt x="647" y="783" on="0"/>
        <pt x="741" y="793" on="0"/>
        <pt x="804" y="832" on="0"/>
        <pt x="836" y="909" on="0"/>
        <pt x="839" y="977" on="1"/>
        <pt x="907" y="977" on="1"/>
        <pt x="884" y="530" on="1"/>
        <pt x="817" y="530" on="1"/>
        <pt x="820" y="598" on="0"/>
        <pt x="796" y="673" on="0"/>
        <pt x="739" y="708" on="0"/>
        <pt x="647" y="713" on="0"/>
        <pt x="581" y="711" on="1"/>
        <pt x="432" y="705" on="1"/>
      </contour>
    </TTGlyph>
    <TTGlyph name="Eacute" xMin="83" yMin="0" xMax="1165" yMax="1896">
      <component glyphName="E" x="0" y="0" flags="0x204"/>
      <component glyphName="Acute" x="497" y="0" flags="0x4"/>
    </TTGlyph>
    <TTGlyph name="Ecaron" xMin="84" yMin="0" xMax="1166" yMax="1886">
      <component glyphName="E" x="1" y="0" flags="0x0"/>
      <component glyphName="Caron" x="210" y="0" flags="0x0"/>
    </TTGlyph>
    <TTGlyph name="Ecircumflex" xMin="83" yMin="0" xMax="1165" yMax="1905">
      <component glyphName="E" x="0" y="0" flags="0x204"/>
      <component glyphName="Circumflex" x="245" y="0" flags="0x4"/>
    </TTGlyph>
    <TTGlyph name="Edieresis" xMin="83" yMin="0" xMax="1165" yMax="1838">
      <component glyphName="E" x="0" y="0" flags="0x204"/>
      <component glyphName="Dieresis" x="375" y="0" flags="0x4"/>
    </TTGlyph>
    <TTGlyph name="Edotaccent" xMin="83" yMin="0" xMax="1165" yMax="1895">
      <component glyphName="E" x="0" y="0" flags="0x0"/>
      <component glyphName="period" x="482" y="1688" scalex="0.923095703125" scaley="0.922485351562" flags="0x0"/>
    </TTGlyph>
    <TTGlyph name="Egrave" xMin="83" yMin="0" xMax="1165" yMax="1896">
      <component glyphName="E" x="0" y="0" flags="0x204"/>
      <component glyphName="Grave" x="415" y="0" flags="0x4"/>
    </TTGlyph>
    <TTGlyph name="Emacron" xMin="83" yMin="0" xMax="1165" yMax="1846">
      <component glyphName="E" x="0" y="0" flags="0x0"/>
      <component glyphName="macron" x="347" y="410" flags="0x0"/>
    </TTGlyph>
    <TTGlyph name="Eogonek" xMin="84" yMin="-571" xMax="1166" yMax="1434">
      <contour>
        <pt x="1091" y="0" on="1"/>
        <pt x="1035" y="-24" on="0"/>
        <pt x="933" y="-95" on="0"/>
        <pt x="856" y="-180" on="0"/>
        <pt x="810" y="-278" on="0"/>
        <pt x="810" y="-330" on="1"/>
        <pt x="810" y="-395" on="0"/>
        <pt x="873" y="-473" on="0"/>
        <pt x="933" y="-473" on="1"/>
        <pt x="970" y="-473" on="0"/>
        <pt x="1051" y="-442" on="0"/>
        <pt x="1089" y="-407" on="1"/>
        <pt x="1117" y="-442" on="1"/>
        <pt x="1096" y="-466" on="0"/>
        <pt x="1039" y="-512" on="0"/>
        <pt x="974" y="-549" on="0"/>
        <pt x="903" y="-571" on="0"/>
        <pt x="866" y="-571" on="1"/>
        <pt x="821" y="-571" on="0"/>
        <pt x="750" y="-540" on="0"/>
        <pt x="702" y="-485" on="0"/>
        <pt x="679" y="-408" on="0"/>
        <pt x="681" y="-362" on="1"/>
        <pt x="684" y="-305" on="0"/>
        <pt x="731" y="-201" on="0"/>
        <pt x="808" y="-109" on="0"/>
        <pt x="910" y="-31" on="0"/>
        <pt x="968" y="0" on="1"/>
        <pt x="84" y="0" on="1"/>
        <pt x="89" y="68" on="1"/>
        <pt x="146" y="70" on="0"/>
        <pt x="207" y="108" on="0"/>
        <pt x="234" y="174" on="0"/>
        <pt x="240" y="265" on="0"/>
        <pt x="242" y="319" on="1"/>
        <pt x="291" y="1204" on="1"/>
        <pt x="293" y="1246" on="0"/>
        <pt x="301" y="1321" on="0"/>
        <pt x="306" y="1352" on="1"/>
        <pt x="156" y="1343" on="1"/>
        <pt x="160" y="1434" on="1"/>
        <pt x="1137" y="1434" on="1"/>
        <pt x="1129" y="1075" on="1"/>
        <pt x="1061" y="1075" on="1"/>
        <pt x="1066" y="1166" on="0"/>
        <pt x="1029" y="1279" on="0"/>
        <pt x="957" y="1342" on="0"/>
        <pt x="857" y="1363" on="0"/>
        <pt x="799" y="1362" on="1"/>
        <pt x="623" y="1358" on="1"/>
        <pt x="565" y="1356" on="0"/>
        <pt x="501" y="1327" on="0"/>
        <pt x="469" y="1267" on="0"/>
        <pt x="459" y="1176" on="0"/>
        <pt x="455" y="1114" on="1"/>
        <pt x="437" y="786" on="1"/>
        <pt x="584" y="784" on="1"/>
        <pt x="648" y="783" on="0"/>
        <pt x="742" y="793" on="0"/>
        <pt x="805" y="832" on="0"/>
        <pt x="837" y="909" on="0"/>
        <pt x="840" y="977" on="1"/>
        <pt x="908" y="977" on="1"/>
        <pt x="885" y="530" on="1"/>
        <pt x="818" y="530" on="1"/>
        <pt x="821" y="598" on="0"/>
        <pt x="797" y="673" on="0"/>
        <pt x="740" y="708" on="0"/>
        <pt x="648" y="713" on="0"/>
        <pt x="582" y="711" on="1"/>
        <pt x="433" y="705" on="1"/>
        <pt x="408" y="236" on="1"/>
        <pt x="405" y="180" on="0"/>
        <pt x="399" y="102" on="0"/>
        <pt x="394" y="76" on="1"/>
        <pt x="785" y="82" on="1"/>
        <pt x="852" y="83" on="0"/>
        <pt x="962" y="114" on="0"/>
        <pt x="1043" y="187" on="0"/>
        <pt x="1091" y="308" on="0"/>
        <pt x="1096" y="399" on="1"/>
        <pt x="1166" y="399" on="1"/>
        <pt x="1133" y="0" on="1"/>
      </contour>
    </TTGlyph>
    <TTGlyph name="Eth" xMin="47" yMin="0" xMax="1425" yMax="1436">
      <contour>
        <pt x="54" y="772" on="1"/>
        <pt x="267" y="772" on="1"/>
        <pt x="291" y="1204" on="1"/>
        <pt x="293" y="1246" on="0"/>
        <pt x="301" y="1321" on="0"/>
        <pt x="306" y="1352" on="1"/>
        <pt x="154" y="1343" on="1"/>
        <pt x="160" y="1434" on="1"/>
        <pt x="635" y="1436" on="1"/>
        <pt x="813" y="1436" on="0"/>
        <pt x="1105" y="1356" on="0"/>
        <pt x="1312" y="1192" on="0"/>
        <pt x="1425" y="941" on="0"/>
        <pt x="1425" y="770" on="1"/>
        <pt x="1425" y="670" on="0"/>
        <pt x="1380" y="479" on="0"/>
        <pt x="1291" y="307" on="0"/>
        <pt x="1156" y="163" on="0"/>
        <pt x="976" y="59" on="0"/>
        <pt x="750" y="0" on="0"/>
        <pt x="615" y="0" on="1"/>
        <pt x="84" y="0" on="1"/>
        <pt x="89" y="68" on="1"/>
        <pt x="146" y="70" on="0"/>
        <pt x="207" y="108" on="0"/>
        <pt x="235" y="178" on="0"/>
        <pt x="240" y="265" on="0"/>
        <pt x="242" y="319" on="1"/>
        <pt x="261" y="674" on="1"/>
        <pt x="47" y="672" on="1"/>
      </contour>
      <contour>
        <pt x="436" y="772" on="1"/>
        <pt x="699" y="772" on="1"/>
        <pt x="693" y="680" on="1"/>
        <pt x="431" y="676" on="1"/>
        <pt x="408" y="242" on="1"/>
        <pt x="405" y="185" on="0"/>
        <pt x="399" y="108" on="0"/>
        <pt x="394" y="82" on="1"/>
        <pt x="428" y="80" on="0"/>
        <pt x="485" y="78" on="0"/>
        <pt x="537" y="78" on="0"/>
        <pt x="587" y="78" on="0"/>
        <pt x="613" y="78" on="1"/>
        <pt x="752" y="78" on="0"/>
        <pt x="981" y="186" on="0"/>
        <pt x="1144" y="375" on="0"/>
        <pt x="1234" y="630" on="0"/>
        <pt x="1234" y="778" on="1"/>
        <pt x="1234" y="910" on="0"/>
        <pt x="1160" y="1125" on="0"/>
        <pt x="1009" y="1277" on="0"/>
        <pt x="779" y="1360" on="0"/>
        <pt x="622" y="1360" on="1"/>
        <pt x="563" y="1360" on="0"/>
        <pt x="498" y="1333" on="0"/>
        <pt x="467" y="1276" on="0"/>
        <pt x="458" y="1189" on="0"/>
        <pt x="455" y="1129" on="1"/>
      </contour>
    </TTGlyph>
    <TTGlyph name="Euro" xMin="65" yMin="-33" xMax="1460" yMax="1467">
      <contour>
        <pt x="977" y="1381" on="1"/>
        <pt x="891" y="1381" on="0"/>
        <pt x="730" y="1319" on="0"/>
        <pt x="594" y="1199" on="0"/>
        <pt x="491" y="1023" on="0"/>
        <pt x="464" y="908" on="1"/>
        <pt x="1167" y="905" on="1"/>
        <pt x="1106" y="799" on="1"/>
        <pt x="444" y="796" on="1"/>
        <pt x="440" y="766" on="0"/>
        <pt x="436" y="703" on="0"/>
        <pt x="436" y="671" on="1"/>
        <pt x="436" y="638" on="0"/>
        <pt x="439" y="608" on="1"/>
        <pt x="1011" y="606" on="1"/>
        <pt x="950" y="500" on="1"/>
        <pt x="455" y="498" on="1"/>
        <pt x="476" y="401" on="0"/>
        <pt x="563" y="246" on="0"/>
        <pt x="688" y="138" on="0"/>
        <pt x="844" y="80" on="0"/>
        <pt x="934" y="80" on="1"/>
        <pt x="1069" y="80" on="0"/>
        <pt x="1306" y="194" on="0"/>
        <pt x="1396" y="309" on="1"/>
        <pt x="1450" y="264" on="1"/>
        <pt x="1379" y="173" on="0"/>
        <pt x="1228" y="57" on="0"/>
        <pt x="1080" y="-9" on="0"/>
        <pt x="937" y="-33" on="0"/>
        <pt x="874" y="-33" on="1"/>
        <pt x="746" y="-33" on="0"/>
        <pt x="539" y="46" on="0"/>
        <pt x="385" y="187" on="0"/>
        <pt x="287" y="381" on="0"/>
        <pt x="268" y="497" on="1"/>
        <pt x="65" y="496" on="1"/>
        <pt x="100" y="610" on="1"/>
        <pt x="257" y="609" on="1"/>
        <pt x="256" y="619" on="0"/>
        <pt x="256" y="638" on="0"/>
        <pt x="256" y="649" on="1"/>
        <pt x="256" y="686" on="0"/>
        <pt x="262" y="760" on="0"/>
        <pt x="269" y="795" on="1"/>
        <pt x="82" y="795" on="1"/>
        <pt x="116" y="909" on="1"/>
        <pt x="293" y="908" on="1"/>
        <pt x="325" y="1022" on="0"/>
        <pt x="444" y="1225" on="0"/>
        <pt x="615" y="1378" on="0"/>
        <pt x="835" y="1467" on="0"/>
        <pt x="968" y="1467" on="1"/>
        <pt x="1079" y="1467" on="0"/>
        <pt x="1255" y="1409" on="0"/>
        <pt x="1339" y="1352" on="1"/>
        <pt x="1341" y="1352" on="1"/>
        <pt x="1349" y="1453" on="1"/>
        <pt x="1460" y="1453" on="1"/>
        <pt x="1398" y="1039" on="1"/>
        <pt x="1325" y="1039" on="1"/>
        <pt x="1318" y="1112" on="0"/>
        <pt x="1274" y="1237" on="0"/>
        <pt x="1191" y="1329" on="0"/>
        <pt x="1065" y="1381" on="0"/>
      </contour>
    </TTGlyph>
    <TTGlyph name="F" xMin="83" yMin="0" xMax="1101" yMax="1434">
      <contour>
        <pt x="786" y="498" on="1"/>
        <pt x="789" y="561" on="0"/>
        <pt x="769" y="633" on="0"/>
        <pt x="721" y="669" on="0"/>
        <pt x="644" y="678" on="0"/>
        <pt x="589" y="678" on="1"/>
        <pt x="509" y="678" on="0"/>
        <pt x="430" y="672" on="1"/>
        <pt x="407" y="244" on="1"/>
        <pt x="405" y="188" on="0"/>
        <pt x="398" y="108" on="0"/>
        <pt x="393" y="82" on="1"/>
        <pt x="602" y="90" on="1"/>
        <pt x="597" y="0" on="1"/>
        <pt x="83" y="0" on="1"/>
        <pt x="88" y="68" on="1"/>
        <pt x="145" y="70" on="0"/>
        <pt x="206" y="108" on="0"/>
        <pt x="233" y="174" on="0"/>
        <pt x="239" y="265" on="0"/>
        <pt x="241" y="319" on="1"/>
        <pt x="290" y="1204" on="1"/>
        <pt x="292" y="1246" on="0"/>
        <pt x="300" y="1321" on="0"/>
        <pt x="305" y="1352" on="1"/>
        <pt x="155" y="1343" on="1"/>
        <pt x="159" y="1434" on="1"/>
        <pt x="1101" y="1434" on="1"/>
        <pt x="1093" y="1075" on="1"/>
        <pt x="1026" y="1075" on="1"/>
        <pt x="1030" y="1166" on="0"/>
        <pt x="991" y="1279" on="0"/>
        <pt x="917" y="1342" on="0"/>
        <pt x="815" y="1363" on="0"/>
        <pt x="757" y="1362" on="1"/>
        <pt x="608" y="1358" on="1"/>
        <pt x="555" y="1356" on="0"/>
        <pt x="495" y="1325" on="0"/>
        <pt x="465" y="1268" on="0"/>
        <pt x="456" y="1185" on="0"/>
        <pt x="453" y="1131" on="1"/>
        <pt x="434" y="754" on="1"/>
        <pt x="593" y="754" on="1"/>
        <pt x="648" y="755" on="0"/>
        <pt x="726" y="768" on="0"/>
        <pt x="778" y="808" on="0"/>
        <pt x="805" y="883" on="0"/>
        <pt x="808" y="946" on="1"/>
        <pt x="876" y="946" on="1"/>
        <pt x="853" y="498" on="1"/>
      </contour>
    </TTGlyph>
    <TTGlyph name="G" xMin="100" yMin="-33" xMax="1505" yMax="1467">
      <contour>
        <pt x="1325" y="74" on="1"/>
        <pt x="1276" y="74" on="1"/>
        <pt x="1241" y="74" on="0"/>
        <pt x="1128" y="50" on="0"/>
        <pt x="1053" y="21" on="1"/>
        <pt x="1021" y="9" on="0"/>
        <pt x="943" y="-11" on="0"/>
        <pt x="862" y="-25" on="0"/>
        <pt x="782" y="-33" on="0"/>
        <pt x="749" y="-33" on="1"/>
        <pt x="601" y="-33" on="0"/>
        <pt x="361" y="57" on="0"/>
        <pt x="192" y="228" on="0"/>
        <pt x="100" y="474" on="0"/>
        <pt x="100" y="629" on="1"/>
        <pt x="100" y="729" on="0"/>
        <pt x="141" y="932" on="0"/>
        <pt x="223" y="1118" on="0"/>
        <pt x="346" y="1279" on="0"/>
        <pt x="512" y="1399" on="0"/>
        <pt x="720" y="1467" on="0"/>
        <pt x="846" y="1467" on="1"/>
        <pt x="901" y="1467" on="0"/>
        <pt x="1014" y="1451" on="0"/>
        <pt x="1122" y="1422" on="0"/>
        <pt x="1221" y="1381" on="0"/>
        <pt x="1263" y="1355" on="1"/>
        <pt x="1259" y="1453" on="1"/>
        <pt x="1372" y="1453" on="1"/>
        <pt x="1347" y="984" on="1"/>
        <pt x="1274" y="984" on="1"/>
        <pt x="1272" y="1080" on="0"/>
        <pt x="1207" y="1229" on="0"/>
        <pt x="1095" y="1332" on="0"/>
        <pt x="943" y="1385" on="0"/>
        <pt x="854" y="1385" on="1"/>
        <pt x="778" y="1385" on="0"/>
        <pt x="635" y="1337" on="0"/>
        <pt x="511" y="1249" on="0"/>
        <pt x="408" y="1123" on="0"/>
        <pt x="334" y="966" on="0"/>
        <pt x="293" y="783" on="0"/>
        <pt x="293" y="681" on="1"/>
        <pt x="293" y="546" on="0"/>
        <pt x="368" y="320" on="0"/>
        <pt x="503" y="157" on="0"/>
        <pt x="693" y="66" on="0"/>
        <pt x="809" y="66" on="1"/>
        <pt x="849" y="66" on="0"/>
        <pt x="940" y="78" on="0"/>
        <pt x="1033" y="102" on="0"/>
        <pt x="1124" y="141" on="0"/>
        <pt x="1165" y="168" on="1"/>
        <pt x="1188" y="614" on="1"/>
        <pt x="1044" y="606" on="1"/>
        <pt x="1048" y="696" on="1"/>
        <pt x="1505" y="696" on="1"/>
        <pt x="1501" y="629" on="1"/>
        <pt x="1462" y="629" on="0"/>
        <pt x="1409" y="600" on="0"/>
        <pt x="1375" y="555" on="0"/>
        <pt x="1355" y="500" on="0"/>
        <pt x="1345" y="446" on="0"/>
        <pt x="1342" y="399" on="0"/>
        <pt x="1341" y="385" on="1"/>
      </contour>
    </TTGlyph>
    <TTGlyph name="Gamma" xMin="84" yMin="0" xMax="1102" yMax="1434">
      <contour>
        <pt x="408" y="244" on="1"/>
        <pt x="406" y="188" on="0"/>
        <pt x="399" y="108" on="0"/>
        <pt x="394" y="82" on="1"/>
        <pt x="603" y="90" on="1"/>
        <pt x="598" y="0" on="1"/>
        <pt x="84" y="0" on="1"/>
        <pt x="89" y="68" on="1"/>
        <pt x="146" y="70" on="0"/>
        <pt x="207" y="108" on="0"/>
        <pt x="234" y="174" on="0"/>
        <pt x="240" y="265" on="0"/>
        <pt x="242" y="319" on="1"/>
        <pt x="291" y="1204" on="1"/>
        <pt x="293" y="1246" on="0"/>
        <pt x="301" y="1321" on="0"/>
        <pt x="306" y="1352" on="1"/>
        <pt x="156" y="1343" on="1"/>
        <pt x="160" y="1434" on="1"/>
        <pt x="1102" y="1434" on="1"/>
        <pt x="1094" y="1075" on="1"/>
        <pt x="1027" y="1075" on="1"/>
        <pt x="1031" y="1166" on="0"/>
        <pt x="992" y="1279" on="0"/>
        <pt x="918" y="1342" on="0"/>
        <pt x="816" y="1363" on="0"/>
        <pt x="758" y="1362" on="1"/>
        <pt x="609" y="1358" on="1"/>
        <pt x="556" y="1356" on="0"/>
        <pt x="496" y="1325" on="0"/>
        <pt x="466" y="1268" on="0"/>
        <pt x="457" y="1185" on="0"/>
        <pt x="454" y="1131" on="1"/>
      </contour>
    </TTGlyph>
    <TTGlyph name="Gbreve" xMin="101" yMin="-33" xMax="1506" yMax="1892">
      <component glyphName="G" x="1" y="0" flags="0x0"/>
      <component glyphName="Breve" x="498" y="0" flags="0x0"/>
    </TTGlyph>
    <TTGlyph name="Gcommaaccent" xMin="101" yMin="-531" xMax="1506" yMax="1467">
      <component glyphName="G" x="1" y="0" flags="0x0"/>
      <component glyphName="commaaccentcomb" x="514" y="0" flags="0x0"/>
    </TTGlyph>
    <TTGlyph name="Grave" xMin="92" yMin="1556" xMax="500" yMax="1896">
      <contour>
        <pt x="158" y="1747" on="1"/>
        <pt x="119" y="1772" on="0"/>
        <pt x="92" y="1815" on="0"/>
        <pt x="92" y="1834" on="1"/>
        <pt x="92" y="1857" on="0"/>
        <pt x="120" y="1896" on="0"/>
        <pt x="157" y="1896" on="1"/>
        <pt x="173" y="1896" on="0"/>
        <pt x="214" y="1878" on="0"/>
        <pt x="240" y="1855" on="1"/>
        <pt x="500" y="1614" on="1"/>
        <pt x="457" y="1556" on="1"/>
      </contour>
    </TTGlyph>
    <TTGlyph name="H" xMin="84" yMin="0" xMax="1516" yMax="1434">
      <contour>
        <pt x="1165" y="693" on="1"/>
        <pt x="431" y="684" on="1"/>
        <pt x="408" y="244" on="1"/>
        <pt x="405" y="188" on="0"/>
        <pt x="399" y="108" on="0"/>
        <pt x="394" y="82" on="1"/>
        <pt x="541" y="90" on="1"/>
        <pt x="537" y="0" on="1"/>
        <pt x="84" y="0" on="1"/>
        <pt x="89" y="68" on="1"/>
        <pt x="146" y="70" on="0"/>
        <pt x="206" y="108" on="0"/>
        <pt x="233" y="174" on="0"/>
        <pt x="239" y="265" on="0"/>
        <pt x="242" y="319" on="1"/>
        <pt x="289" y="1204" on="1"/>
        <pt x="291" y="1246" on="0"/>
        <pt x="299" y="1321" on="0"/>
        <pt x="304" y="1352" on="1"/>
        <pt x="156" y="1343" on="1"/>
        <pt x="160" y="1434" on="1"/>
        <pt x="613" y="1434" on="1"/>
        <pt x="609" y="1366" on="1"/>
        <pt x="559" y="1364" on="0"/>
        <pt x="500" y="1333" on="0"/>
        <pt x="469" y="1277" on="0"/>
        <pt x="458" y="1194" on="0"/>
        <pt x="455" y="1139" on="1"/>
        <pt x="435" y="774" on="1"/>
        <pt x="1169" y="774" on="1"/>
        <pt x="1192" y="1204" on="1"/>
        <pt x="1194" y="1246" on="0"/>
        <pt x="1202" y="1321" on="0"/>
        <pt x="1207" y="1352" on="1"/>
        <pt x="1059" y="1343" on="1"/>
        <pt x="1063" y="1434" on="1"/>
        <pt x="1516" y="1434" on="1"/>
        <pt x="1512" y="1366" on="1"/>
        <pt x="1462" y="1364" on="0"/>
        <pt x="1403" y="1334" on="0"/>
        <pt x="1372" y="1278" on="0"/>
        <pt x="1361" y="1196" on="0"/>
        <pt x="1358" y="1141" on="1"/>
        <pt x="1311" y="244" on="1"/>
        <pt x="1308" y="188" on="0"/>
        <pt x="1302" y="108" on="0"/>
        <pt x="1297" y="82" on="1"/>
        <pt x="1444" y="90" on="1"/>
        <pt x="1440" y="0" on="1"/>
        <pt x="988" y="0" on="1"/>
        <pt x="992" y="68" on="1"/>
        <pt x="1049" y="70" on="0"/>
        <pt x="1110" y="108" on="0"/>
        <pt x="1137" y="174" on="0"/>
        <pt x="1143" y="265" on="0"/>
        <pt x="1145" y="319" on="1"/>
      </contour>
    </TTGlyph>
    <TTGlyph name="I" xMin="84" yMin="0" xMax="613" yMax="1434">
      <contour>
        <pt x="289" y="1204" on="1"/>
        <pt x="291" y="1246" on="0"/>
        <pt x="299" y="1321" on="0"/>
        <pt x="304" y="1352" on="1"/>
        <pt x="156" y="1343" on="1"/>
        <pt x="160" y="1434" on="1"/>
        <pt x="613" y="1434" on="1"/>
        <pt x="609" y="1366" on="1"/>
        <pt x="555" y="1364" on="0"/>
        <pt x="495" y="1332" on="0"/>
        <pt x="465" y="1274" on="0"/>
        <pt x="457" y="1189" on="0"/>
        <pt x="455" y="1134" on="1"/>
        <pt x="408" y="244" on="1"/>
        <pt x="406" y="187" on="0"/>
        <pt x="399" y="108" on="0"/>
        <pt x="394" y="82" on="1"/>
        <pt x="541" y="90" on="1"/>
        <pt x="537" y="0" on="1"/>
        <pt x="84" y="0" on="1"/>
        <pt x="89" y="68" on="1"/>
        <pt x="146" y="70" on="0"/>
        <pt x="207" y="108" on="0"/>
        <pt x="235" y="174" on="0"/>
        <pt x="240" y="265" on="0"/>
        <pt x="242" y="319" on="1"/>
      </contour>
    </TTGlyph>
    <TTGlyph name="Iacute" xMin="84" yMin="0" xMax="732" yMax="1896">
      <component glyphName="I" x="0" y="0" flags="0x204"/>
      <component glyphName="Acute" x="232" y="0" flags="0x4"/>
    </TTGlyph>
    <TTGlyph name="Icircumflex" xMin="28" yMin="0" xMax="765" yMax="1905">
      <contour>
        <pt x="411" y="1905" on="1"/>
        <pt x="415" y="1905" on="1"/>
        <pt x="765" y="1616" on="1"/>
        <pt x="728" y="1559" on="1"/>
        <pt x="395" y="1741" on="1"/>
        <pt x="391" y="1741" on="1"/>
        <pt x="61" y="1565" on="1"/>
        <pt x="28" y="1616" on="1"/>
      </contour>
      <contour>
        <pt x="288" y="1204" on="1"/>
        <pt x="290" y="1246" on="0"/>
        <pt x="298" y="1321" on="0"/>
        <pt x="303" y="1352" on="1"/>
        <pt x="155" y="1343" on="1"/>
        <pt x="159" y="1434" on="1"/>
        <pt x="612" y="1434" on="1"/>
        <pt x="608" y="1366" on="1"/>
        <pt x="554" y="1364" on="0"/>
        <pt x="494" y="1332" on="0"/>
        <pt x="464" y="1273" on="0"/>
        <pt x="456" y="1189" on="0"/>
        <pt x="454" y="1134" on="1"/>
        <pt x="407" y="244" on="1"/>
        <pt x="405" y="188" on="0"/>
        <pt x="398" y="108" on="0"/>
        <pt x="393" y="82" on="1"/>
        <pt x="540" y="90" on="1"/>
        <pt x="536" y="0" on="1"/>
        <pt x="83" y="0" on="1"/>
        <pt x="88" y="68" on="1"/>
        <pt x="145" y="70" on="0"/>
        <pt x="206" y="108" on="0"/>
        <pt x="233" y="174" on="0"/>
        <pt x="239" y="265" on="0"/>
        <pt x="241" y="319" on="1"/>
      </contour>
    </TTGlyph>
    <TTGlyph name="Idieresis" xMin="84" yMin="0" xMax="658" yMax="1838">
      <contour>
        <pt x="289" y="1204" on="1"/>
        <pt x="291" y="1246" on="0"/>
        <pt x="299" y="1321" on="0"/>
        <pt x="304" y="1352" on="1"/>
        <pt x="156" y="1343" on="1"/>
        <pt x="160" y="1434" on="1"/>
        <pt x="613" y="1434" on="1"/>
        <pt x="609" y="1366" on="1"/>
        <pt x="555" y="1364" on="0"/>
        <pt x="495" y="1332" on="0"/>
        <pt x="465" y="1274" on="0"/>
        <pt x="457" y="1189" on="0"/>
        <pt x="455" y="1134" on="1"/>
        <pt x="408" y="244" on="1"/>
        <pt x="406" y="187" on="0"/>
        <pt x="399" y="108" on="0"/>
        <pt x="394" y="82" on="1"/>
        <pt x="541" y="90" on="1"/>
        <pt x="537" y="0" on="1"/>
        <pt x="84" y="0" on="1"/>
        <pt x="89" y="68" on="1"/>
        <pt x="146" y="70" on="0"/>
        <pt x="207" y="108" on="0"/>
        <pt x="235" y="174" on="0"/>
        <pt x="240" y="265" on="0"/>
        <pt x="242" y="319" on="1"/>
      </contour>
      <contour>
        <pt x="346" y="1715" on="1"/>
        <pt x="345" y="1689" on="0"/>
        <pt x="327" y="1645" on="0"/>
        <pt x="298" y="1612" on="0"/>
        <pt x="261" y="1593" on="0"/>
        <pt x="241" y="1593" on="1"/>
        <pt x="200" y="1593" on="0"/>
        <pt x="145" y="1659" on="0"/>
        <pt x="145" y="1708" on="1"/>
        <pt x="145" y="1735" on="0"/>
        <pt x="163" y="1782" on="0"/>
        <pt x="193" y="1818" on="0"/>
        <pt x="233" y="1838" on="0"/>
        <pt x="255" y="1838" on="1"/>
        <pt x="297" y="1838" on="0"/>
        <pt x="346" y="1772" on="0"/>
        <pt x="346" y="1723" on="1"/>
      </contour>
      <contour>
        <pt x="658" y="1715" on="1"/>
        <pt x="657" y="1689" on="0"/>
        <pt x="639" y="1645" on="0"/>
        <pt x="610" y="1612" on="0"/>
        <pt x="573" y="1593" on="0"/>
        <pt x="553" y="1593" on="1"/>
        <pt x="512" y="1593" on="0"/>
        <pt x="457" y="1659" on="0"/>
        <pt x="457" y="1708" on="1"/>
        <pt x="457" y="1735" on="0"/>
        <pt x="475" y="1782" on="0"/>
        <pt x="505" y="1818" on="0"/>
        <pt x="545" y="1838" on="0"/>
        <pt x="567" y="1838" on="1"/>
        <pt x="609" y="1838" on="0"/>
        <pt x="658" y="1772" on="0"/>
        <pt x="658" y="1723" on="1"/>
      </contour>
    </TTGlyph>
    <TTGlyph name="Idotaccent" xMin="84" yMin="0" xMax="613" yMax="1894">
      <component glyphName="I" x="0" y="0" flags="0x0"/>
      <component glyphName="period" x="238" y="1687" scalex="0.923095703125" scaley="0.922485351562" flags="0x0"/>
    </TTGlyph>
    <TTGlyph name="Igrave" xMin="83" yMin="0" xMax="612" yMax="1896">
      <component glyphName="I" x="-1" y="0" flags="0x4"/>
      <component glyphName="Grave" x="6" y="0" flags="0x4"/>
    </TTGlyph>
    <TTGlyph name="Imacron" xMin="84" yMin="0" xMax="687" yMax="1846">
      <component glyphName="I" x="0" y="0" flags="0x0"/>
      <component glyphName="macron" x="46" y="410" flags="0x0"/>
    </TTGlyph>
    <TTGlyph name="Iogonek" xMin="84" yMin="-582" xMax="613" yMax="1434">
      <contour>
        <pt x="408" y="244" on="1"/>
        <pt x="406" y="188" on="0"/>
        <pt x="399" y="108" on="0"/>
        <pt x="394" y="82" on="1"/>
        <pt x="541" y="90" on="1"/>
        <pt x="539" y="52" on="1"/>
        <pt x="541" y="53" on="1"/>
        <pt x="537" y="-1" on="1"/>
        <pt x="477" y="-24" on="0"/>
        <pt x="367" y="-95" on="0"/>
        <pt x="283" y="-183" on="0"/>
        <pt x="232" y="-286" on="0"/>
        <pt x="232" y="-341" on="1"/>
        <pt x="232" y="-406" on="0"/>
        <pt x="295" y="-484" on="0"/>
        <pt x="355" y="-484" on="1"/>
        <pt x="392" y="-484" on="0"/>
        <pt x="473" y="-453" on="0"/>
        <pt x="511" y="-418" on="1"/>
        <pt x="539" y="-453" on="1"/>
        <pt x="518" y="-477" on="0"/>
        <pt x="461" y="-523" on="0"/>
        <pt x="396" y="-560" on="0"/>
        <pt x="325" y="-582" on="0"/>
        <pt x="288" y="-582" on="1"/>
        <pt x="243" y="-582" on="0"/>
        <pt x="172" y="-551" on="0"/>
        <pt x="124" y="-496" on="0"/>
        <pt x="101" y="-419" on="0"/>
        <pt x="103" y="-373" on="1"/>
        <pt x="106" y="-313" on="0"/>
        <pt x="157" y="-205" on="0"/>
        <pt x="241" y="-110" on="0"/>
        <pt x="350" y="-31" on="0"/>
        <pt x="411" y="0" on="1"/>
        <pt x="84" y="0" on="1"/>
        <pt x="89" y="68" on="1"/>
        <pt x="146" y="70" on="0"/>
        <pt x="207" y="108" on="0"/>
        <pt x="234" y="174" on="0"/>
        <pt x="240" y="265" on="0"/>
        <pt x="242" y="319" on="1"/>
        <pt x="289" y="1204" on="1"/>
        <pt x="291" y="1246" on="0"/>
        <pt x="299" y="1321" on="0"/>
        <pt x="304" y="1352" on="1"/>
        <pt x="156" y="1343" on="1"/>
        <pt x="160" y="1434" on="1"/>
        <pt x="613" y="1434" on="1"/>
        <pt x="609" y="1366" on="1"/>
        <pt x="555" y="1364" on="0"/>
        <pt x="495" y="1332" on="0"/>
        <pt x="465" y="1273" on="0"/>
        <pt x="457" y="1189" on="0"/>
        <pt x="455" y="1134" on="1"/>
      </contour>
    </TTGlyph>
    <TTGlyph name="J" xMin="-29" yMin="-33" xMax="739" yMax="1434">
      <contour>
        <pt x="149" y="81" on="1"/>
        <pt x="159" y="64" on="0"/>
        <pt x="201" y="49" on="0"/>
        <pt x="218" y="50" on="1"/>
        <pt x="236" y="51" on="0"/>
        <pt x="279" y="65" on="0"/>
        <pt x="319" y="118" on="0"/>
        <pt x="349" y="222" on="0"/>
        <pt x="354" y="314" on="1"/>
        <pt x="407" y="1352" on="1"/>
        <pt x="198" y="1343" on="1"/>
        <pt x="202" y="1434" on="1"/>
        <pt x="739" y="1434" on="1"/>
        <pt x="734" y="1366" on="1"/>
        <pt x="683" y="1366" on="0"/>
        <pt x="620" y="1335" on="0"/>
        <pt x="583" y="1280" on="0"/>
        <pt x="568" y="1206" on="0"/>
        <pt x="566" y="1163" on="1"/>
        <pt x="532" y="500" on="1"/>
        <pt x="525" y="356" on="0"/>
        <pt x="479" y="153" on="0"/>
        <pt x="395" y="25" on="0"/>
        <pt x="267" y="-33" on="0"/>
        <pt x="179" y="-33" on="1"/>
        <pt x="142" y="-33" on="0"/>
        <pt x="68" y="-18" on="0"/>
        <pt x="8" y="17" on="0"/>
        <pt x="-29" y="72" on="0"/>
        <pt x="-29" y="112" on="1"/>
        <pt x="-29" y="154" on="0"/>
        <pt x="19" y="217" on="0"/>
        <pt x="62" y="220" on="1"/>
        <pt x="87" y="221" on="0"/>
        <pt x="123" y="205" on="0"/>
        <pt x="147" y="178" on="0"/>
        <pt x="158" y="144" on="0"/>
        <pt x="158" y="128" on="1"/>
        <pt x="158" y="118" on="0"/>
        <pt x="154" y="92" on="0"/>
      </contour>
    </TTGlyph>
    <TTGlyph name="K" xMin="84" yMin="0" xMax="1356" yMax="1434">
      <contour>
        <pt x="289" y="1204" on="1"/>
        <pt x="291" y="1246" on="0"/>
        <pt x="299" y="1321" on="0"/>
        <pt x="304" y="1352" on="1"/>
        <pt x="156" y="1343" on="1"/>
        <pt x="160" y="1434" on="1"/>
        <pt x="613" y="1434" on="1"/>
        <pt x="609" y="1366" on="1"/>
        <pt x="559" y="1364" on="0"/>
        <pt x="500" y="1332" on="0"/>
        <pt x="469" y="1273" on="0"/>
        <pt x="458" y="1189" on="0"/>
        <pt x="455" y="1134" on="1"/>
        <pt x="436" y="778" on="1"/>
        <pt x="596" y="778" on="1"/>
        <pt x="869" y="1182" on="1"/>
        <pt x="896" y="1223" on="0"/>
        <pt x="977" y="1318" on="0"/>
        <pt x="1027" y="1352" on="1"/>
        <pt x="1027" y="1354" on="1"/>
        <pt x="897" y="1350" on="1"/>
        <pt x="902" y="1434" on="1"/>
        <pt x="1342" y="1434" on="1"/>
        <pt x="1338" y="1366" on="1"/>
        <pt x="1273" y="1361" on="0"/>
        <pt x="1166" y="1336" on="0"/>
        <pt x="1066" y="1277" on="0"/>
        <pt x="967" y="1174" on="0"/>
        <pt x="910" y="1090" on="1"/>
        <pt x="693" y="770" on="1"/>
        <pt x="721" y="752" on="0"/>
        <pt x="765" y="711" on="0"/>
        <pt x="802" y="667" on="0"/>
        <pt x="835" y="620" on="0"/>
        <pt x="852" y="596" on="1"/>
        <pt x="1067" y="291" on="1"/>
        <pt x="1121" y="213" on="0"/>
        <pt x="1200" y="124" on="0"/>
        <pt x="1265" y="79" on="0"/>
        <pt x="1323" y="68" on="0"/>
        <pt x="1356" y="68" on="1"/>
        <pt x="1352" y="0" on="1"/>
        <pt x="1110" y="0" on="1"/>
        <pt x="1095" y="0" on="0"/>
        <pt x="1051" y="33" on="0"/>
        <pt x="1000" y="89" on="0"/>
        <pt x="942" y="162" on="0"/>
        <pt x="914" y="201" on="1"/>
        <pt x="687" y="532" on="1"/>
        <pt x="652" y="584" on="0"/>
        <pt x="576" y="675" on="0"/>
        <pt x="541" y="698" on="1"/>
        <pt x="432" y="696" on="1"/>
        <pt x="408" y="244" on="1"/>
        <pt x="405" y="188" on="0"/>
        <pt x="399" y="108" on="0"/>
        <pt x="394" y="82" on="1"/>
        <pt x="541" y="90" on="1"/>
        <pt x="537" y="0" on="1"/>
        <pt x="84" y="0" on="1"/>
        <pt x="89" y="68" on="1"/>
        <pt x="146" y="70" on="0"/>
        <pt x="207" y="108" on="0"/>
        <pt x="234" y="174" on="0"/>
        <pt x="240" y="265" on="0"/>
        <pt x="242" y="319" on="1"/>
      </contour>
    </TTGlyph>
    <TTGlyph name="Kcommaaccent" xMin="85" yMin="-531" xMax="1357" yMax="1434">
      <component glyphName="K" x="1" y="0" flags="0x0"/>
      <component glyphName="commaaccentcomb" x="475" y="0" flags="0x0"/>
    </TTGlyph>
    <TTGlyph name="L" xMin="82" yMin="0" xMax="1125" yMax="1434">
      <contour>
        <pt x="406" y="236" on="1"/>
        <pt x="403" y="180" on="0"/>
        <pt x="397" y="102" on="0"/>
        <pt x="392" y="76" on="1"/>
        <pt x="775" y="82" on="1"/>
        <pt x="839" y="83" on="0"/>
        <pt x="940" y="122" on="0"/>
        <pt x="1010" y="204" on="0"/>
        <pt x="1050" y="333" on="0"/>
        <pt x="1055" y="424" on="1"/>
        <pt x="1125" y="424" on="1"/>
        <pt x="1090" y="0" on="1"/>
        <pt x="82" y="0" on="1"/>
        <pt x="87" y="68" on="1"/>
        <pt x="144" y="70" on="0"/>
        <pt x="204" y="108" on="0"/>
        <pt x="231" y="174" on="0"/>
        <pt x="237" y="265" on="0"/>
        <pt x="240" y="319" on="1"/>
        <pt x="289" y="1204" on="1"/>
        <pt x="291" y="1246" on="0"/>
        <pt x="297" y="1321" on="0"/>
        <pt x="304" y="1352" on="1"/>
        <pt x="158" y="1343" on="1"/>
        <pt x="158" y="1434" on="1"/>
        <pt x="611" y="1434" on="1"/>
        <pt x="607" y="1366" on="1"/>
        <pt x="553" y="1364" on="0"/>
        <pt x="493" y="1325" on="0"/>
        <pt x="463" y="1259" on="0"/>
        <pt x="455" y="1169" on="0"/>
        <pt x="453" y="1114" on="1"/>
      </contour>
    </TTGlyph>
    <TTGlyph name="Lacute" xMin="82" yMin="0" xMax="1125" yMax="1896">
      <component glyphName="L" x="0" y="0" flags="0x0"/>
      <component glyphName="Acute" x="165" y="0" flags="0x0"/>
    </TTGlyph>
    <TTGlyph name="Lcaron" xMin="82" yMin="0" xMax="1125" yMax="1461">
      <contour>
        <pt x="980" y="1434" on="1"/>
        <pt x="997" y="1398" on="0"/>
        <pt x="1007" y="1347" on="0"/>
        <pt x="1003" y="1311" on="1"/>
        <pt x="999" y="1270" on="0"/>
        <pt x="970" y="1189" on="0"/>
        <pt x="925" y="1112" on="0"/>
        <pt x="867" y="1040" on="0"/>
        <pt x="835" y="1008" on="1"/>
        <pt x="781" y="1048" on="1"/>
        <pt x="815" y="1112" on="0"/>
        <pt x="850" y="1223" on="0"/>
        <pt x="861" y="1323" on="0"/>
        <pt x="850" y="1415" on="0"/>
        <pt x="839" y="1461" on="1"/>
      </contour>
      <contour>
        <pt x="607" y="1366" on="1"/>
        <pt x="553" y="1364" on="0"/>
        <pt x="493" y="1325" on="0"/>
        <pt x="463" y="1259" on="0"/>
        <pt x="455" y="1169" on="0"/>
        <pt x="453" y="1114" on="1"/>
        <pt x="406" y="236" on="1"/>
        <pt x="403" y="180" on="0"/>
        <pt x="397" y="102" on="0"/>
        <pt x="392" y="76" on="1"/>
        <pt x="775" y="82" on="1"/>
        <pt x="839" y="83" on="0"/>
        <pt x="940" y="122" on="0"/>
        <pt x="1010" y="204" on="0"/>
        <pt x="1050" y="333" on="0"/>
        <pt x="1055" y="424" on="1"/>
        <pt x="1125" y="424" on="1"/>
        <pt x="1090" y="0" on="1"/>
        <pt x="82" y="0" on="1"/>
        <pt x="87" y="68" on="1"/>
        <pt x="144" y="70" on="0"/>
        <pt x="204" y="108" on="0"/>
        <pt x="231" y="174" on="0"/>
        <pt x="237" y="265" on="0"/>
        <pt x="240" y="319" on="1"/>
        <pt x="289" y="1204" on="1"/>
        <pt x="291" y="1246" on="0"/>
        <pt x="297" y="1321" on="0"/>
        <pt x="304" y="1352" on="1"/>
        <pt x="158" y="1343" on="1"/>
        <pt x="158" y="1434" on="1"/>
        <pt x="611" y="1434" on="1"/>
      </contour>
    </TTGlyph>
    <TTGlyph name="Lcommaaccent" xMin="83" yMin="-531" xMax="1126" yMax="1434">
      <component glyphName="L" x="1" y="0" flags="0x0"/>
      <component glyphName="commaaccentcomb" x="344" y="0" flags="0x0"/>
    </TTGlyph>
    <TTGlyph name="Lslash" xMin="83" yMin="0" xMax="1126" yMax="1434">
      <contour>
        <pt x="439" y="831" on="1"/>
        <pt x="649" y="985" on="1"/>
        <pt x="642" y="874" on="1"/>
        <pt x="433" y="720" on="1"/>
        <pt x="407" y="236" on="1"/>
        <pt x="404" y="179" on="0"/>
        <pt x="398" y="102" on="0"/>
        <pt x="393" y="76" on="1"/>
        <pt x="776" y="82" on="1"/>
        <pt x="841" y="83" on="0"/>
        <pt x="941" y="122" on="0"/>
        <pt x="1011" y="204" on="0"/>
        <pt x="1051" y="333" on="0"/>
        <pt x="1056" y="424" on="1"/>
        <pt x="1126" y="424" on="1"/>
        <pt x="1091" y="0" on="1"/>
        <pt x="83" y="0" on="1"/>
        <pt x="88" y="68" on="1"/>
        <pt x="145" y="70" on="0"/>
        <pt x="205" y="108" on="0"/>
        <pt x="232" y="174" on="0"/>
        <pt x="238" y="265" on="0"/>
        <pt x="241" y="319" on="1"/>
        <pt x="256" y="590" on="1"/>
        <pt x="89" y="467" on="1"/>
        <pt x="96" y="582" on="1"/>
        <pt x="262" y="703" on="1"/>
        <pt x="290" y="1204" on="1"/>
        <pt x="292" y="1246" on="0"/>
        <pt x="298" y="1321" on="0"/>
        <pt x="305" y="1352" on="1"/>
        <pt x="159" y="1343" on="1"/>
        <pt x="159" y="1434" on="1"/>
        <pt x="612" y="1434" on="1"/>
        <pt x="608" y="1366" on="1"/>
        <pt x="554" y="1364" on="0"/>
        <pt x="494" y="1326" on="0"/>
        <pt x="464" y="1259" on="0"/>
        <pt x="456" y="1168" on="0"/>
        <pt x="454" y="1114" on="1"/>
      </contour>
    </TTGlyph>
    <TTGlyph name="M" xMin="61" yMin="-20" xMax="1781" yMax="1434">
      <contour>
        <pt x="182" y="1434" on="1"/>
        <pt x="487" y="1434" on="1"/>
        <pt x="549" y="1273" on="0"/>
        <pt x="661" y="975" on="0"/>
        <pt x="767" y="686" on="0"/>
        <pt x="874" y="399" on="0"/>
        <pt x="931" y="250" on="1"/>
        <pt x="936" y="250" on="1"/>
        <pt x="949" y="278" on="0"/>
        <pt x="980" y="346" on="0"/>
        <pt x="1012" y="418" on="0"/>
        <pt x="1042" y="486" on="0"/>
        <pt x="1054" y="514" on="1"/>
        <pt x="1103" y="625" on="0"/>
        <pt x="1214" y="858" on="0"/>
        <pt x="1327" y="1093" on="0"/>
        <pt x="1438" y="1324" on="0"/>
        <pt x="1486" y="1434" on="1"/>
        <pt x="1781" y="1434" on="1"/>
        <pt x="1777" y="1366" on="1"/>
        <pt x="1739" y="1367" on="0"/>
        <pt x="1681" y="1344" on="0"/>
        <pt x="1644" y="1292" on="0"/>
        <pt x="1625" y="1206" on="0"/>
        <pt x="1626" y="1143" on="1"/>
        <pt x="1632" y="211" on="1"/>
        <pt x="1632" y="174" on="0"/>
        <pt x="1630" y="110" on="0"/>
        <pt x="1628" y="82" on="1"/>
        <pt x="1779" y="90" on="1"/>
        <pt x="1773" y="0" on="1"/>
        <pt x="1323" y="0" on="1"/>
        <pt x="1327" y="68" on="1"/>
        <pt x="1343" y="68" on="1"/>
        <pt x="1385" y="72" on="0"/>
        <pt x="1436" y="107" on="0"/>
        <pt x="1462" y="168" on="0"/>
        <pt x="1470" y="255" on="0"/>
        <pt x="1470" y="311" on="1"/>
        <pt x="1470" y="1012" on="1"/>
        <pt x="1470" y="1057" on="0"/>
        <pt x="1470" y="1143" on="0"/>
        <pt x="1472" y="1188" on="1"/>
        <pt x="1468" y="1188" on="1"/>
        <pt x="1396" y="1031" on="1"/>
        <pt x="909" y="-20" on="1"/>
        <pt x="850" y="-20" on="1"/>
        <pt x="754" y="222" on="0"/>
        <pt x="585" y="704" on="0"/>
        <pt x="495" y="946" on="1"/>
        <pt x="480" y="986" on="0"/>
        <pt x="459" y="1044" on="0"/>
        <pt x="439" y="1101" on="0"/>
        <pt x="419" y="1166" on="0"/>
        <pt x="405" y="1214" on="1"/>
        <pt x="401" y="1214" on="1"/>
        <pt x="397" y="1099" on="0"/>
        <pt x="382" y="899" on="0"/>
        <pt x="374" y="809" on="1"/>
        <pt x="321" y="256" on="1"/>
        <pt x="316" y="210" on="0"/>
        <pt x="308" y="120" on="0"/>
        <pt x="302" y="82" on="1"/>
        <pt x="456" y="90" on="1"/>
        <pt x="450" y="0" on="1"/>
        <pt x="61" y="0" on="1"/>
        <pt x="65" y="68" on="1"/>
        <pt x="113" y="69" on="0"/>
        <pt x="168" y="100" on="0"/>
        <pt x="199" y="151" on="0"/>
        <pt x="211" y="218" on="0"/>
        <pt x="215" y="256" on="1"/>
        <pt x="325" y="1352" on="1"/>
        <pt x="178" y="1346" on="1"/>
      </contour>
    </TTGlyph>
    <TTGlyph name="N" xMin="92" yMin="-23" xMax="1522" yMax="1434">
      <contour>
        <pt x="1311" y="-23" on="1"/>
        <pt x="1212" y="-23" on="1"/>
        <pt x="375" y="1174" on="1"/>
        <pt x="371" y="1174" on="1"/>
        <pt x="338" y="285" on="1"/>
        <pt x="335" y="232" on="0"/>
        <pt x="331" y="130" on="0"/>
        <pt x="324" y="82" on="1"/>
        <pt x="471" y="90" on="1"/>
        <pt x="467" y="0" on="1"/>
        <pt x="92" y="0" on="1"/>
        <pt x="94" y="68" on="1"/>
        <pt x="141" y="68" on="0"/>
        <pt x="197" y="101" on="0"/>
        <pt x="227" y="149" on="0"/>
        <pt x="237" y="205" on="0"/>
        <pt x="238" y="229" on="1"/>
        <pt x="293" y="1352" on="1"/>
        <pt x="156" y="1343" on="1"/>
        <pt x="160" y="1434" on="1"/>
        <pt x="403" y="1434" on="1"/>
        <pt x="1227" y="262" on="1"/>
        <pt x="1231" y="262" on="1"/>
        <pt x="1274" y="1204" on="1"/>
        <pt x="1276" y="1249" on="0"/>
        <pt x="1283" y="1322" on="0"/>
        <pt x="1288" y="1352" on="1"/>
        <pt x="1141" y="1343" on="1"/>
        <pt x="1145" y="1434" on="1"/>
        <pt x="1522" y="1434" on="1"/>
        <pt x="1518" y="1366" on="1"/>
        <pt x="1460" y="1364" on="0"/>
        <pt x="1401" y="1325" on="0"/>
        <pt x="1375" y="1259" on="0"/>
        <pt x="1371" y="1169" on="0"/>
        <pt x="1368" y="1114" on="1"/>
      </contour>
    </TTGlyph>
    <TTGlyph name="Nacute" xMin="92" yMin="-23" xMax="1522" yMax="1896">
      <component glyphName="N" x="0" y="0" flags="0x200"/>
      <component glyphName="Acute" x="605" y="0" flags="0x0"/>
    </TTGlyph>
    <TTGlyph name="Ncaron" xMin="93" yMin="-23" xMax="1523" yMax="1886">
      <component glyphName="N" x="1" y="0" flags="0x200"/>
      <component glyphName="Caron" x="420" y="0" flags="0x0"/>
    </TTGlyph>
    <TTGlyph name="Ncommaaccent" xMin="93" yMin="-531" xMax="1523" yMax="1434">
      <component glyphName="N" x="1" y="0" flags="0x200"/>
      <component glyphName="commaaccentcomb" x="501" y="0" flags="0x0"/>
    </TTGlyph>
    <TTGlyph name="Ntilde" xMin="92" yMin="-23" xMax="1522" yMax="1853">
      <component glyphName="N" x="0" y="0" flags="0x204"/>
      <component glyphName="Tilde" x="348" y="0" flags="0x4"/>
    </TTGlyph>
    <TTGlyph name="O" xMin="100" yMin="-33" xMax="1528" yMax="1467">
      <contour>
        <pt x="835" y="1385" on="1"/>
        <pt x="748" y="1385" on="0"/>
        <pt x="601" y="1328" on="0"/>
        <pt x="482" y="1230" on="0"/>
        <pt x="390" y="1097" on="0"/>
        <pt x="328" y="945" on="0"/>
        <pt x="296" y="782" on="0"/>
        <pt x="296" y="703" on="1"/>
        <pt x="296" y="633" on="0"/>
        <pt x="319" y="483" on="0"/>
        <pt x="369" y="338" on="0"/>
        <pt x="447" y="208" on="0"/>
        <pt x="558" y="109" on="0"/>
        <pt x="702" y="51" on="0"/>
        <pt x="792" y="51" on="1"/>
        <pt x="880" y="51" on="0"/>
        <pt x="1029" y="107" on="0"/>
        <pt x="1149" y="204" on="0"/>
        <pt x="1240" y="335" on="0"/>
        <pt x="1301" y="484" on="0"/>
        <pt x="1332" y="645" on="0"/>
        <pt x="1332" y="723" on="1"/>
        <pt x="1332" y="803" on="0"/>
        <pt x="1304" y="964" on="0"/>
        <pt x="1248" y="1111" on="0"/>
        <pt x="1164" y="1238" on="0"/>
        <pt x="1054" y="1332" on="0"/>
        <pt x="917" y="1385" on="0"/>
      </contour>
      <contour>
        <pt x="100" y="670" on="1"/>
        <pt x="100" y="829" on="0"/>
        <pt x="205" y="1117" on="0"/>
        <pt x="399" y="1337" on="0"/>
        <pt x="675" y="1467" on="0"/>
        <pt x="846" y="1467" on="1"/>
        <pt x="966" y="1467" on="0"/>
        <pt x="1161" y="1408" on="0"/>
        <pt x="1312" y="1305" on="0"/>
        <pt x="1422" y="1167" on="0"/>
        <pt x="1494" y="1009" on="0"/>
        <pt x="1528" y="839" on="0"/>
        <pt x="1528" y="756" on="1"/>
        <pt x="1528" y="669" on="0"/>
        <pt x="1487" y="484" on="0"/>
        <pt x="1405" y="309" on="0"/>
        <pt x="1281" y="153" on="0"/>
        <pt x="1116" y="36" on="0"/>
        <pt x="907" y="-33" on="0"/>
        <pt x="782" y="-33" on="1"/>
        <pt x="662" y="-33" on="0"/>
        <pt x="467" y="25" on="0"/>
        <pt x="316" y="126" on="0"/>
        <pt x="206" y="262" on="0"/>
        <pt x="134" y="418" on="0"/>
        <pt x="100" y="587" on="0"/>
      </contour>
    </TTGlyph>
    <TTGlyph name="OE" xMin="92" yMin="-33" xMax="1970" yMax="1468">
      <contour>
        <pt x="1427" y="1358" on="1"/>
        <pt x="1370" y="1356" on="0"/>
        <pt x="1305" y="1327" on="0"/>
        <pt x="1273" y="1267" on="0"/>
        <pt x="1262" y="1176" on="0"/>
        <pt x="1259" y="1114" on="1"/>
        <pt x="1241" y="784" on="1"/>
        <pt x="1393" y="784" on="1"/>
        <pt x="1457" y="784" on="0"/>
        <pt x="1550" y="794" on="0"/>
        <pt x="1610" y="832" on="0"/>
        <pt x="1641" y="909" on="0"/>
        <pt x="1644" y="977" on="1"/>
        <pt x="1712" y="977" on="1"/>
        <pt x="1690" y="530" on="1"/>
        <pt x="1622" y="530" on="1"/>
        <pt x="1625" y="598" on="0"/>
        <pt x="1601" y="671" on="0"/>
        <pt x="1544" y="705" on="0"/>
        <pt x="1452" y="711" on="0"/>
        <pt x="1388" y="711" on="1"/>
        <pt x="1353" y="711" on="0"/>
        <pt x="1271" y="707" on="0"/>
        <pt x="1237" y="702" on="1"/>
        <pt x="1212" y="248" on="1"/>
        <pt x="1210" y="192" on="0"/>
        <pt x="1203" y="114" on="0"/>
        <pt x="1198" y="88" on="1"/>
        <pt x="1591" y="76" on="1"/>
        <pt x="1658" y="74" on="0"/>
        <pt x="1768" y="106" on="0"/>
        <pt x="1848" y="182" on="0"/>
        <pt x="1895" y="308" on="0"/>
        <pt x="1900" y="399" on="1"/>
        <pt x="1970" y="399" on="1"/>
        <pt x="1937" y="0" on="1"/>
        <pt x="1032" y="0" on="1"/>
        <pt x="951" y="-17" on="0"/>
        <pt x="809" y="-33" on="0"/>
        <pt x="749" y="-33" on="1"/>
        <pt x="593" y="-33" on="0"/>
        <pt x="345" y="73" on="0"/>
        <pt x="176" y="262" on="0"/>
        <pt x="92" y="521" on="0"/>
        <pt x="100" y="674" on="1"/>
        <pt x="105" y="770" on="0"/>
        <pt x="152" y="961" on="0"/>
        <pt x="237" y="1135" on="0"/>
        <pt x="360" y="1286" on="0"/>
        <pt x="522" y="1398" on="0"/>
        <pt x="722" y="1464" on="0"/>
        <pt x="842" y="1467" on="1"/>
        <pt x="902" y="1468" on="0"/>
        <pt x="1042" y="1446" on="0"/>
        <pt x="1108" y="1434" on="1"/>
        <pt x="1941" y="1434" on="1"/>
        <pt x="1933" y="1075" on="1"/>
        <pt x="1866" y="1075" on="1"/>
        <pt x="1870" y="1166" on="0"/>
        <pt x="1833" y="1279" on="0"/>
        <pt x="1761" y="1342" on="0"/>
        <pt x="1661" y="1363" on="0"/>
        <pt x="1603" y="1362" on="1"/>
      </contour>
      <contour>
        <pt x="815" y="64" on="1"/>
        <pt x="871" y="64" on="0"/>
        <pt x="974" y="79" on="0"/>
        <pt x="1037" y="96" on="1"/>
        <pt x="1102" y="1333" on="1"/>
        <pt x="1045" y="1356" on="0"/>
        <pt x="909" y="1381" on="0"/>
        <pt x="850" y="1381" on="1"/>
        <pt x="741" y="1381" on="0"/>
        <pt x="544" y="1288" on="0"/>
        <pt x="392" y="1114" on="0"/>
        <pt x="298" y="863" on="0"/>
        <pt x="291" y="705" on="1"/>
        <pt x="285" y="559" on="0"/>
        <pt x="348" y="323" on="0"/>
        <pt x="481" y="155" on="0"/>
        <pt x="683" y="64" on="0"/>
      </contour>
    </TTGlyph>
    <TTGlyph name="Oacute" xMin="100" yMin="-33" xMax="1528" yMax="1896">
      <component glyphName="O" x="0" y="0" flags="0x204"/>
      <component glyphName="Acute" x="620" y="0" flags="0x4"/>
    </TTGlyph>
    <TTGlyph name="Ocircumflex" xMin="100" yMin="-33" xMax="1528" yMax="1905">
      <component glyphName="O" x="0" y="0" flags="0x204"/>
      <component glyphName="Circumflex" x="389" y="0" flags="0x4"/>
    </TTGlyph>
    <TTGlyph name="Odieresis" xMin="100" yMin="-33" xMax="1528" yMax="1838">
      <component glyphName="O" x="0" y="0" flags="0x204"/>
      <component glyphName="Dieresis" x="515" y="0" flags="0x4"/>
    </TTGlyph>
    <TTGlyph name="Ograve" xMin="100" yMin="-33" xMax="1528" yMax="1896">
      <component glyphName="O" x="0" y="0" flags="0x204"/>
      <component glyphName="Grave" x="518" y="0" flags="0x4"/>
    </TTGlyph>
    <TTGlyph name="Ohungarumlaut" xMin="101" yMin="-33" xMax="1529" yMax="1971">
      <component glyphName="O" x="1" y="0" flags="0x0"/>
      <component glyphName="hungarumlaut.case" x="464" y="0" flags="0x0"/>
    </TTGlyph>
    <TTGlyph name="Omacron" xMin="100" yMin="-33" xMax="1528" yMax="1846">
      <component glyphName="O" x="0" y="0" flags="0x0"/>
      <component glyphName="macron" x="527" y="410" flags="0x0"/>
    </TTGlyph>
    <TTGlyph name="Omega" xMin="118" yMin="0" xMax="1460" yMax="1467">
      <contour>
        <pt x="870" y="150" on="1"/>
        <pt x="942" y="169" on="0"/>
        <pt x="1086" y="288" on="0"/>
        <pt x="1198" y="466" on="0"/>
        <pt x="1263" y="693" on="0"/>
        <pt x="1263" y="822" on="1"/>
        <pt x="1263" y="940" on="0"/>
        <pt x="1206" y="1145" on="0"/>
        <pt x="1093" y="1297" on="0"/>
        <pt x="926" y="1385" on="0"/>
        <pt x="817" y="1385" on="1"/>
        <pt x="733" y="1385" on="0"/>
        <pt x="593" y="1330" on="0"/>
        <pt x="480" y="1235" on="0"/>
        <pt x="395" y="1106" on="0"/>
        <pt x="337" y="957" on="0"/>
        <pt x="309" y="796" on="0"/>
        <pt x="309" y="716" on="1"/>
        <pt x="309" y="585" on="0"/>
        <pt x="373" y="382" on="0"/>
        <pt x="475" y="238" on="0"/>
        <pt x="602" y="157" on="0"/>
        <pt x="665" y="150" on="1"/>
        <pt x="657" y="0" on="1"/>
        <pt x="121" y="0" on="1"/>
        <pt x="123" y="272" on="1"/>
        <pt x="184" y="272" on="1"/>
        <pt x="184" y="261" on="1"/>
        <pt x="184" y="220" on="0"/>
        <pt x="212" y="170" on="0"/>
        <pt x="272" y="141" on="0"/>
        <pt x="364" y="130" on="0"/>
        <pt x="428" y="129" on="1"/>
        <pt x="572" y="127" on="1"/>
        <pt x="572" y="129" on="1"/>
        <pt x="475" y="161" on="0"/>
        <pt x="309" y="280" on="0"/>
        <pt x="187" y="442" on="0"/>
        <pt x="118" y="640" on="0"/>
        <pt x="118" y="751" on="1"/>
        <pt x="118" y="833" on="0"/>
        <pt x="157" y="1004" on="0"/>
        <pt x="235" y="1163" on="0"/>
        <pt x="353" y="1303" on="0"/>
        <pt x="510" y="1407" on="0"/>
        <pt x="708" y="1467" on="0"/>
        <pt x="827" y="1467" on="1"/>
        <pt x="940" y="1467" on="0"/>
        <pt x="1121" y="1411" on="0"/>
        <pt x="1262" y="1316" on="0"/>
        <pt x="1363" y="1188" on="0"/>
        <pt x="1429" y="1045" on="0"/>
        <pt x="1460" y="895" on="0"/>
        <pt x="1460" y="824" on="1"/>
        <pt x="1460" y="741" on="0"/>
        <pt x="1419" y="587" on="0"/>
        <pt x="1347" y="448" on="0"/>
        <pt x="1250" y="327" on="0"/>
        <pt x="1137" y="227" on="0"/>
        <pt x="1014" y="152" on="0"/>
        <pt x="952" y="129" on="1"/>
        <pt x="952" y="127" on="1"/>
        <pt x="1110" y="129" on="1"/>
        <pt x="1175" y="130" on="0"/>
        <pt x="1271" y="142" on="0"/>
        <pt x="1335" y="173" on="0"/>
        <pt x="1368" y="228" on="0"/>
        <pt x="1370" y="272" on="1"/>
        <pt x="1431" y="272" on="1"/>
        <pt x="1405" y="0" on="1"/>
        <pt x="862" y="0" on="1"/>
      </contour>
    </TTGlyph>
    <TTGlyph name="Oslash" xMin="99" yMin="-158" xMax="1527" yMax="1546">
      <contour>
        <pt x="99" y="670" on="1"/>
        <pt x="99" y="829" on="0"/>
        <pt x="204" y="1117" on="0"/>
        <pt x="398" y="1337" on="0"/>
        <pt x="674" y="1467" on="0"/>
        <pt x="845" y="1467" on="1"/>
        <pt x="950" y="1467" on="0"/>
        <pt x="1120" y="1423" on="0"/>
        <pt x="1192" y="1383" on="1"/>
        <pt x="1295" y="1546" on="1"/>
        <pt x="1398" y="1477" on="1"/>
        <pt x="1292" y="1313" on="1"/>
        <pt x="1353" y="1260" on="0"/>
        <pt x="1441" y="1129" on="0"/>
        <pt x="1499" y="984" on="0"/>
        <pt x="1527" y="831" on="0"/>
        <pt x="1527" y="756" on="1"/>
        <pt x="1527" y="669" on="0"/>
        <pt x="1486" y="484" on="0"/>
        <pt x="1404" y="309" on="0"/>
        <pt x="1280" y="153" on="0"/>
        <pt x="1115" y="36" on="0"/>
        <pt x="906" y="-33" on="0"/>
        <pt x="781" y="-33" on="1"/>
        <pt x="688" y="-33" on="0"/>
        <pt x="533" y="1" on="0"/>
        <pt x="467" y="32" on="1"/>
        <pt x="345" y="-158" on="1"/>
        <pt x="255" y="-102" on="1"/>
        <pt x="374" y="87" on="1"/>
        <pt x="302" y="138" on="0"/>
        <pt x="199" y="272" on="0"/>
        <pt x="131" y="425" on="0"/>
        <pt x="99" y="589" on="0"/>
      </contour>
      <contour>
        <pt x="834" y="1385" on="1"/>
        <pt x="747" y="1385" on="0"/>
        <pt x="599" y="1328" on="0"/>
        <pt x="480" y="1228" on="0"/>
        <pt x="388" y="1095" on="0"/>
        <pt x="327" y="943" on="0"/>
        <pt x="295" y="779" on="0"/>
        <pt x="295" y="700" on="1"/>
        <pt x="295" y="640" on="0"/>
        <pt x="313" y="509" on="0"/>
        <pt x="351" y="381" on="0"/>
        <pt x="410" y="260" on="0"/>
        <pt x="452" y="210" on="1"/>
        <pt x="1122" y="1272" on="1"/>
        <pt x="1065" y="1326" on="0"/>
        <pt x="922" y="1385" on="0"/>
      </contour>
      <contour>
        <pt x="1331" y="723" on="1"/>
        <pt x="1331" y="844" on="0"/>
        <pt x="1267" y="1080" on="0"/>
        <pt x="1204" y="1176" on="1"/>
        <pt x="532" y="133" on="1"/>
        <pt x="584" y="95" on="0"/>
        <pt x="713" y="51" on="0"/>
        <pt x="791" y="51" on="1"/>
        <pt x="879" y="51" on="0"/>
        <pt x="1028" y="107" on="0"/>
        <pt x="1148" y="204" on="0"/>
        <pt x="1239" y="335" on="0"/>
        <pt x="1300" y="484" on="0"/>
        <pt x="1331" y="645" on="0"/>
      </contour>
    </TTGlyph>
    <TTGlyph name="Otilde" xMin="100" yMin="-33" xMax="1528" yMax="1853">
      <component glyphName="O" x="0" y="0" flags="0x204"/>
      <component glyphName="Tilde" x="387" y="0" flags="0x4"/>
    </TTGlyph>
    <TTGlyph name="P" xMin="83" yMin="0" xMax="1198" yMax="1437">
      <contour>
        <pt x="502" y="539" on="1"/>
        <pt x="491" y="539" on="0"/>
        <pt x="443" y="539" on="0"/>
        <pt x="423" y="541" on="1"/>
        <pt x="407" y="244" on="1"/>
        <pt x="404" y="188" on="0"/>
        <pt x="398" y="108" on="0"/>
        <pt x="393" y="82" on="1"/>
        <pt x="581" y="92" on="1"/>
        <pt x="577" y="0" on="1"/>
        <pt x="83" y="0" on="1"/>
        <pt x="88" y="68" on="1"/>
        <pt x="145" y="70" on="0"/>
        <pt x="206" y="108" on="0"/>
        <pt x="233" y="174" on="0"/>
        <pt x="239" y="265" on="0"/>
        <pt x="241" y="319" on="1"/>
        <pt x="288" y="1204" on="1"/>
        <pt x="290" y="1246" on="0"/>
        <pt x="298" y="1321" on="0"/>
        <pt x="303" y="1352" on="1"/>
        <pt x="153" y="1343" on="1"/>
        <pt x="159" y="1434" on="1"/>
        <pt x="268" y="1436" on="0"/>
        <pt x="487" y="1437" on="0"/>
        <pt x="608" y="1437" on="1"/>
        <pt x="904" y="1437" on="0"/>
        <pt x="1198" y="1232" on="0"/>
        <pt x="1198" y="1036" on="1"/>
        <pt x="1197" y="983" on="0"/>
        <pt x="1172" y="868" on="0"/>
        <pt x="1111" y="757" on="0"/>
        <pt x="1008" y="658" on="0"/>
        <pt x="854" y="583" on="0"/>
        <pt x="642" y="539" on="0"/>
      </contour>
      <contour>
        <pt x="427" y="626" on="1"/>
        <pt x="466" y="622" on="0"/>
        <pt x="523" y="620" on="0"/>
        <pt x="561" y="620" on="1"/>
        <pt x="648" y="620" on="0"/>
        <pt x="806" y="672" on="0"/>
        <pt x="926" y="770" on="0"/>
        <pt x="1000" y="911" on="0"/>
        <pt x="1005" y="1001" on="1"/>
        <pt x="1009" y="1098" on="0"/>
        <pt x="954" y="1234" on="0"/>
        <pt x="847" y="1319" on="0"/>
        <pt x="693" y="1357" on="0"/>
        <pt x="600" y="1357" on="1"/>
        <pt x="551" y="1357" on="0"/>
        <pt x="495" y="1325" on="0"/>
        <pt x="466" y="1265" on="0"/>
        <pt x="456" y="1179" on="0"/>
        <pt x="454" y="1124" on="1"/>
      </contour>
    </TTGlyph>
    <TTGlyph name="Pi" xMin="84" yMin="0" xMax="1476" yMax="1434">
      <contour>
        <pt x="1271" y="244" on="1"/>
        <pt x="1268" y="188" on="0"/>
        <pt x="1262" y="108" on="0"/>
        <pt x="1257" y="82" on="1"/>
        <pt x="1404" y="90" on="1"/>
        <pt x="1400" y="0" on="1"/>
        <pt x="948" y="0" on="1"/>
        <pt x="952" y="68" on="1"/>
        <pt x="1009" y="70" on="0"/>
        <pt x="1070" y="108" on="0"/>
        <pt x="1097" y="174" on="0"/>
        <pt x="1103" y="265" on="0"/>
        <pt x="1105" y="319" on="1"/>
        <pt x="1152" y="1204" on="1"/>
        <pt x="1154" y="1246" on="0"/>
        <pt x="1162" y="1321" on="0"/>
        <pt x="1167" y="1352" on="1"/>
        <pt x="592" y="1346" on="1"/>
        <pt x="548" y="1341" on="0"/>
        <pt x="496" y="1309" on="0"/>
        <pt x="468" y="1252" on="0"/>
        <pt x="458" y="1171" on="0"/>
        <pt x="455" y="1119" on="1"/>
        <pt x="408" y="244" on="1"/>
        <pt x="405" y="188" on="0"/>
        <pt x="399" y="108" on="0"/>
        <pt x="394" y="82" on="1"/>
        <pt x="541" y="90" on="1"/>
        <pt x="537" y="0" on="1"/>
        <pt x="84" y="0" on="1"/>
        <pt x="89" y="68" on="1"/>
        <pt x="146" y="70" on="0"/>
        <pt x="206" y="108" on="0"/>
        <pt x="233" y="174" on="0"/>
        <pt x="239" y="265" on="0"/>
        <pt x="242" y="319" on="1"/>
        <pt x="289" y="1204" on="1"/>
        <pt x="291" y="1246" on="0"/>
        <pt x="299" y="1321" on="0"/>
        <pt x="304" y="1352" on="1"/>
        <pt x="156" y="1343" on="1"/>
        <pt x="160" y="1434" on="1"/>
        <pt x="1476" y="1434" on="1"/>
        <pt x="1472" y="1366" on="1"/>
        <pt x="1422" y="1364" on="0"/>
        <pt x="1363" y="1334" on="0"/>
        <pt x="1332" y="1278" on="0"/>
        <pt x="1321" y="1196" on="0"/>
        <pt x="1318" y="1141" on="1"/>
      </contour>
    </TTGlyph>
    <TTGlyph name="Q" xMin="100" yMin="-446" xMax="1597" yMax="1467">
      <contour>
        <pt x="100" y="670" on="1"/>
        <pt x="100" y="829" on="0"/>
        <pt x="205" y="1117" on="0"/>
        <pt x="399" y="1337" on="0"/>
        <pt x="675" y="1467" on="0"/>
        <pt x="846" y="1467" on="1"/>
        <pt x="966" y="1467" on="0"/>
        <pt x="1161" y="1408" on="0"/>
        <pt x="1312" y="1305" on="0"/>
        <pt x="1422" y="1167" on="0"/>
        <pt x="1494" y="1009" on="0"/>
        <pt x="1528" y="839" on="0"/>
        <pt x="1528" y="756" on="1"/>
        <pt x="1528" y="679" on="0"/>
        <pt x="1496" y="517" on="0"/>
        <pt x="1432" y="360" on="0"/>
        <pt x="1336" y="214" on="0"/>
        <pt x="1207" y="94" on="0"/>
        <pt x="1045" y="6" on="0"/>
        <pt x="948" y="-15" on="1"/>
        <pt x="948" y="-17" on="1"/>
        <pt x="991" y="-17" on="0"/>
        <pt x="1066" y="-23" on="0"/>
        <pt x="1140" y="-48" on="0"/>
        <pt x="1221" y="-100" on="0"/>
        <pt x="1270" y="-145" on="1"/>
        <pt x="1341" y="-211" on="0"/>
        <pt x="1438" y="-301" on="0"/>
        <pt x="1507" y="-356" on="0"/>
        <pt x="1559" y="-379" on="0"/>
        <pt x="1585" y="-379" on="1"/>
        <pt x="1597" y="-379" on="1"/>
        <pt x="1597" y="-446" on="1"/>
        <pt x="1532" y="-446" on="1"/>
        <pt x="1476" y="-446" on="0"/>
        <pt x="1394" y="-442" on="0"/>
        <pt x="1320" y="-421" on="0"/>
        <pt x="1246" y="-375" on="0"/>
        <pt x="1198" y="-332" on="1"/>
        <pt x="1147" y="-286" on="0"/>
        <pt x="1068" y="-206" on="0"/>
        <pt x="1003" y="-139" on="0"/>
        <pt x="946" y="-88" on="0"/>
        <pt x="888" y="-52" on="0"/>
        <pt x="823" y="-33" on="0"/>
        <pt x="782" y="-33" on="1"/>
        <pt x="662" y="-33" on="0"/>
        <pt x="467" y="25" on="0"/>
        <pt x="316" y="126" on="0"/>
        <pt x="206" y="262" on="0"/>
        <pt x="134" y="418" on="0"/>
        <pt x="100" y="587" on="0"/>
      </contour>
      <contour>
        <pt x="835" y="1385" on="1"/>
        <pt x="748" y="1385" on="0"/>
        <pt x="601" y="1328" on="0"/>
        <pt x="482" y="1230" on="0"/>
        <pt x="390" y="1097" on="0"/>
        <pt x="328" y="945" on="0"/>
        <pt x="296" y="782" on="0"/>
        <pt x="296" y="703" on="1"/>
        <pt x="296" y="633" on="0"/>
        <pt x="319" y="483" on="0"/>
        <pt x="369" y="338" on="0"/>
        <pt x="447" y="208" on="0"/>
        <pt x="558" y="109" on="0"/>
        <pt x="702" y="51" on="0"/>
        <pt x="792" y="51" on="1"/>
        <pt x="880" y="51" on="0"/>
        <pt x="1029" y="107" on="0"/>
        <pt x="1149" y="204" on="0"/>
        <pt x="1240" y="335" on="0"/>
        <pt x="1301" y="484" on="0"/>
        <pt x="1332" y="645" on="0"/>
        <pt x="1332" y="723" on="1"/>
        <pt x="1332" y="803" on="0"/>
        <pt x="1304" y="964" on="0"/>
        <pt x="1248" y="1111" on="0"/>
        <pt x="1164" y="1238" on="0"/>
        <pt x="1054" y="1332" on="0"/>
        <pt x="917" y="1385" on="0"/>
      </contour>
    </TTGlyph>
    <TTGlyph name="R" xMin="83" yMin="0" xMax="1253" yMax="1438">
      <contour>
        <pt x="507" y="639" on="1"/>
        <pt x="500" y="639" on="0"/>
        <pt x="477" y="640" on="0"/>
        <pt x="453" y="641" on="0"/>
        <pt x="432" y="642" on="0"/>
        <pt x="428" y="642" on="1"/>
        <pt x="407" y="244" on="1"/>
        <pt x="404" y="187" on="0"/>
        <pt x="398" y="108" on="0"/>
        <pt x="393" y="82" on="1"/>
        <pt x="540" y="90" on="1"/>
        <pt x="540" y="0" on="1"/>
        <pt x="83" y="0" on="1"/>
        <pt x="88" y="68" on="1"/>
        <pt x="145" y="70" on="0"/>
        <pt x="206" y="108" on="0"/>
        <pt x="234" y="174" on="0"/>
        <pt x="239" y="265" on="0"/>
        <pt x="241" y="319" on="1"/>
        <pt x="288" y="1204" on="1"/>
        <pt x="290" y="1246" on="0"/>
        <pt x="298" y="1321" on="0"/>
        <pt x="303" y="1352" on="1"/>
        <pt x="153" y="1343" on="1"/>
        <pt x="159" y="1434" on="1"/>
        <pt x="250" y="1435" on="0"/>
        <pt x="423" y="1438" on="0"/>
        <pt x="514" y="1438" on="1"/>
        <pt x="540" y="1438" on="0"/>
        <pt x="593" y="1437" on="0"/>
        <pt x="776" y="1431" on="0"/>
        <pt x="963" y="1383" on="0"/>
        <pt x="1090" y="1291" on="0"/>
        <pt x="1149" y="1165" on="0"/>
        <pt x="1149" y="1089" on="1"/>
        <pt x="1149" y="1029" on="0"/>
        <pt x="1117" y="898" on="0"/>
        <pt x="1030" y="780" on="0"/>
        <pt x="874" y="685" on="0"/>
        <pt x="751" y="660" on="1"/>
        <pt x="751" y="658" on="1"/>
        <pt x="789" y="629" on="0"/>
        <pt x="851" y="541" on="0"/>
        <pt x="886" y="481" on="1"/>
        <pt x="1013" y="262" on="1"/>
        <pt x="1037" y="221" on="0"/>
        <pt x="1082" y="150" on="0"/>
        <pt x="1136" y="98" on="0"/>
        <pt x="1205" y="68" on="0"/>
        <pt x="1253" y="68" on="1"/>
        <pt x="1249" y="0" on="1"/>
        <pt x="999" y="0" on="1"/>
        <pt x="951" y="38" on="0"/>
        <pt x="868" y="158" on="0"/>
        <pt x="829" y="227" on="1"/>
        <pt x="703" y="447" on="1"/>
        <pt x="691" y="469" on="0"/>
        <pt x="663" y="520" on="0"/>
        <pt x="632" y="571" on="0"/>
        <pt x="596" y="620" on="0"/>
        <pt x="576" y="640" on="1"/>
        <pt x="559" y="639" on="0"/>
        <pt x="525" y="639" on="0"/>
      </contour>
      <contour>
        <pt x="432" y="720" on="1"/>
        <pt x="454" y="718" on="0"/>
        <pt x="493" y="715" on="0"/>
        <pt x="514" y="715" on="1"/>
        <pt x="609" y="715" on="0"/>
        <pt x="772" y="750" on="0"/>
        <pt x="891" y="832" on="0"/>
        <pt x="958" y="968" on="0"/>
        <pt x="958" y="1070" on="1"/>
        <pt x="958" y="1212" on="0"/>
        <pt x="789" y="1359" on="0"/>
        <pt x="608" y="1359" on="1"/>
        <pt x="554" y="1359" on="0"/>
        <pt x="494" y="1327" on="0"/>
        <pt x="464" y="1266" on="0"/>
        <pt x="456" y="1179" on="0"/>
        <pt x="454" y="1124" on="1"/>
      </contour>
    </TTGlyph>
    <TTGlyph name="Racute" xMin="83" yMin="0" xMax="1253" yMax="1896">
      <component glyphName="R" x="0" y="0" flags="0x0"/>
      <component glyphName="Acute" x="434" y="0" flags="0x0"/>
    </TTGlyph>
    <TTGlyph name="Rcaron" xMin="84" yMin="0" xMax="1254" yMax="1886">
      <component glyphName="R" x="1" y="0" flags="0x0"/>
      <component glyphName="Caron" x="190" y="0" flags="0x0"/>
    </TTGlyph>
    <TTGlyph name="Rcommaaccent" xMin="84" yMin="-531" xMax="1254" yMax="1438">
      <component glyphName="R" x="1" y="0" flags="0x0"/>
      <component glyphName="commaaccentcomb" x="344" y="0" flags="0x0"/>
    </TTGlyph>
    <TTGlyph name="Ring" xMin="94" yMin="1468" xMax="549" yMax="1913">
      <contour>
        <pt x="319" y="1853" on="1"/>
        <pt x="293" y="1853" on="0"/>
        <pt x="247" y="1828" on="0"/>
        <pt x="219" y="1787" on="0"/>
        <pt x="203" y="1733" on="0"/>
        <pt x="203" y="1700" on="1"/>
        <pt x="203" y="1662" on="0"/>
        <pt x="222" y="1599" on="0"/>
        <pt x="256" y="1554" on="0"/>
        <pt x="303" y="1530" on="0"/>
        <pt x="332" y="1530" on="1"/>
        <pt x="353" y="1531" on="0"/>
        <pt x="392" y="1553" on="0"/>
        <pt x="422" y="1591" on="0"/>
        <pt x="440" y="1643" on="0"/>
        <pt x="440" y="1675" on="1"/>
        <pt x="440" y="1721" on="0"/>
        <pt x="421" y="1788" on="0"/>
        <pt x="388" y="1832" on="0"/>
        <pt x="344" y="1853" on="0"/>
      </contour>
      <contour>
        <pt x="319" y="1913" on="1"/>
        <pt x="361" y="1913" on="0"/>
        <pt x="443" y="1888" on="0"/>
        <pt x="508" y="1836" on="0"/>
        <pt x="549" y="1755" on="0"/>
        <pt x="549" y="1698" on="1"/>
        <pt x="549" y="1644" on="0"/>
        <pt x="511" y="1559" on="0"/>
        <pt x="448" y="1499" on="0"/>
        <pt x="367" y="1468" on="0"/>
        <pt x="324" y="1468" on="1"/>
        <pt x="280" y="1468" on="0"/>
        <pt x="197" y="1493" on="0"/>
        <pt x="133" y="1546" on="0"/>
        <pt x="94" y="1629" on="0"/>
        <pt x="94" y="1688" on="1"/>
        <pt x="94" y="1739" on="0"/>
        <pt x="133" y="1823" on="0"/>
        <pt x="196" y="1881" on="0"/>
        <pt x="277" y="1913" on="0"/>
      </contour>
    </TTGlyph>
    <TTGlyph name="S" xMin="97" yMin="-33" xMax="1057" yMax="1467">
      <contour>
        <pt x="204" y="-16" on="1"/>
        <pt x="97" y="-16" on="1"/>
        <pt x="108" y="420" on="1"/>
        <pt x="188" y="420" on="1"/>
        <pt x="189" y="325" on="0"/>
        <pt x="247" y="187" on="0"/>
        <pt x="349" y="97" on="0"/>
        <pt x="488" y="53" on="0"/>
        <pt x="570" y="53" on="1"/>
        <pt x="632" y="53" on="0"/>
        <pt x="746" y="88" on="0"/>
        <pt x="833" y="157" on="0"/>
        <pt x="884" y="257" on="0"/>
        <pt x="884" y="323" on="1"/>
        <pt x="884" y="395" on="0"/>
        <pt x="821" y="500" on="0"/>
        <pt x="717" y="582" on="0"/>
        <pt x="585" y="648" on="0"/>
        <pt x="447" y="713" on="0"/>
        <pt x="315" y="784" on="0"/>
        <pt x="211" y="877" on="0"/>
        <pt x="148" y="998" on="0"/>
        <pt x="148" y="1080" on="1"/>
        <pt x="148" y="1114" on="0"/>
        <pt x="163" y="1198" on="0"/>
        <pt x="201" y="1284" on="0"/>
        <pt x="265" y="1365" on="0"/>
        <pt x="362" y="1429" on="0"/>
        <pt x="495" y="1467" on="0"/>
        <pt x="583" y="1467" on="1"/>
        <pt x="622" y="1467" on="0"/>
        <pt x="711" y="1457" on="0"/>
        <pt x="802" y="1433" on="0"/>
        <pt x="891" y="1392" on="0"/>
        <pt x="932" y="1362" on="1"/>
        <pt x="929" y="1449" on="1"/>
        <pt x="1033" y="1449" on="1"/>
        <pt x="1011" y="1000" on="1"/>
        <pt x="937" y="1000" on="1"/>
        <pt x="936" y="1074" on="0"/>
        <pt x="895" y="1213" on="0"/>
        <pt x="811" y="1320" on="0"/>
        <pt x="681" y="1385" on="0"/>
        <pt x="591" y="1385" on="1"/>
        <pt x="525" y="1385" on="0"/>
        <pt x="421" y="1343" on="0"/>
        <pt x="349" y="1272" on="0"/>
        <pt x="311" y="1179" on="0"/>
        <pt x="311" y="1128" on="1"/>
        <pt x="311" y="1062" on="0"/>
        <pt x="375" y="965" on="0"/>
        <pt x="480" y="888" on="0"/>
        <pt x="614" y="824" on="0"/>
        <pt x="754" y="759" on="0"/>
        <pt x="888" y="685" on="0"/>
        <pt x="993" y="589" on="0"/>
        <pt x="1057" y="463" on="0"/>
        <pt x="1057" y="378" on="1"/>
        <pt x="1057" y="288" on="0"/>
        <pt x="989" y="137" on="0"/>
        <pt x="861" y="28" on="0"/>
        <pt x="674" y="-33" on="0"/>
        <pt x="556" y="-33" on="1"/>
        <pt x="517" y="-33" on="0"/>
        <pt x="424" y="-25" on="0"/>
        <pt x="329" y="-5" on="0"/>
        <pt x="237" y="29" on="0"/>
        <pt x="198" y="55" on="1"/>
      </contour>
    </TTGlyph>
    <TTGlyph name="Sacute" xMin="97" yMin="-33" xMax="1057" yMax="1896">
      <component glyphName="S" x="0" y="0" flags="0x0"/>
      <component glyphName="Acute" x="391" y="0" flags="0x0"/>
    </TTGlyph>
    <TTGlyph name="Scaron" xMin="97" yMin="-33" xMax="1057" yMax="1886">
      <component glyphName="S" x="0" y="0" flags="0x4"/>
      <component glyphName="Caron" x="138" y="0" flags="0x4"/>
    </TTGlyph>
    <TTGlyph name="Scedilla" xMin="96" yMin="-492" xMax="1060" yMax="1467">
      <contour>
        <pt x="936" y="1000" on="1"/>
        <pt x="935" y="1074" on="0"/>
        <pt x="894" y="1213" on="0"/>
        <pt x="810" y="1320" on="0"/>
        <pt x="680" y="1385" on="0"/>
        <pt x="590" y="1385" on="1"/>
        <pt x="526" y="1385" on="0"/>
        <pt x="425" y="1346" on="0"/>
        <pt x="354" y="1279" on="0"/>
        <pt x="314" y="1191" on="0"/>
        <pt x="311" y="1143" on="1"/>
        <pt x="307" y="1073" on="0"/>
        <pt x="369" y="970" on="0"/>
        <pt x="476" y="890" on="0"/>
        <pt x="613" y="824" on="0"/>
        <pt x="757" y="757" on="0"/>
        <pt x="894" y="680" on="0"/>
        <pt x="999" y="579" on="0"/>
        <pt x="1060" y="445" on="0"/>
        <pt x="1055" y="354" on="1"/>
        <pt x="1051" y="273" on="0"/>
        <pt x="986" y="136" on="0"/>
        <pt x="869" y="34" on="0"/>
        <pt x="703" y="-27" on="0"/>
        <pt x="598" y="-32" on="1"/>
        <pt x="553" y="-158" on="1"/>
        <pt x="582" y="-139" on="0"/>
        <pt x="656" y="-119" on="0"/>
        <pt x="691" y="-119" on="1"/>
        <pt x="725" y="-119" on="0"/>
        <pt x="777" y="-140" on="0"/>
        <pt x="812" y="-176" on="0"/>
        <pt x="828" y="-224" on="0"/>
        <pt x="826" y="-252" on="1"/>
        <pt x="822" y="-293" on="0"/>
        <pt x="779" y="-358" on="0"/>
        <pt x="713" y="-408" on="0"/>
        <pt x="629" y="-445" on="0"/>
        <pt x="541" y="-470" on="0"/>
        <pt x="455" y="-487" on="0"/>
        <pt x="420" y="-492" on="1"/>
        <pt x="412" y="-428" on="1"/>
        <pt x="464" y="-419" on="0"/>
        <pt x="559" y="-390" on="0"/>
        <pt x="631" y="-351" on="0"/>
        <pt x="674" y="-302" on="0"/>
        <pt x="674" y="-272" on="1"/>
        <pt x="674" y="-241" on="0"/>
        <pt x="640" y="-211" on="0"/>
        <pt x="589" y="-207" on="0"/>
        <pt x="532" y="-225" on="0"/>
        <pt x="510" y="-240" on="1"/>
        <pt x="441" y="-205" on="1"/>
        <pt x="498" y="-31" on="1"/>
        <pt x="461" y="-29" on="0"/>
        <pt x="382" y="-17" on="0"/>
        <pt x="303" y="3" on="0"/>
        <pt x="229" y="34" on="0"/>
        <pt x="197" y="55" on="1"/>
        <pt x="203" y="-16" on="1"/>
        <pt x="96" y="-16" on="1"/>
        <pt x="107" y="420" on="1"/>
        <pt x="187" y="420" on="1"/>
        <pt x="188" y="325" on="0"/>
        <pt x="246" y="187" on="0"/>
        <pt x="348" y="97" on="0"/>
        <pt x="488" y="53" on="0"/>
        <pt x="569" y="53" on="1"/>
        <pt x="629" y="53" on="0"/>
        <pt x="740" y="86" on="0"/>
        <pt x="826" y="150" on="0"/>
        <pt x="880" y="245" on="0"/>
        <pt x="883" y="307" on="1"/>
        <pt x="887" y="383" on="0"/>
        <pt x="825" y="494" on="0"/>
        <pt x="720" y="580" on="0"/>
        <pt x="584" y="648" on="0"/>
        <pt x="442" y="715" on="0"/>
        <pt x="306" y="789" on="0"/>
        <pt x="202" y="886" on="0"/>
        <pt x="143" y="1015" on="0"/>
        <pt x="148" y="1104" on="1"/>
        <pt x="150" y="1139" on="0"/>
        <pt x="170" y="1220" on="0"/>
        <pt x="211" y="1300" on="0"/>
        <pt x="276" y="1375" on="0"/>
        <pt x="371" y="1433" on="0"/>
        <pt x="499" y="1467" on="0"/>
        <pt x="582" y="1467" on="1"/>
        <pt x="621" y="1467" on="0"/>
        <pt x="710" y="1457" on="0"/>
        <pt x="801" y="1433" on="0"/>
        <pt x="891" y="1392" on="0"/>
        <pt x="931" y="1362" on="1"/>
        <pt x="928" y="1449" on="1"/>
        <pt x="1032" y="1449" on="1"/>
        <pt x="1010" y="1000" on="1"/>
      </contour>
    </TTGlyph>
    <TTGlyph name="Scommaaccent" xMin="98" yMin="-531" xMax="1058" yMax="1467">
      <component glyphName="S" x="1" y="0" flags="0x0"/>
      <component glyphName="commaaccentcomb" x="342" y="0" flags="0x0"/>
    </TTGlyph>
    <TTGlyph name="T" xMin="73" yMin="0" xMax="1294" yMax="1434">
      <contour>
        <pt x="1206" y="1001" on="1"/>
        <pt x="1206" y="1014" on="0"/>
        <pt x="1207" y="1039" on="0"/>
        <pt x="1207" y="1051" on="1"/>
        <pt x="1207" y="1130" on="0"/>
        <pt x="1185" y="1246" on="0"/>
        <pt x="1128" y="1323" on="0"/>
        <pt x="1032" y="1360" on="0"/>
        <pt x="958" y="1360" on="1"/>
        <pt x="783" y="1358" on="1"/>
        <pt x="716" y="244" on="1"/>
        <pt x="712" y="187" on="0"/>
        <pt x="707" y="108" on="0"/>
        <pt x="702" y="82" on="1"/>
        <pt x="872" y="90" on="1"/>
        <pt x="868" y="0" on="1"/>
        <pt x="395" y="0" on="1"/>
        <pt x="399" y="68" on="1"/>
        <pt x="448" y="70" on="0"/>
        <pt x="506" y="110" on="0"/>
        <pt x="536" y="177" on="0"/>
        <pt x="547" y="267" on="0"/>
        <pt x="550" y="319" on="1"/>
        <pt x="613" y="1357" on="1"/>
        <pt x="403" y="1356" on="1"/>
        <pt x="338" y="1356" on="0"/>
        <pt x="246" y="1313" on="0"/>
        <pt x="185" y="1226" on="0"/>
        <pt x="153" y="1092" on="0"/>
        <pt x="149" y="1001" on="1"/>
        <pt x="73" y="1001" on="1"/>
        <pt x="108" y="1434" on="1"/>
        <pt x="1294" y="1434" on="1"/>
        <pt x="1284" y="1001" on="1"/>
      </contour>
    </TTGlyph>
    <TTGlyph name="Tcaron" xMin="74" yMin="0" xMax="1295" yMax="1886">
      <component glyphName="T" x="1" y="0" flags="0x0"/>
      <component glyphName="Caron" x="230" y="0" flags="0x0"/>
    </TTGlyph>
    <TTGlyph name="Thorn" xMin="84" yMin="0" xMax="1145" yMax="1434">
      <contour>
        <pt x="289" y="1204" on="1"/>
        <pt x="291" y="1246" on="0"/>
        <pt x="299" y="1321" on="0"/>
        <pt x="304" y="1352" on="1"/>
        <pt x="156" y="1343" on="1"/>
        <pt x="160" y="1434" on="1"/>
        <pt x="613" y="1434" on="1"/>
        <pt x="609" y="1366" on="1"/>
        <pt x="561" y="1364" on="0"/>
        <pt x="504" y="1338" on="0"/>
        <pt x="472" y="1292" on="0"/>
        <pt x="460" y="1225" on="0"/>
        <pt x="457" y="1182" on="1"/>
        <pt x="484" y="1183" on="0"/>
        <pt x="538" y="1184" on="0"/>
        <pt x="564" y="1184" on="1"/>
        <pt x="712" y="1184" on="0"/>
        <pt x="931" y="1132" on="0"/>
        <pt x="1075" y="1033" on="0"/>
        <pt x="1145" y="892" on="0"/>
        <pt x="1145" y="803" on="1"/>
        <pt x="1145" y="755" on="0"/>
        <pt x="1119" y="647" on="0"/>
        <pt x="1057" y="541" on="0"/>
        <pt x="954" y="444" on="0"/>
        <pt x="798" y="370" on="0"/>
        <pt x="585" y="326" on="0"/>
        <pt x="445" y="326" on="1"/>
        <pt x="412" y="326" on="1"/>
        <pt x="407" y="219" on="1"/>
        <pt x="406" y="191" on="0"/>
        <pt x="403" y="151" on="0"/>
        <pt x="400" y="120" on="0"/>
        <pt x="397" y="95" on="0"/>
        <pt x="394" y="82" on="1"/>
        <pt x="541" y="90" on="1"/>
        <pt x="537" y="0" on="1"/>
        <pt x="84" y="0" on="1"/>
        <pt x="89" y="68" on="1"/>
        <pt x="146" y="70" on="0"/>
        <pt x="207" y="108" on="0"/>
        <pt x="234" y="174" on="0"/>
        <pt x="240" y="265" on="0"/>
        <pt x="242" y="319" on="1"/>
      </contour>
      <contour>
        <pt x="547" y="1104" on="1"/>
        <pt x="539" y="1104" on="0"/>
        <pt x="488" y="1104" on="0"/>
        <pt x="453" y="1102" on="1"/>
        <pt x="416" y="406" on="1"/>
        <pt x="439" y="404" on="0"/>
        <pt x="482" y="406" on="0"/>
        <pt x="508" y="406" on="1"/>
        <pt x="605" y="407" on="0"/>
        <pt x="764" y="458" on="0"/>
        <pt x="880" y="553" on="0"/>
        <pt x="948" y="686" on="0"/>
        <pt x="953" y="768" on="1"/>
        <pt x="958" y="857" on="0"/>
        <pt x="903" y="985" on="0"/>
        <pt x="795" y="1066" on="0"/>
        <pt x="641" y="1104" on="0"/>
      </contour>
    </TTGlyph>
    <TTGlyph name="Tilde" xMin="92" yMin="1602" xMax="885" yMax="1853">
      <contour>
        <pt x="317" y="1737" on="1"/>
        <pt x="272" y="1737" on="0"/>
        <pt x="188" y="1677" on="0"/>
        <pt x="150" y="1620" on="1"/>
        <pt x="92" y="1655" on="1"/>
        <pt x="113" y="1701" on="0"/>
        <pt x="171" y="1775" on="0"/>
        <pt x="237" y="1826" on="0"/>
        <pt x="308" y="1853" on="0"/>
        <pt x="341" y="1853" on="1"/>
        <pt x="400" y="1853" on="0"/>
        <pt x="481" y="1811" on="0"/>
        <pt x="548" y="1760" on="0"/>
        <pt x="612" y="1718" on="0"/>
        <pt x="653" y="1718" on="1"/>
        <pt x="710" y="1718" on="0"/>
        <pt x="797" y="1785" on="0"/>
        <pt x="831" y="1839" on="1"/>
        <pt x="885" y="1810" on="1"/>
        <pt x="860" y="1747" on="0"/>
        <pt x="801" y="1666" on="0"/>
        <pt x="737" y="1620" on="0"/>
        <pt x="669" y="1602" on="0"/>
        <pt x="635" y="1602" on="1"/>
        <pt x="582" y="1602" on="0"/>
        <pt x="502" y="1644" on="0"/>
        <pt x="431" y="1695" on="0"/>
        <pt x="360" y="1737" on="0"/>
      </contour>
    </TTGlyph>
    <TTGlyph name="U" xMin="110" yMin="-33" xMax="1521" yMax="1434">
      <contour>
        <pt x="1335" y="637" on="1"/>
        <pt x="1327" y="503" on="0"/>
        <pt x="1257" y="261" on="0"/>
        <pt x="1118" y="76" on="0"/>
        <pt x="902" y="-33" on="0"/>
        <pt x="749" y="-33" on="1"/>
        <pt x="599" y="-33" on="0"/>
        <pt x="393" y="38" on="0"/>
        <pt x="266" y="187" on="0"/>
        <pt x="210" y="415" on="0"/>
        <pt x="210" y="573" on="1"/>
        <pt x="210" y="652" on="0"/>
        <pt x="241" y="1186" on="1"/>
        <pt x="242" y="1213" on="0"/>
        <pt x="245" y="1256" on="0"/>
        <pt x="249" y="1295" on="0"/>
        <pt x="254" y="1332" on="0"/>
        <pt x="257" y="1352" on="1"/>
        <pt x="110" y="1346" on="1"/>
        <pt x="114" y="1434" on="1"/>
        <pt x="569" y="1434" on="1"/>
        <pt x="565" y="1366" on="1"/>
        <pt x="513" y="1366" on="0"/>
        <pt x="453" y="1331" on="0"/>
        <pt x="423" y="1281" on="0"/>
        <pt x="414" y="1225" on="0"/>
        <pt x="413" y="1204" on="1"/>
        <pt x="383" y="636" on="0"/>
        <pt x="383" y="587" on="1"/>
        <pt x="383" y="487" on="0"/>
        <pt x="415" y="305" on="0"/>
        <pt x="503" y="166" on="0"/>
        <pt x="657" y="84" on="0"/>
        <pt x="780" y="84" on="1"/>
        <pt x="889" y="84" on="0"/>
        <pt x="1052" y="164" on="0"/>
        <pt x="1162" y="307" on="0"/>
        <pt x="1222" y="507" on="0"/>
        <pt x="1230" y="627" on="1"/>
        <pt x="1267" y="1204" on="1"/>
        <pt x="1269" y="1246" on="0"/>
        <pt x="1276" y="1321" on="0"/>
        <pt x="1281" y="1352" on="1"/>
        <pt x="1134" y="1343" on="1"/>
        <pt x="1138" y="1434" on="1"/>
        <pt x="1521" y="1434" on="1"/>
        <pt x="1519" y="1366" on="1"/>
        <pt x="1460" y="1364" on="0"/>
        <pt x="1399" y="1326" on="0"/>
        <pt x="1371" y="1259" on="0"/>
        <pt x="1366" y="1168" on="0"/>
        <pt x="1363" y="1114" on="1"/>
      </contour>
    </TTGlyph>
    <TTGlyph name="Uacute" xMin="111" yMin="-33" xMax="1522" yMax="1896">
      <component glyphName="U" x="1" y="0" flags="0x4"/>
      <component glyphName="Acute" x="657" y="0" flags="0x4"/>
    </TTGlyph>
    <TTGlyph name="Ucircumflex" xMin="111" yMin="-33" xMax="1522" yMax="1905">
      <component glyphName="U" x="1" y="0" flags="0x4"/>
      <component glyphName="Circumflex" x="383" y="0" flags="0x4"/>
    </TTGlyph>
    <TTGlyph name="Udieresis" xMin="111" yMin="-33" xMax="1522" yMax="1838">
      <component glyphName="U" x="1" y="0" flags="0x4"/>
      <component glyphName="Dieresis" x="513" y="0" flags="0x4"/>
    </TTGlyph>
    <TTGlyph name="Ugrave" xMin="111" yMin="-33" xMax="1522" yMax="1896">
      <component glyphName="U" x="1" y="0" flags="0x4"/>
      <component glyphName="Grave" x="430" y="0" flags="0x4"/>
    </TTGlyph>
    <TTGlyph name="Uhungarumlaut" xMin="111" yMin="-33" xMax="1522" yMax="1971">
      <component glyphName="U" x="1" y="0" flags="0x0"/>
      <component glyphName="hungarumlaut.case" x="502" y="0" flags="0x0"/>
    </TTGlyph>
    <TTGlyph name="Umacron" xMin="110" yMin="-33" xMax="1521" yMax="1846">
      <component glyphName="U" x="0" y="0" flags="0x0"/>
      <component glyphName="macron" x="517" y="410" flags="0x0"/>
    </TTGlyph>
    <TTGlyph name="Uogonek" xMin="111" yMin="-571" xMax="1522" yMax="1434">
      <contour>
        <pt x="1520" y="1366" on="1"/>
        <pt x="1461" y="1364" on="0"/>
        <pt x="1400" y="1325" on="0"/>
        <pt x="1373" y="1259" on="0"/>
        <pt x="1367" y="1169" on="0"/>
        <pt x="1364" y="1114" on="1"/>
        <pt x="1336" y="637" on="1"/>
        <pt x="1330" y="531" on="0"/>
        <pt x="1283" y="333" on="0"/>
        <pt x="1195" y="166" on="0"/>
        <pt x="1063" y="39" on="0"/>
        <pt x="970" y="4" on="1"/>
        <pt x="913" y="-20" on="0"/>
        <pt x="808" y="-91" on="0"/>
        <pt x="728" y="-178" on="0"/>
        <pt x="680" y="-277" on="0"/>
        <pt x="680" y="-330" on="1"/>
        <pt x="680" y="-395" on="0"/>
        <pt x="743" y="-473" on="0"/>
        <pt x="803" y="-473" on="1"/>
        <pt x="840" y="-473" on="0"/>
        <pt x="921" y="-442" on="0"/>
        <pt x="959" y="-407" on="1"/>
        <pt x="987" y="-442" on="1"/>
        <pt x="966" y="-466" on="0"/>
        <pt x="909" y="-512" on="0"/>
        <pt x="844" y="-549" on="0"/>
        <pt x="773" y="-571" on="0"/>
        <pt x="736" y="-571" on="1"/>
        <pt x="691" y="-571" on="0"/>
        <pt x="620" y="-540" on="0"/>
        <pt x="572" y="-485" on="0"/>
        <pt x="549" y="-408" on="0"/>
        <pt x="551" y="-362" on="1"/>
        <pt x="554" y="-312" on="0"/>
        <pt x="591" y="-220" on="0"/>
        <pt x="652" y="-136" on="0"/>
        <pt x="735" y="-63" on="0"/>
        <pt x="783" y="-32" on="1"/>
        <pt x="750" y="-33" on="1"/>
        <pt x="586" y="-33" on="0"/>
        <pt x="370" y="52" on="0"/>
        <pt x="247" y="231" on="0"/>
        <pt x="205" y="506" on="0"/>
        <pt x="215" y="696" on="1"/>
        <pt x="242" y="1186" on="1"/>
        <pt x="243" y="1213" on="0"/>
        <pt x="247" y="1256" on="0"/>
        <pt x="250" y="1295" on="0"/>
        <pt x="255" y="1332" on="0"/>
        <pt x="258" y="1352" on="1"/>
        <pt x="111" y="1346" on="1"/>
        <pt x="115" y="1434" on="1"/>
        <pt x="570" y="1434" on="1"/>
        <pt x="566" y="1366" on="1"/>
        <pt x="513" y="1366" on="0"/>
        <pt x="454" y="1331" on="0"/>
        <pt x="424" y="1281" on="0"/>
        <pt x="415" y="1225" on="0"/>
        <pt x="414" y="1204" on="1"/>
        <pt x="387" y="686" on="1"/>
        <pt x="383" y="610" on="0"/>
        <pt x="387" y="461" on="0"/>
        <pt x="414" y="327" on="0"/>
        <pt x="467" y="214" on="0"/>
        <pt x="557" y="131" on="0"/>
        <pt x="689" y="84" on="0"/>
        <pt x="781" y="84" on="1"/>
        <pt x="891" y="84" on="0"/>
        <pt x="1053" y="164" on="0"/>
        <pt x="1163" y="307" on="0"/>
        <pt x="1223" y="507" on="0"/>
        <pt x="1231" y="627" on="1"/>
        <pt x="1268" y="1204" on="1"/>
        <pt x="1271" y="1246" on="0"/>
        <pt x="1277" y="1321" on="0"/>
        <pt x="1282" y="1352" on="1"/>
        <pt x="1135" y="1343" on="1"/>
        <pt x="1139" y="1434" on="1"/>
        <pt x="1522" y="1434" on="1"/>
      </contour>
    </TTGlyph>
    <TTGlyph name="Uring" xMin="111" yMin="-33" xMax="1522" yMax="1969">
      <component glyphName="U" x="1" y="0" flags="0x0"/>
      <component glyphName="ring" x="603" y="410" flags="0x0"/>
    </TTGlyph>
    <TTGlyph name="V" xMin="48" yMin="-23" xMax="1426" yMax="1434">
      <contour>
        <pt x="52" y="1434" on="1"/>
        <pt x="519" y="1434" on="1"/>
        <pt x="515" y="1364" on="1"/>
        <pt x="442" y="1359" on="0"/>
        <pt x="375" y="1301" on="0"/>
        <pt x="375" y="1249" on="1"/>
        <pt x="375" y="1226" on="0"/>
        <pt x="387" y="1174" on="0"/>
        <pt x="398" y="1143" on="1"/>
        <pt x="566" y="666" on="1"/>
        <pt x="588" y="608" on="0"/>
        <pt x="630" y="496" on="0"/>
        <pt x="668" y="394" on="0"/>
        <pt x="700" y="304" on="0"/>
        <pt x="711" y="270" on="1"/>
        <pt x="716" y="270" on="1"/>
        <pt x="729" y="306" on="0"/>
        <pt x="755" y="373" on="0"/>
        <pt x="784" y="442" on="0"/>
        <pt x="816" y="518" on="0"/>
        <pt x="834" y="563" on="1"/>
        <pt x="1096" y="1200" on="1"/>
        <pt x="1117" y="1254" on="0"/>
        <pt x="1150" y="1327" on="0"/>
        <pt x="1164" y="1352" on="1"/>
        <pt x="1006" y="1343" on="1"/>
        <pt x="1010" y="1434" on="1"/>
        <pt x="1426" y="1434" on="1"/>
        <pt x="1422" y="1366" on="1"/>
        <pt x="1377" y="1364" on="0"/>
        <pt x="1309" y="1342" on="0"/>
        <pt x="1255" y="1295" on="0"/>
        <pt x="1209" y="1220" on="0"/>
        <pt x="1187" y="1165" on="1"/>
        <pt x="691" y="-23" on="1"/>
        <pt x="638" y="-23" on="1"/>
        <pt x="236" y="1069" on="1"/>
        <pt x="216" y="1121" on="0"/>
        <pt x="189" y="1204" on="0"/>
        <pt x="172" y="1271" on="0"/>
        <pt x="164" y="1325" on="0"/>
        <pt x="163" y="1348" on="1"/>
        <pt x="48" y="1343" on="1"/>
      </contour>
    </TTGlyph>
    <TTGlyph name="W" xMin="57" yMin="-22" xMax="2101" yMax="1438">
      <contour>
        <pt x="61" y="1434" on="1"/>
        <pt x="552" y="1434" on="1"/>
        <pt x="548" y="1366" on="1"/>
        <pt x="504" y="1364" on="0"/>
        <pt x="443" y="1350" on="0"/>
        <pt x="405" y="1323" on="0"/>
        <pt x="388" y="1281" on="0"/>
        <pt x="388" y="1251" on="1"/>
        <pt x="388" y="1229" on="0"/>
        <pt x="396" y="1176" on="0"/>
        <pt x="404" y="1143" on="1"/>
        <pt x="534" y="666" on="1"/>
        <pt x="546" y="620" on="0"/>
        <pt x="570" y="534" on="0"/>
        <pt x="595" y="448" on="0"/>
        <pt x="621" y="360" on="0"/>
        <pt x="634" y="312" on="1"/>
        <pt x="638" y="312" on="1"/>
        <pt x="650" y="346" on="0"/>
        <pt x="680" y="427" on="0"/>
        <pt x="710" y="505" on="0"/>
        <pt x="735" y="572" on="0"/>
        <pt x="743" y="592" on="1"/>
        <pt x="1054" y="1438" on="1"/>
        <pt x="1111" y="1438" on="1"/>
        <pt x="1324" y="666" on="1"/>
        <pt x="1349" y="572" on="0"/>
        <pt x="1401" y="390" on="0"/>
        <pt x="1426" y="293" on="1"/>
        <pt x="1430" y="293" on="1"/>
        <pt x="1453" y="353" on="0"/>
        <pt x="1506" y="489" on="0"/>
        <pt x="1533" y="561" on="1"/>
        <pt x="1775" y="1200" on="1"/>
        <pt x="1788" y="1234" on="0"/>
        <pt x="1823" y="1315" on="0"/>
        <pt x="1845" y="1350" on="1"/>
        <pt x="1681" y="1343" on="1"/>
        <pt x="1685" y="1434" on="1"/>
        <pt x="2101" y="1434" on="1"/>
        <pt x="2097" y="1366" on="1"/>
        <pt x="2044" y="1360" on="0"/>
        <pt x="1974" y="1334" on="0"/>
        <pt x="1918" y="1271" on="0"/>
        <pt x="1865" y="1157" on="0"/>
        <pt x="1828" y="1063" on="1"/>
        <pt x="1402" y="-22" on="1"/>
        <pt x="1349" y="-22" on="1"/>
        <pt x="1116" y="784" on="1"/>
        <pt x="1101" y="837" on="0"/>
        <pt x="1076" y="922" on="0"/>
        <pt x="1057" y="994" on="0"/>
        <pt x="1041" y="1057" on="0"/>
        <pt x="1034" y="1087" on="1"/>
        <pt x="1027" y="1087" on="1"/>
        <pt x="606" y="-22" on="1"/>
        <pt x="552" y="-22" on="1"/>
        <pt x="244" y="1069" on="1"/>
        <pt x="229" y="1123" on="0"/>
        <pt x="205" y="1206" on="0"/>
        <pt x="187" y="1272" on="0"/>
        <pt x="176" y="1325" on="0"/>
        <pt x="173" y="1348" on="1"/>
        <pt x="57" y="1343" on="1"/>
      </contour>
    </TTGlyph>
    <TTGlyph name="X" xMin="-1" yMin="0" xMax="1324" yMax="1434">
      <contour>
        <pt x="64" y="1434" on="1"/>
        <pt x="597" y="1434" on="1"/>
        <pt x="597" y="1366" on="1"/>
        <pt x="503" y="1362" on="1"/>
        <pt x="446" y="1360" on="0"/>
        <pt x="403" y="1326" on="0"/>
        <pt x="403" y="1302" on="1"/>
        <pt x="403" y="1277" on="0"/>
        <pt x="446" y="1188" on="0"/>
        <pt x="624" y="916" on="0"/>
        <pt x="683" y="829" on="1"/>
        <pt x="896" y="1114" on="1"/>
        <pt x="923" y="1151" on="0"/>
        <pt x="978" y="1223" on="0"/>
        <pt x="1027" y="1286" on="0"/>
        <pt x="1071" y="1337" on="0"/>
        <pt x="1088" y="1352" on="1"/>
        <pt x="916" y="1343" on="1"/>
        <pt x="920" y="1434" on="1"/>
        <pt x="1324" y="1434" on="1"/>
        <pt x="1320" y="1366" on="1"/>
        <pt x="1271" y="1359" on="0"/>
        <pt x="1180" y="1303" on="0"/>
        <pt x="1096" y="1223" on="0"/>
        <pt x="1019" y="1127" on="0"/>
        <pt x="984" y="1081" on="1"/>
        <pt x="735" y="753" on="1"/>
        <pt x="1201" y="86" on="1"/>
        <pt x="1320" y="90" on="1"/>
        <pt x="1316" y="0" on="1"/>
        <pt x="812" y="0" on="1"/>
        <pt x="816" y="68" on="1"/>
        <pt x="828" y="68" on="1"/>
        <pt x="888" y="68" on="0"/>
        <pt x="937" y="108" on="0"/>
        <pt x="937" y="137" on="1"/>
        <pt x="937" y="164" on="0"/>
        <pt x="888" y="253" on="0"/>
        <pt x="633" y="616" on="1"/>
        <pt x="413" y="313" on="1"/>
        <pt x="371" y="258" on="0"/>
        <pt x="288" y="140" on="0"/>
        <pt x="234" y="80" on="1"/>
        <pt x="404" y="90" on="1"/>
        <pt x="400" y="0" on="1"/>
        <pt x="-1" y="0" on="1"/>
        <pt x="3" y="68" on="1"/>
        <pt x="52" y="78" on="0"/>
        <pt x="128" y="119" on="0"/>
        <pt x="194" y="180" on="0"/>
        <pt x="258" y="262" on="0"/>
        <pt x="296" y="313" on="1"/>
        <pt x="580" y="693" on="1"/>
        <pt x="495" y="817" on="0"/>
        <pt x="291" y="1122" on="0"/>
        <pt x="238" y="1208" on="0"/>
        <pt x="205" y="1271" on="0"/>
        <pt x="185" y="1320" on="0"/>
        <pt x="175" y="1348" on="1"/>
        <pt x="60" y="1343" on="1"/>
      </contour>
    </TTGlyph>
    <TTGlyph name="Y" xMin="42" yMin="0" xMax="1369" yMax="1434">
      <contour>
        <pt x="591" y="553" on="1"/>
        <pt x="267" y="1116" on="1"/>
        <pt x="218" y="1198" on="0"/>
        <pt x="174" y="1309" on="0"/>
        <pt x="169" y="1348" on="1"/>
        <pt x="42" y="1343" on="1"/>
        <pt x="46" y="1434" on="1"/>
        <pt x="566" y="1434" on="1"/>
        <pt x="562" y="1366" on="1"/>
        <pt x="491" y="1366" on="0"/>
        <pt x="416" y="1333" on="0"/>
        <pt x="392" y="1274" on="0"/>
        <pt x="414" y="1192" on="0"/>
        <pt x="441" y="1143" on="1"/>
        <pt x="538" y="974" on="0"/>
        <pt x="667" y="759" on="0"/>
        <pt x="708" y="698" on="1"/>
        <pt x="712" y="698" on="1"/>
        <pt x="752" y="768" on="0"/>
        <pt x="825" y="894" on="0"/>
        <pt x="1002" y="1194" on="1"/>
        <pt x="1011" y="1209" on="0"/>
        <pt x="1035" y="1249" on="0"/>
        <pt x="1063" y="1292" on="0"/>
        <pt x="1094" y="1334" on="0"/>
        <pt x="1109" y="1350" on="1"/>
        <pt x="947" y="1343" on="1"/>
        <pt x="951" y="1434" on="1"/>
        <pt x="1369" y="1434" on="1"/>
        <pt x="1365" y="1366" on="1"/>
        <pt x="1314" y="1363" on="0"/>
        <pt x="1233" y="1329" on="0"/>
        <pt x="1159" y="1264" on="0"/>
        <pt x="1089" y="1167" on="0"/>
        <pt x="1050" y="1102" on="1"/>
        <pt x="971" y="969" on="0"/>
        <pt x="831" y="727" on="0"/>
        <pt x="765" y="614" on="1"/>
        <pt x="743" y="244" on="0"/>
        <pt x="744" y="244" on="1"/>
        <pt x="742" y="188" on="0"/>
        <pt x="735" y="108" on="0"/>
        <pt x="730" y="82" on="1"/>
        <pt x="900" y="90" on="1"/>
        <pt x="896" y="0" on="1"/>
        <pt x="423" y="0" on="1"/>
        <pt x="427" y="68" on="1"/>
        <pt x="485" y="70" on="0"/>
        <pt x="545" y="110" on="0"/>
        <pt x="572" y="177" on="0"/>
        <pt x="576" y="267" on="0"/>
        <pt x="579" y="319" on="1"/>
      </contour>
    </TTGlyph>
    <TTGlyph name="Yacute" xMin="42" yMin="0" xMax="1369" yMax="1896">
      <component glyphName="Y" x="0" y="0" flags="0x4"/>
      <component glyphName="Acute" x="574" y="0" flags="0x4"/>
    </TTGlyph>
    <TTGlyph name="Ydieresis" xMin="42" yMin="0" xMax="1369" yMax="1838">
      <component glyphName="Y" x="0" y="0" flags="0x4"/>
      <component glyphName="Dieresis" x="391" y="0" flags="0x4"/>
    </TTGlyph>
    <TTGlyph name="Z" xMin="58" yMin="0" xMax="1187" yMax="1434">
      <contour>
        <pt x="65" y="94" on="1"/>
        <pt x="126" y="175" on="0"/>
        <pt x="284" y="381" on="0"/>
        <pt x="480" y="645" on="0"/>
        <pt x="715" y="972" on="0"/>
        <pt x="853" y="1174" on="1"/>
        <pt x="885" y="1220" on="0"/>
        <pt x="952" y="1312" on="0"/>
        <pt x="994" y="1358" on="1"/>
        <pt x="466" y="1350" on="1"/>
        <pt x="405" y="1347" on="0"/>
        <pt x="312" y="1306" on="0"/>
        <pt x="247" y="1223" on="0"/>
        <pt x="210" y="1097" on="0"/>
        <pt x="206" y="1010" on="1"/>
        <pt x="136" y="1010" on="1"/>
        <pt x="171" y="1434" on="1"/>
        <pt x="1187" y="1434" on="1"/>
        <pt x="1183" y="1362" on="1"/>
        <pt x="380" y="246" on="1"/>
        <pt x="356" y="213" on="0"/>
        <pt x="317" y="163" on="0"/>
        <pt x="282" y="123" on="0"/>
        <pt x="249" y="91" on="0"/>
        <pt x="232" y="76" on="1"/>
        <pt x="738" y="84" on="1"/>
        <pt x="806" y="85" on="0"/>
        <pt x="924" y="126" on="0"/>
        <pt x="1014" y="208" on="0"/>
        <pt x="1069" y="334" on="0"/>
        <pt x="1074" y="420" on="1"/>
        <pt x="1144" y="420" on="1"/>
        <pt x="1109" y="0" on="1"/>
        <pt x="58" y="0" on="1"/>
      </contour>
    </TTGlyph>
    <TTGlyph name="Zacute" xMin="58" yMin="0" xMax="1187" yMax="1896">
      <component glyphName="Z" x="0" y="0" flags="0x0"/>
      <component glyphName="Acute" x="459" y="0" flags="0x0"/>
    </TTGlyph>
    <TTGlyph name="Zcaron" xMin="58" yMin="0" xMax="1187" yMax="1886">
      <component glyphName="Z" x="0" y="0" flags="0x204"/>
      <component glyphName="Caron" x="183" y="0" flags="0x4"/>
    </TTGlyph>
    <TTGlyph name="Zdotaccent" xMin="58" yMin="0" xMax="1187" yMax="1894">
      <component glyphName="Z" x="0" y="0" flags="0x0"/>
      <component glyphName="period" x="482" y="1687" scalex="0.923095703125" scaley="0.922485351562" flags="0x0"/>
    </TTGlyph>
    <TTGlyph name="a" xMin="75" yMin="-23" xMax="1122" yMax="1047">
      <contour>
        <pt x="948" y="1012" on="1"/>
        <pt x="931" y="886" on="0"/>
        <pt x="899" y="633" on="0"/>
        <pt x="873" y="412" on="0"/>
        <pt x="857" y="238" on="0"/>
        <pt x="857" y="192" on="1"/>
        <pt x="857" y="172" on="0"/>
        <pt x="859" y="132" on="0"/>
        <pt x="871" y="100" on="0"/>
        <pt x="894" y="80" on="0"/>
        <pt x="915" y="80" on="1"/>
        <pt x="932" y="80" on="0"/>
        <pt x="971" y="101" on="0"/>
        <pt x="1011" y="148" on="0"/>
        <pt x="1049" y="224" on="0"/>
        <pt x="1064" y="278" on="1"/>
        <pt x="1122" y="266" on="1"/>
        <pt x="1115" y="230" on="0"/>
        <pt x="1076" y="131" on="0"/>
        <pt x="1010" y="40" on="0"/>
        <pt x="916" y="-23" on="0"/>
        <pt x="855" y="-23" on="1"/>
        <pt x="814" y="-23" on="0"/>
        <pt x="756" y="4" on="0"/>
        <pt x="720" y="52" on="0"/>
        <pt x="704" y="120" on="0"/>
        <pt x="704" y="162" on="1"/>
        <pt x="704" y="220" on="0"/>
        <pt x="725" y="358" on="0"/>
        <pt x="741" y="436" on="1"/>
        <pt x="735" y="436" on="1"/>
        <pt x="703" y="335" on="0"/>
        <pt x="634" y="189" on="0"/>
        <pt x="564" y="87" on="0"/>
        <pt x="493" y="24" on="0"/>
        <pt x="426" y="-11" on="0"/>
        <pt x="363" y="-23" on="0"/>
        <pt x="335" y="-23" on="1"/>
        <pt x="280" y="-23" on="0"/>
        <pt x="185" y="16" on="0"/>
        <pt x="115" y="101" on="0"/>
        <pt x="75" y="237" on="0"/>
        <pt x="75" y="334" on="1"/>
        <pt x="75" y="478" on="0"/>
        <pt x="150" y="736" on="0"/>
        <pt x="299" y="932" on="0"/>
        <pt x="523" y="1047" on="0"/>
        <pt x="673" y="1047" on="1"/>
        <pt x="736" y="1047" on="0"/>
        <pt x="881" y="1029" on="0"/>
      </contour>
      <contour>
        <pt x="769" y="948" on="1"/>
        <pt x="738" y="961" on="0"/>
        <pt x="658" y="973" on="0"/>
        <pt x="610" y="973" on="1"/>
        <pt x="517" y="973" on="0"/>
        <pt x="380" y="869" on="0"/>
        <pt x="291" y="698" on="0"/>
        <pt x="247" y="481" on="0"/>
        <pt x="247" y="368" on="1"/>
        <pt x="247" y="303" on="0"/>
        <pt x="260" y="192" on="0"/>
        <pt x="292" y="112" on="0"/>
        <pt x="342" y="67" on="0"/>
        <pt x="380" y="67" on="1"/>
        <pt x="427" y="67" on="0"/>
        <pt x="521" y="147" on="0"/>
        <pt x="606" y="281" on="0"/>
        <pt x="681" y="459" on="0"/>
        <pt x="736" y="655" on="0"/>
        <pt x="768" y="857" on="0"/>
      </contour>
    </TTGlyph>
    <TTGlyph name="aacute" xMin="75" yMin="-23" xMax="1122" yMax="1562">
      <component glyphName="a" x="0" y="0" flags="0x204"/>
      <component glyphName="acute" x="503" y="0" flags="0x4"/>
    </TTGlyph>
    <TTGlyph name="abreve" xMin="76" yMin="-23" xMax="1123" yMax="1505">
      <component glyphName="a" x="1" y="0" flags="0x0"/>
      <component glyphName="breve" x="342" y="0" flags="0x0"/>
    </TTGlyph>
    <TTGlyph name="acircumflex" xMin="75" yMin="-23" xMax="1122" yMax="1589">
      <component glyphName="a" x="0" y="0" flags="0x204"/>
      <component glyphName="circumflex" x="223" y="0" flags="0x4"/>
    </TTGlyph>
    <TTGlyph name="acute" xMin="93" yMin="1186" xMax="399" yMax="1562">
      <contour>
        <pt x="142" y="1186" on="1"/>
        <pt x="93" y="1227" on="1"/>
        <pt x="252" y="1497" on="1"/>
        <pt x="275" y="1535" on="0"/>
        <pt x="319" y="1562" on="0"/>
        <pt x="337" y="1562" on="1"/>
        <pt x="366" y="1562" on="0"/>
        <pt x="399" y="1528" on="0"/>
        <pt x="399" y="1496" on="1"/>
        <pt x="399" y="1478" on="0"/>
        <pt x="379" y="1433" on="0"/>
        <pt x="353" y="1405" on="1"/>
      </contour>
    </TTGlyph>
    <TTGlyph name="adieresis" xMin="75" yMin="-23" xMax="1122" yMax="1485">
      <component glyphName="a" x="0" y="0" flags="0x204"/>
      <component glyphName="dieresis" x="314" y="0" flags="0x4"/>
    </TTGlyph>
    <TTGlyph name="ae" xMin="53" yMin="-23" xMax="1454" yMax="1047">
      <contour>
        <pt x="270" y="844" on="1"/>
        <pt x="282" y="828" on="0"/>
        <pt x="288" y="795" on="0"/>
        <pt x="288" y="781" on="1"/>
        <pt x="288" y="749" on="0"/>
        <pt x="242" y="701" on="0"/>
        <pt x="205" y="701" on="1"/>
        <pt x="170" y="701" on="0"/>
        <pt x="125" y="748" on="0"/>
        <pt x="125" y="783" on="1"/>
        <pt x="125" y="828" on="0"/>
        <pt x="182" y="922" on="0"/>
        <pt x="285" y="998" on="0"/>
        <pt x="432" y="1047" on="0"/>
        <pt x="522" y="1047" on="1"/>
        <pt x="623" y="1047" on="0"/>
        <pt x="748" y="946" on="0"/>
        <pt x="780" y="861" on="1"/>
        <pt x="784" y="861" on="1"/>
        <pt x="844" y="952" on="0"/>
        <pt x="1019" y="1047" on="0"/>
        <pt x="1134" y="1047" on="1"/>
        <pt x="1196" y="1047" on="0"/>
        <pt x="1286" y="1021" on="0"/>
        <pt x="1346" y="980" on="0"/>
        <pt x="1382" y="930" on="0"/>
        <pt x="1401" y="881" on="0"/>
        <pt x="1407" y="838" on="0"/>
        <pt x="1407" y="826" on="1"/>
        <pt x="1407" y="796" on="0"/>
        <pt x="1386" y="727" on="0"/>
        <pt x="1334" y="657" on="0"/>
        <pt x="1247" y="589" on="0"/>
        <pt x="1114" y="531" on="0"/>
        <pt x="931" y="485" on="0"/>
        <pt x="810" y="472" on="1"/>
        <pt x="810" y="385" on="0"/>
        <pt x="837" y="240" on="0"/>
        <pt x="898" y="137" on="0"/>
        <pt x="996" y="80" on="0"/>
        <pt x="1067" y="80" on="1"/>
        <pt x="1115" y="80" on="0"/>
        <pt x="1205" y="118" on="0"/>
        <pt x="1286" y="185" on="0"/>
        <pt x="1358" y="275" on="0"/>
        <pt x="1388" y="327" on="1"/>
        <pt x="1454" y="289" on="1"/>
        <pt x="1407" y="199" on="0"/>
        <pt x="1301" y="79" on="0"/>
        <pt x="1191" y="7" on="0"/>
        <pt x="1080" y="-23" on="0"/>
        <pt x="1028" y="-23" on="1"/>
        <pt x="967" y="-23" on="0"/>
        <pt x="869" y="-2" on="0"/>
        <pt x="789" y="44" on="0"/>
        <pt x="724" y="115" on="0"/>
        <pt x="696" y="166" on="1"/>
        <pt x="608" y="69" on="0"/>
        <pt x="412" y="-23" on="0"/>
        <pt x="315" y="-23" on="1"/>
        <pt x="249" y="-23" on="0"/>
        <pt x="151" y="9" on="0"/>
        <pt x="85" y="67" on="0"/>
        <pt x="53" y="149" on="0"/>
        <pt x="53" y="199" on="1"/>
        <pt x="53" y="256" on="0"/>
        <pt x="99" y="351" on="0"/>
        <pt x="180" y="427" on="0"/>
        <pt x="289" y="484" on="0"/>
        <pt x="414" y="523" on="0"/>
        <pt x="550" y="542" on="0"/>
        <pt x="617" y="542" on="1"/>
        <pt x="628" y="542" on="0"/>
        <pt x="647" y="541" on="0"/>
        <pt x="657" y="541" on="1"/>
        <pt x="657" y="543" on="0"/>
        <pt x="659" y="585" on="0"/>
        <pt x="663" y="647" on="1"/>
        <pt x="666" y="687" on="0"/>
        <pt x="666" y="726" on="1"/>
        <pt x="666" y="778" on="0"/>
        <pt x="651" y="869" on="0"/>
        <pt x="610" y="937" on="0"/>
        <pt x="538" y="977" on="0"/>
        <pt x="481" y="977" on="1"/>
        <pt x="442" y="977" on="0"/>
        <pt x="372" y="957" on="0"/>
        <pt x="317" y="922" on="0"/>
        <pt x="278" y="873" on="0"/>
      </contour>
      <contour>
        <pt x="669" y="233" on="1"/>
        <pt x="659" y="279" on="0"/>
        <pt x="650" y="378" on="0"/>
        <pt x="650" y="428" on="1"/>
        <pt x="650" y="440" on="0"/>
        <pt x="650" y="464" on="0"/>
        <pt x="651" y="476" on="1"/>
        <pt x="604" y="475" on="0"/>
        <pt x="504" y="465" on="0"/>
        <pt x="408" y="443" on="0"/>
        <pt x="324" y="407" on="0"/>
        <pt x="260" y="352" on="0"/>
        <pt x="223" y="275" on="0"/>
        <pt x="223" y="223" on="1"/>
        <pt x="223" y="182" on="0"/>
        <pt x="257" y="131" on="0"/>
        <pt x="306" y="102" on="0"/>
        <pt x="361" y="91" on="0"/>
        <pt x="383" y="91" on="1"/>
        <pt x="420" y="91" on="0"/>
        <pt x="497" y="112" on="0"/>
        <pt x="571" y="150" on="0"/>
        <pt x="639" y="202" on="0"/>
      </contour>
      <contour>
        <pt x="1098" y="979" on="1"/>
        <pt x="1038" y="977" on="0"/>
        <pt x="940" y="911" on="0"/>
        <pt x="867" y="796" on="0"/>
        <pt x="820" y="638" on="0"/>
        <pt x="811" y="545" on="1"/>
        <pt x="892" y="553" on="0"/>
        <pt x="1048" y="594" on="0"/>
        <pt x="1169" y="664" on="0"/>
        <pt x="1243" y="764" on="0"/>
        <pt x="1243" y="830" on="1"/>
        <pt x="1243" y="877" on="0"/>
        <pt x="1214" y="935" on="0"/>
        <pt x="1171" y="968" on="0"/>
        <pt x="1120" y="979" on="0"/>
      </contour>
    </TTGlyph>
    <TTGlyph name="agrave" xMin="75" yMin="-23" xMax="1122" yMax="1562">
      <component glyphName="a" x="0" y="0" flags="0x204"/>
      <component glyphName="grave" x="335" y="0" flags="0x4"/>
    </TTGlyph>
    <TTGlyph name="amacron" xMin="75" yMin="-23" xMax="1122" yMax="1436">
      <component glyphName="a" x="0" y="0" flags="0x0"/>
      <component glyphName="macron" x="330" y="0" flags="0x0"/>
    </TTGlyph>
    <TTGlyph name="ampersand" xMin="69" yMin="-33" xMax="1416" yMax="1467">
      <contour>
        <pt x="829" y="1285" on="1"/>
        <pt x="825" y="1306" on="0"/>
        <pt x="793" y="1346" on="0"/>
        <pt x="742" y="1376" on="0"/>
        <pt x="675" y="1394" on="0"/>
        <pt x="636" y="1394" on="1"/>
        <pt x="569" y="1394" on="0"/>
        <pt x="465" y="1345" on="0"/>
        <pt x="394" y="1263" on="0"/>
        <pt x="357" y="1156" on="0"/>
        <pt x="357" y="1097" on="1"/>
        <pt x="357" y="1072" on="0"/>
        <pt x="364" y="1011" on="0"/>
        <pt x="384" y="950" on="0"/>
        <pt x="420" y="892" on="0"/>
        <pt x="476" y="848" on="0"/>
        <pt x="556" y="821" on="0"/>
        <pt x="611" y="821" on="1"/>
        <pt x="633" y="821" on="0"/>
        <pt x="657" y="822" on="0"/>
        <pt x="672" y="822" on="0"/>
        <pt x="684" y="823" on="0"/>
        <pt x="693" y="823" on="1"/>
        <pt x="689" y="733" on="1"/>
        <pt x="611" y="735" on="1"/>
        <pt x="540" y="735" on="0"/>
        <pt x="434" y="699" on="0"/>
        <pt x="357" y="642" on="0"/>
        <pt x="306" y="569" on="0"/>
        <pt x="276" y="494" on="0"/>
        <pt x="264" y="424" on="0"/>
        <pt x="264" y="398" on="1"/>
        <pt x="264" y="311" on="0"/>
        <pt x="330" y="185" on="0"/>
        <pt x="432" y="103" on="0"/>
        <pt x="555" y="63" on="0"/>
        <pt x="613" y="63" on="1"/>
        <pt x="732" y="63" on="0"/>
        <pt x="901" y="134" on="0"/>
        <pt x="1009" y="253" on="0"/>
        <pt x="1059" y="411" on="0"/>
        <pt x="1059" y="498" on="1"/>
        <pt x="994" y="498" on="1"/>
        <pt x="967" y="498" on="0"/>
        <pt x="918" y="494" on="0"/>
        <pt x="867" y="479" on="0"/>
        <pt x="812" y="450" on="0"/>
        <pt x="781" y="426" on="1"/>
        <pt x="740" y="467" on="1"/>
        <pt x="774" y="518" on="0"/>
        <pt x="843" y="582" on="0"/>
        <pt x="925" y="617" on="0"/>
        <pt x="1025" y="629" on="0"/>
        <pt x="1090" y="629" on="1"/>
        <pt x="1130" y="629" on="0"/>
        <pt x="1204" y="632" on="0"/>
        <pt x="1273" y="649" on="0"/>
        <pt x="1338" y="683" on="0"/>
        <pt x="1371" y="715" on="1"/>
        <pt x="1416" y="680" on="1"/>
        <pt x="1392" y="642" on="0"/>
        <pt x="1347" y="581" on="0"/>
        <pt x="1289" y="536" on="0"/>
        <pt x="1208" y="507" on="0"/>
        <pt x="1148" y="501" on="1"/>
        <pt x="1148" y="446" on="0"/>
        <pt x="1126" y="325" on="0"/>
        <pt x="1076" y="206" on="0"/>
        <pt x="992" y="98" on="0"/>
        <pt x="867" y="16" on="0"/>
        <pt x="698" y="-33" on="0"/>
        <pt x="587" y="-33" on="1"/>
        <pt x="477" y="-33" on="0"/>
        <pt x="288" y="14" on="0"/>
        <pt x="149" y="111" on="0"/>
        <pt x="69" y="258" on="0"/>
        <pt x="69" y="357" on="1"/>
        <pt x="69" y="431" on="0"/>
        <pt x="118" y="575" on="0"/>
        <pt x="215" y="693" on="0"/>
        <pt x="361" y="776" on="0"/>
        <pt x="457" y="788" on="1"/>
        <pt x="377" y="804" on="0"/>
        <pt x="270" y="860" on="0"/>
        <pt x="204" y="933" on="0"/>
        <pt x="176" y="1020" on="0"/>
        <pt x="176" y="1068" on="1"/>
        <pt x="176" y="1161" on="0"/>
        <pt x="246" y="1308" on="0"/>
        <pt x="369" y="1412" on="0"/>
        <pt x="534" y="1467" on="0"/>
        <pt x="630" y="1467" on="1"/>
        <pt x="712" y="1467" on="0"/>
        <pt x="842" y="1428" on="0"/>
        <pt x="934" y="1365" on="0"/>
        <pt x="983" y="1283" on="0"/>
        <pt x="983" y="1240" on="1"/>
        <pt x="983" y="1200" on="0"/>
        <pt x="938" y="1143" on="0"/>
        <pt x="893" y="1143" on="1"/>
        <pt x="860" y="1143" on="0"/>
        <pt x="811" y="1186" on="0"/>
        <pt x="811" y="1222" on="1"/>
        <pt x="811" y="1253" on="0"/>
      </contour>
    </TTGlyph>
    <TTGlyph name="aogonek" xMin="76" yMin="-571" xMax="1123" yMax="1047">
      <contour>
        <pt x="965" y="9" on="1"/>
        <pt x="941" y="-7" on="0"/>
        <pt x="908" y="-16" on="1"/>
        <pt x="858" y="-42" on="0"/>
        <pt x="768" y="-110" on="0"/>
        <pt x="701" y="-191" on="0"/>
        <pt x="662" y="-282" on="0"/>
        <pt x="662" y="-330" on="1"/>
        <pt x="662" y="-395" on="0"/>
        <pt x="725" y="-473" on="0"/>
        <pt x="785" y="-473" on="1"/>
        <pt x="822" y="-473" on="0"/>
        <pt x="903" y="-442" on="0"/>
        <pt x="941" y="-407" on="1"/>
        <pt x="969" y="-442" on="1"/>
        <pt x="948" y="-466" on="0"/>
        <pt x="891" y="-512" on="0"/>
        <pt x="826" y="-549" on="0"/>
        <pt x="755" y="-571" on="0"/>
        <pt x="718" y="-571" on="1"/>
        <pt x="673" y="-571" on="0"/>
        <pt x="602" y="-540" on="0"/>
        <pt x="554" y="-485" on="0"/>
        <pt x="531" y="-408" on="0"/>
        <pt x="533" y="-362" on="1"/>
        <pt x="536" y="-308" on="0"/>
        <pt x="578" y="-209" on="0"/>
        <pt x="649" y="-121" on="0"/>
        <pt x="742" y="-45" on="0"/>
        <pt x="796" y="-14" on="1"/>
        <pt x="747" y="4" on="0"/>
        <pt x="705" y="96" on="0"/>
        <pt x="705" y="162" on="1"/>
        <pt x="705" y="220" on="0"/>
        <pt x="726" y="359" on="0"/>
        <pt x="742" y="436" on="1"/>
        <pt x="736" y="436" on="1"/>
        <pt x="703" y="335" on="0"/>
        <pt x="635" y="189" on="0"/>
        <pt x="565" y="87" on="0"/>
        <pt x="495" y="24" on="0"/>
        <pt x="427" y="-11" on="0"/>
        <pt x="364" y="-23" on="0"/>
        <pt x="336" y="-23" on="1"/>
        <pt x="281" y="-23" on="0"/>
        <pt x="186" y="16" on="0"/>
        <pt x="116" y="101" on="0"/>
        <pt x="76" y="237" on="0"/>
        <pt x="76" y="334" on="1"/>
        <pt x="76" y="478" on="0"/>
        <pt x="151" y="736" on="0"/>
        <pt x="300" y="932" on="0"/>
        <pt x="524" y="1047" on="0"/>
        <pt x="674" y="1047" on="1"/>
        <pt x="736" y="1047" on="0"/>
        <pt x="882" y="1029" on="0"/>
        <pt x="949" y="1012" on="1"/>
        <pt x="933" y="890" on="0"/>
        <pt x="900" y="644" on="0"/>
        <pt x="874" y="426" on="0"/>
        <pt x="858" y="253" on="0"/>
        <pt x="858" y="203" on="1"/>
        <pt x="858" y="182" on="0"/>
        <pt x="859" y="138" on="0"/>
        <pt x="870" y="103" on="0"/>
        <pt x="893" y="80" on="0"/>
        <pt x="916" y="80" on="1"/>
        <pt x="933" y="80" on="0"/>
        <pt x="972" y="101" on="0"/>
        <pt x="1012" y="148" on="0"/>
        <pt x="1050" y="224" on="0"/>
        <pt x="1065" y="278" on="1"/>
        <pt x="1123" y="266" on="1"/>
        <pt x="1118" y="239" on="0"/>
        <pt x="1094" y="170" on="0"/>
        <pt x="1055" y="98" on="0"/>
        <pt x="1001" y="32" on="0"/>
        <pt x="967" y="10" on="1"/>
      </contour>
      <contour>
        <pt x="381" y="67" on="1"/>
        <pt x="428" y="67" on="0"/>
        <pt x="521" y="147" on="0"/>
        <pt x="608" y="281" on="0"/>
        <pt x="682" y="459" on="0"/>
        <pt x="737" y="655" on="0"/>
        <pt x="769" y="856" on="0"/>
        <pt x="770" y="948" on="1"/>
        <pt x="739" y="961" on="0"/>
        <pt x="659" y="973" on="0"/>
        <pt x="611" y="973" on="1"/>
        <pt x="518" y="973" on="0"/>
        <pt x="381" y="869" on="0"/>
        <pt x="292" y="698" on="0"/>
        <pt x="248" y="481" on="0"/>
        <pt x="248" y="368" on="1"/>
        <pt x="248" y="303" on="0"/>
        <pt x="261" y="192" on="0"/>
        <pt x="293" y="112" on="0"/>
        <pt x="343" y="67" on="0"/>
      </contour>
    </TTGlyph>
    <TTGlyph name="approxequal" xMin="149" yMin="308" xMax="1069" yMax="903">
      <component glyphName="asciitilde" x="22" y="193" scalex="1.0" scaley="0.937072753906" flags="0x4"/>
      <component glyphName="asciitilde" x="22" y="-135" scalex="1.0" scaley="0.937072753906" flags="0x4"/>
    </TTGlyph>
    <TTGlyph name="aring" xMin="75" yMin="-23" xMax="1122" yMax="1559">
      <component glyphName="a" x="0" y="0" flags="0x204"/>
      <component glyphName="ring" x="372" y="0" flags="0x4"/>
    </TTGlyph>
    <TTGlyph name="asciicircum" xMin="111" yMin="883" xMax="1542" yMax="1454">
      <contour>
        <pt x="946" y="1454" on="1"/>
        <pt x="1542" y="883" on="1"/>
        <pt x="1366" y="883" on="1"/>
        <pt x="849" y="1384" on="1"/>
        <pt x="847" y="1384" on="1"/>
        <pt x="274" y="891" on="1"/>
        <pt x="111" y="891" on="1"/>
        <pt x="772" y="1454" on="1"/>
      </contour>
    </TTGlyph>
    <TTGlyph name="asciitilde" xMin="127" yMin="473" xMax="1047" yMax="758">
      <contour>
        <pt x="385" y="623" on="1"/>
        <pt x="343" y="623" on="0"/>
        <pt x="275" y="608" on="0"/>
        <pt x="215" y="583" on="0"/>
        <pt x="158" y="548" on="0"/>
        <pt x="127" y="528" on="1"/>
        <pt x="133" y="649" on="1"/>
        <pt x="169" y="675" on="0"/>
        <pt x="232" y="716" on="0"/>
        <pt x="296" y="744" on="0"/>
        <pt x="364" y="758" on="0"/>
        <pt x="406" y="758" on="1"/>
        <pt x="461" y="758" on="0"/>
        <pt x="541" y="735" on="0"/>
        <pt x="602" y="701" on="0"/>
        <pt x="651" y="660" on="0"/>
        <pt x="703" y="626" on="0"/>
        <pt x="762" y="603" on="0"/>
        <pt x="803" y="603" on="1"/>
        <pt x="871" y="603" on="0"/>
        <pt x="993" y="655" on="0"/>
        <pt x="1047" y="700" on="1"/>
        <pt x="1041" y="580" on="1"/>
        <pt x="993" y="532" on="0"/>
        <pt x="864" y="473" on="0"/>
        <pt x="783" y="473" on="1"/>
        <pt x="732" y="473" on="0"/>
        <pt x="656" y="495" on="0"/>
        <pt x="595" y="529" on="0"/>
        <pt x="543" y="567" on="0"/>
        <pt x="488" y="601" on="0"/>
        <pt x="426" y="623" on="0"/>
      </contour>
    </TTGlyph>
    <TTGlyph name="asterisk" xMin="110" yMin="606" xMax="1007" yMax="1467">
      <contour>
        <pt x="582" y="1041" on="1"/>
        <pt x="639" y="1071" on="0"/>
        <pt x="770" y="1133" on="0"/>
        <pt x="836" y="1164" on="1"/>
        <pt x="859" y="1175" on="0"/>
        <pt x="912" y="1190" on="0"/>
        <pt x="936" y="1190" on="1"/>
        <pt x="968" y="1190" on="0"/>
        <pt x="1007" y="1158" on="0"/>
        <pt x="1007" y="1126" on="1"/>
        <pt x="1007" y="1106" on="0"/>
        <pt x="984" y="1074" on="0"/>
        <pt x="948" y="1051" on="0"/>
        <pt x="903" y="1035" on="0"/>
        <pt x="881" y="1031" on="1"/>
        <pt x="812" y="1017" on="0"/>
        <pt x="665" y="990" on="0"/>
        <pt x="599" y="984" on="1"/>
        <pt x="644" y="944" on="0"/>
        <pt x="740" y="842" on="0"/>
        <pt x="785" y="791" on="1"/>
        <pt x="805" y="768" on="0"/>
        <pt x="836" y="704" on="0"/>
        <pt x="836" y="675" on="1"/>
        <pt x="836" y="646" on="0"/>
        <pt x="797" y="606" on="0"/>
        <pt x="769" y="606" on="1"/>
        <pt x="754" y="606" on="0"/>
        <pt x="726" y="621" on="0"/>
        <pt x="701" y="646" on="0"/>
        <pt x="680" y="677" on="0"/>
        <pt x="671" y="693" on="1"/>
        <pt x="656" y="723" on="0"/>
        <pt x="623" y="789" on="0"/>
        <pt x="592" y="855" on="0"/>
        <pt x="563" y="920" on="0"/>
        <pt x="552" y="949" on="1"/>
        <pt x="537" y="920" on="0"/>
        <pt x="500" y="855" on="0"/>
        <pt x="461" y="789" on="0"/>
        <pt x="422" y="723" on="0"/>
        <pt x="404" y="693" on="1"/>
        <pt x="394" y="677" on="0"/>
        <pt x="369" y="647" on="0"/>
        <pt x="340" y="623" on="0"/>
        <pt x="308" y="609" on="0"/>
        <pt x="293" y="609" on="1"/>
        <pt x="268" y="609" on="0"/>
        <pt x="235" y="643" on="0"/>
        <pt x="235" y="667" on="1"/>
        <pt x="235" y="698" on="0"/>
        <pt x="274" y="765" on="0"/>
        <pt x="300" y="791" on="1"/>
        <pt x="349" y="842" on="0"/>
        <pt x="449" y="939" on="0"/>
        <pt x="503" y="984" on="1"/>
        <pt x="439" y="996" on="0"/>
        <pt x="291" y="1018" on="0"/>
        <pt x="226" y="1031" on="1"/>
        <pt x="205" y="1035" on="0"/>
        <pt x="164" y="1049" on="0"/>
        <pt x="130" y="1070" on="0"/>
        <pt x="110" y="1098" on="0"/>
        <pt x="110" y="1116" on="1"/>
        <pt x="110" y="1135" on="0"/>
        <pt x="126" y="1164" on="0"/>
        <pt x="148" y="1181" on="0"/>
        <pt x="176" y="1189" on="0"/>
        <pt x="190" y="1189" on="1"/>
        <pt x="213" y="1189" on="0"/>
        <pt x="260" y="1175" on="0"/>
        <pt x="283" y="1164" on="1"/>
        <pt x="346" y="1134" on="0"/>
        <pt x="474" y="1068" on="0"/>
        <pt x="525" y="1041" on="1"/>
        <pt x="519" y="1072" on="0"/>
        <pt x="511" y="1148" on="0"/>
        <pt x="504" y="1228" on="0"/>
        <pt x="500" y="1296" on="0"/>
        <pt x="498" y="1343" on="1"/>
        <pt x="498" y="1365" on="0"/>
        <pt x="505" y="1409" on="0"/>
        <pt x="523" y="1445" on="0"/>
        <pt x="553" y="1467" on="0"/>
        <pt x="576" y="1467" on="1"/>
        <pt x="595" y="1467" on="0"/>
        <pt x="621" y="1451" on="0"/>
        <pt x="636" y="1424" on="0"/>
        <pt x="643" y="1389" on="0"/>
        <pt x="643" y="1370" on="1"/>
        <pt x="643" y="1356" on="0"/>
        <pt x="640" y="1331" on="0"/>
        <pt x="626" y="1249" on="0"/>
        <pt x="600" y="1101" on="0"/>
      </contour>
    </TTGlyph>
    <TTGlyph name="at" xMin="87" yMin="-195" xMax="1537" yMax="1304">
      <contour>
        <pt x="1009" y="907" on="1"/>
        <pt x="964" y="926" on="0"/>
        <pt x="885" y="926" on="1"/>
        <pt x="834" y="926" on="0"/>
        <pt x="748" y="880" on="0"/>
        <pt x="678" y="802" on="0"/>
        <pt x="625" y="699" on="0"/>
        <pt x="590" y="584" on="0"/>
        <pt x="572" y="464" on="0"/>
        <pt x="572" y="409" on="1"/>
        <pt x="572" y="321" on="0"/>
        <pt x="621" y="221" on="0"/>
        <pt x="669" y="221" on="1"/>
        <pt x="706" y="221" on="0"/>
        <pt x="783" y="283" on="0"/>
        <pt x="856" y="388" on="0"/>
        <pt x="921" y="526" on="0"/>
        <pt x="972" y="678" on="0"/>
        <pt x="1005" y="836" on="0"/>
      </contour>
      <contour>
        <pt x="1537" y="683" on="1"/>
        <pt x="1537" y="625" on="0"/>
        <pt x="1525" y="538" on="0"/>
        <pt x="1484" y="399" on="0"/>
        <pt x="1416" y="284" on="0"/>
        <pt x="1330" y="204" on="0"/>
        <pt x="1241" y="154" on="0"/>
        <pt x="1153" y="132" on="0"/>
        <pt x="1117" y="132" on="1"/>
        <pt x="1063" y="132" on="0"/>
        <pt x="993" y="162" on="0"/>
        <pt x="952" y="211" on="0"/>
        <pt x="935" y="275" on="0"/>
        <pt x="935" y="308" on="1"/>
        <pt x="935" y="353" on="0"/>
        <pt x="953" y="450" on="0"/>
        <pt x="964" y="498" on="1"/>
        <pt x="960" y="498" on="1"/>
        <pt x="916" y="381" on="0"/>
        <pt x="827" y="241" on="0"/>
        <pt x="743" y="166" on="0"/>
        <pt x="664" y="143" on="0"/>
        <pt x="631" y="143" on="1"/>
        <pt x="590" y="143" on="0"/>
        <pt x="519" y="172" on="0"/>
        <pt x="466" y="234" on="0"/>
        <pt x="435" y="330" on="0"/>
        <pt x="435" y="396" on="1"/>
        <pt x="435" y="513" on="0"/>
        <pt x="502" y="727" on="0"/>
        <pt x="630" y="890" on="0"/>
        <pt x="817" y="987" on="0"/>
        <pt x="938" y="987" on="1"/>
        <pt x="986" y="987" on="0"/>
        <pt x="1100" y="975" on="0"/>
        <pt x="1151" y="961" on="1"/>
        <pt x="1136" y="877" on="0"/>
        <pt x="1103" y="703" on="0"/>
        <pt x="1075" y="544" on="0"/>
        <pt x="1056" y="409" on="0"/>
        <pt x="1056" y="363" on="1"/>
        <pt x="1056" y="328" on="0"/>
        <pt x="1066" y="270" on="0"/>
        <pt x="1089" y="226" on="0"/>
        <pt x="1127" y="202" on="0"/>
        <pt x="1155" y="202" on="1"/>
        <pt x="1202" y="202" on="0"/>
        <pt x="1289" y="266" on="0"/>
        <pt x="1357" y="384" on="0"/>
        <pt x="1397" y="551" on="0"/>
        <pt x="1397" y="653" on="1"/>
        <pt x="1397" y="804" on="0"/>
        <pt x="1317" y="1020" on="0"/>
        <pt x="1176" y="1158" on="0"/>
        <pt x="986" y="1223" on="0"/>
        <pt x="876" y="1223" on="1"/>
        <pt x="731" y="1223" on="0"/>
        <pt x="494" y="1103" on="0"/>
        <pt x="326" y="900" on="0"/>
        <pt x="235" y="634" on="0"/>
        <pt x="235" y="488" on="1"/>
        <pt x="235" y="382" on="0"/>
        <pt x="282" y="211" on="0"/>
        <pt x="365" y="77" on="0"/>
        <pt x="478" y="-19" on="0"/>
        <pt x="611" y="-82" on="0"/>
        <pt x="758" y="-112" on="0"/>
        <pt x="833" y="-112" on="1"/>
        <pt x="885" y="-112" on="0"/>
        <pt x="1004" y="-95" on="0"/>
        <pt x="1127" y="-52" on="0"/>
        <pt x="1247" y="24" on="0"/>
        <pt x="1300" y="84" on="1"/>
        <pt x="1347" y="33" on="1"/>
        <pt x="1237" y="-87" on="0"/>
        <pt x="948" y="-195" on="0"/>
        <pt x="777" y="-195" on="1"/>
        <pt x="602" y="-195" on="0"/>
        <pt x="342" y="-87" on="0"/>
        <pt x="171" y="98" on="0"/>
        <pt x="87" y="342" on="0"/>
        <pt x="87" y="479" on="1"/>
        <pt x="87" y="569" on="0"/>
        <pt x="129" y="762" on="0"/>
        <pt x="216" y="945" on="0"/>
        <pt x="347" y="1109" on="0"/>
        <pt x="525" y="1232" on="0"/>
        <pt x="749" y="1304" on="0"/>
        <pt x="886" y="1304" on="1"/>
        <pt x="995" y="1304" on="0"/>
        <pt x="1177" y="1255" on="0"/>
        <pt x="1321" y="1168" on="0"/>
        <pt x="1429" y="1050" on="0"/>
        <pt x="1501" y="912" on="0"/>
        <pt x="1537" y="760" on="0"/>
      </contour>
    </TTGlyph>
    <TTGlyph name="atilde" xMin="75" yMin="-23" xMax="1122" yMax="1477">
      <component glyphName="a" x="0" y="0" flags="0x204"/>
      <component glyphName="tilde" x="255" y="0" flags="0x4"/>
    </TTGlyph>
    <TTGlyph name="b" xMin="72" yMin="-23" xMax="953" yMax="1546">
      <contour>
        <pt x="355" y="1200" on="1"/>
        <pt x="341" y="1063" on="0"/>
        <pt x="311" y="775" on="0"/>
        <pt x="295" y="610" on="1"/>
        <pt x="301" y="610" on="1"/>
        <pt x="328" y="709" on="0"/>
        <pt x="391" y="851" on="0"/>
        <pt x="458" y="948" on="0"/>
        <pt x="529" y="1006" on="0"/>
        <pt x="599" y="1037" on="0"/>
        <pt x="667" y="1047" on="0"/>
        <pt x="697" y="1047" on="1"/>
        <pt x="767" y="1047" on="0"/>
        <pt x="865" y="985" on="0"/>
        <pt x="926" y="881" on="0"/>
        <pt x="953" y="744" on="0"/>
        <pt x="953" y="670" on="1"/>
        <pt x="953" y="529" on="0"/>
        <pt x="890" y="277" on="0"/>
        <pt x="753" y="88" on="0"/>
        <pt x="537" y="-23" on="0"/>
        <pt x="385" y="-23" on="1"/>
        <pt x="360" y="-23" on="0"/>
        <pt x="293" y="-19" on="0"/>
        <pt x="221" y="-8" on="0"/>
        <pt x="148" y="8" on="0"/>
        <pt x="117" y="20" on="1"/>
        <pt x="165" y="783" on="0"/>
        <pt x="207" y="1309" on="1"/>
        <pt x="209" y="1335" on="0"/>
        <pt x="212" y="1365" on="0"/>
        <pt x="214" y="1385" on="0"/>
        <pt x="217" y="1403" on="0"/>
        <pt x="219" y="1417" on="1"/>
        <pt x="72" y="1409" on="1"/>
        <pt x="80" y="1491" on="1"/>
        <pt x="147" y="1491" on="0"/>
        <pt x="236" y="1500" on="0"/>
        <pt x="295" y="1515" on="0"/>
        <pt x="328" y="1535" on="0"/>
        <pt x="340" y="1546" on="1"/>
        <pt x="400" y="1546" on="1"/>
        <pt x="393" y="1503" on="0"/>
        <pt x="380" y="1410" on="0"/>
        <pt x="369" y="1319" on="0"/>
        <pt x="359" y="1234" on="0"/>
      </contour>
      <contour>
        <pt x="269" y="96" on="1"/>
        <pt x="294" y="71" on="0"/>
        <pt x="379" y="49" on="0"/>
        <pt x="420" y="49" on="1"/>
        <pt x="492" y="50" on="0"/>
        <pt x="601" y="103" on="0"/>
        <pt x="681" y="191" on="0"/>
        <pt x="733" y="307" on="0"/>
        <pt x="764" y="436" on="0"/>
        <pt x="777" y="569" on="0"/>
        <pt x="777" y="631" on="1"/>
        <pt x="777" y="784" on="0"/>
        <pt x="711" y="951" on="0"/>
        <pt x="637" y="951" on="1"/>
        <pt x="588" y="949" on="0"/>
        <pt x="497" y="868" on="0"/>
        <pt x="417" y="735" on="0"/>
        <pt x="350" y="562" on="0"/>
        <pt x="300" y="373" on="0"/>
        <pt x="271" y="181" on="0"/>
      </contour>
    </TTGlyph>
    <TTGlyph name="backslash" xMin="99" yMin="-555" xMax="1491" yMax="1556">
      <component glyphName="slash" x="1456" y="0" scalex="-0.999938964844" scaley="1.0" flags="0x4"/>
    </TTGlyph>
    <TTGlyph name="bar" xMin="113" yMin="-555" xMax="361" yMax="1556">
      <contour>
        <pt x="361" y="1556" on="1"/>
        <pt x="241" y="-555" on="1"/>
        <pt x="113" y="-555" on="1"/>
        <pt x="218" y="1556" on="1"/>
      </contour>
    </TTGlyph>
    <TTGlyph name="braceleft" xMin="11" yMin="-555" xMax="711" yMax="1556">
      <contour>
        <pt x="191" y="525" on="1"/>
        <pt x="233" y="517" on="0"/>
        <pt x="308" y="478" on="0"/>
        <pt x="365" y="414" on="0"/>
        <pt x="398" y="323" on="0"/>
        <pt x="398" y="264" on="1"/>
        <pt x="398" y="231" on="0"/>
        <pt x="385" y="128" on="0"/>
        <pt x="369" y="17" on="0"/>
        <pt x="354" y="-88" on="0"/>
        <pt x="352" y="-141" on="0"/>
        <pt x="351" y="-171" on="0"/>
        <pt x="351" y="-186" on="1"/>
        <pt x="351" y="-259" on="0"/>
        <pt x="376" y="-375" on="0"/>
        <pt x="433" y="-455" on="0"/>
        <pt x="527" y="-498" on="0"/>
        <pt x="596" y="-498" on="1"/>
        <pt x="607" y="-498" on="1"/>
        <pt x="603" y="-555" on="1"/>
        <pt x="545" y="-555" on="1"/>
        <pt x="449" y="-555" on="0"/>
        <pt x="318" y="-503" on="0"/>
        <pt x="238" y="-403" on="0"/>
        <pt x="203" y="-258" on="0"/>
        <pt x="203" y="-166" on="1"/>
        <pt x="203" y="-111" on="0"/>
        <pt x="216" y="11" on="0"/>
        <pt x="232" y="133" on="0"/>
        <pt x="245" y="249" on="0"/>
        <pt x="245" y="297" on="1"/>
        <pt x="245" y="342" on="0"/>
        <pt x="226" y="408" on="0"/>
        <pt x="182" y="452" on="0"/>
        <pt x="110" y="474" on="0"/>
        <pt x="58" y="474" on="1"/>
        <pt x="11" y="474" on="1"/>
        <pt x="11" y="581" on="1"/>
        <pt x="64" y="581" on="1"/>
        <pt x="128" y="581" on="0"/>
        <pt x="209" y="609" on="0"/>
        <pt x="255" y="670" on="0"/>
        <pt x="272" y="764" on="0"/>
        <pt x="272" y="830" on="1"/>
        <pt x="272" y="889" on="0"/>
        <pt x="266" y="1016" on="0"/>
        <pt x="266" y="1079" on="1"/>
        <pt x="266" y="1202" on="0"/>
        <pt x="304" y="1382" on="0"/>
        <pt x="394" y="1499" on="0"/>
        <pt x="543" y="1556" on="0"/>
        <pt x="654" y="1556" on="1"/>
        <pt x="711" y="1556" on="1"/>
        <pt x="707" y="1486" on="1"/>
        <pt x="684" y="1486" on="1"/>
        <pt x="610" y="1486" on="0"/>
        <pt x="508" y="1444" on="0"/>
        <pt x="445" y="1356" on="0"/>
        <pt x="417" y="1222" on="0"/>
        <pt x="417" y="1129" on="1"/>
        <pt x="417" y="1097" on="0"/>
        <pt x="420" y="1023" on="0"/>
        <pt x="425" y="946" on="0"/>
        <pt x="428" y="871" on="0"/>
        <pt x="428" y="839" on="1"/>
        <pt x="428" y="765" on="0"/>
        <pt x="391" y="657" on="0"/>
        <pt x="326" y="583" on="0"/>
        <pt x="240" y="539" on="0"/>
        <pt x="191" y="529" on="1"/>
      </contour>
    </TTGlyph>
    <TTGlyph name="braceright" xMin="-48" yMin="-555" xMax="652" yMax="1555">
      <component glyphName="braceleft" x="663" y="1001" scale="-0.999938964844" flags="0x4"/>
    </TTGlyph>
    <TTGlyph name="bracketleft" xMin="94" yMin="-522" xMax="782" yMax="1546">
      <contour>
        <pt x="239" y="1546" on="1"/>
        <pt x="782" y="1546" on="1"/>
        <pt x="774" y="1432" on="1"/>
        <pt x="375" y="1425" on="1"/>
        <pt x="240" y="-401" on="1"/>
        <pt x="651" y="-408" on="1"/>
        <pt x="642" y="-522" on="1"/>
        <pt x="94" y="-522" on="1"/>
      </contour>
    </TTGlyph>
    <TTGlyph name="bracketright" xMin="-57" yMin="-522" xMax="631" yMax="1545">
      <component glyphName="bracketleft" x="725" y="1024" scale="-0.999938964844" flags="0x4"/>
    </TTGlyph>
    <TTGlyph name="breve" xMin="92" yMin="1245" xMax="645" yMax="1505">
      <contour>
        <pt x="350" y="1245" on="1"/>
        <pt x="315" y="1245" on="0"/>
        <pt x="239" y="1273" on="0"/>
        <pt x="168" y="1330" on="0"/>
        <pt x="109" y="1418" on="0"/>
        <pt x="92" y="1479" on="1"/>
        <pt x="143" y="1497" on="1"/>
        <pt x="157" y="1468" on="0"/>
        <pt x="204" y="1417" on="0"/>
        <pt x="262" y="1378" on="0"/>
        <pt x="330" y="1356" on="0"/>
        <pt x="365" y="1356" on="1"/>
        <pt x="400" y="1356" on="0"/>
        <pt x="468" y="1378" on="0"/>
        <pt x="528" y="1417" on="0"/>
        <pt x="579" y="1472" on="0"/>
        <pt x="598" y="1505" on="1"/>
        <pt x="645" y="1483" on="1"/>
        <pt x="620" y="1421" on="0"/>
        <pt x="553" y="1332" on="0"/>
        <pt x="476" y="1273" on="0"/>
        <pt x="392" y="1245" on="0"/>
      </contour>
    </TTGlyph>
    <TTGlyph name="brokenbar" xMin="140" yMin="-555" xMax="386" yMax="1556">
      <contour>
        <pt x="386" y="1556" on="1"/>
        <pt x="338" y="794" on="1"/>
        <pt x="209" y="794" on="1"/>
        <pt x="242" y="1556" on="1"/>
      </contour>
      <contour>
        <pt x="316" y="207" on="1"/>
        <pt x="269" y="-555" on="1"/>
        <pt x="140" y="-555" on="1"/>
        <pt x="173" y="207" on="1"/>
      </contour>
    </TTGlyph>
    <TTGlyph name="bullet" xMin="99" yMin="463" xMax="717" yMax="1069">
      <contour>
        <pt x="100" y="766" on="1"/>
        <pt x="103" y="830" on="0"/>
        <pt x="157" y="940" on="0"/>
        <pt x="244" y="1022" on="0"/>
        <pt x="358" y="1069" on="0"/>
        <pt x="422" y="1069" on="1"/>
        <pt x="484" y="1069" on="0"/>
        <pt x="592" y="1025" on="0"/>
        <pt x="671" y="947" on="0"/>
        <pt x="717" y="841" on="0"/>
        <pt x="717" y="780" on="1"/>
        <pt x="717" y="714" on="0"/>
        <pt x="663" y="598" on="0"/>
        <pt x="573" y="513" on="0"/>
        <pt x="455" y="463" on="0"/>
        <pt x="391" y="463" on="1"/>
        <pt x="330" y="463" on="0"/>
        <pt x="223" y="506" on="0"/>
        <pt x="144" y="583" on="0"/>
        <pt x="99" y="686" on="0"/>
        <pt x="99" y="746" on="1"/>
        <pt x="99" y="751" on="0"/>
        <pt x="99" y="761" on="0"/>
      </contour>
    </TTGlyph>
    <TTGlyph name="c" xMin="79" yMin="-23" xMax="894" yMax="1047">
      <contour>
        <pt x="876" y="807" on="1"/>
        <pt x="876" y="759" on="0"/>
        <pt x="828" y="706" on="0"/>
        <pt x="784" y="706" on="1"/>
        <pt x="761" y="706" on="0"/>
        <pt x="730" y="723" on="0"/>
        <pt x="711" y="749" on="0"/>
        <pt x="702" y="777" on="0"/>
        <pt x="702" y="789" on="1"/>
        <pt x="702" y="807" on="0"/>
        <pt x="711" y="848" on="0"/>
        <pt x="728" y="866" on="1"/>
        <pt x="717" y="923" on="0"/>
        <pt x="626" y="975" on="0"/>
        <pt x="566" y="975" on="1"/>
        <pt x="507" y="975" on="0"/>
        <pt x="415" y="931" on="0"/>
        <pt x="347" y="855" on="0"/>
        <pt x="300" y="755" on="0"/>
        <pt x="272" y="644" on="0"/>
        <pt x="259" y="527" on="0"/>
        <pt x="259" y="473" on="1"/>
        <pt x="259" y="365" on="0"/>
        <pt x="296" y="215" on="0"/>
        <pt x="363" y="121" on="0"/>
        <pt x="455" y="78" on="0"/>
        <pt x="509" y="78" on="1"/>
        <pt x="549" y="78" on="0"/>
        <pt x="635" y="103" on="0"/>
        <pt x="717" y="163" on="0"/>
        <pt x="792" y="261" on="0"/>
        <pt x="822" y="335" on="1"/>
        <pt x="894" y="301" on="1"/>
        <pt x="855" y="212" on="0"/>
        <pt x="759" y="89" on="0"/>
        <pt x="651" y="12" on="0"/>
        <pt x="534" y="-23" on="0"/>
        <pt x="474" y="-23" on="1"/>
        <pt x="384" y="-23" on="0"/>
        <pt x="238" y="31" on="0"/>
        <pt x="135" y="142" on="0"/>
        <pt x="79" y="311" on="0"/>
        <pt x="79" y="426" on="1"/>
        <pt x="79" y="493" on="0"/>
        <pt x="104" y="637" on="0"/>
        <pt x="157" y="775" on="0"/>
        <pt x="236" y="899" on="0"/>
        <pt x="345" y="992" on="0"/>
        <pt x="484" y="1047" on="0"/>
        <pt x="569" y="1047" on="1"/>
        <pt x="635" y="1047" on="0"/>
        <pt x="747" y="1010" on="0"/>
        <pt x="830" y="945" on="0"/>
        <pt x="876" y="858" on="0"/>
      </contour>
    </TTGlyph>
    <TTGlyph name="cacute" xMin="79" yMin="-23" xMax="894" yMax="1562">
      <component glyphName="c" x="0" y="0" flags="0x0"/>
      <component glyphName="acute" x="400" y="0" flags="0x0"/>
    </TTGlyph>
    <TTGlyph name="caron" xMin="92" yMin="1188" xMax="725" yMax="1577">
      <contour>
        <pt x="383" y="1188" on="1"/>
        <pt x="379" y="1188" on="1"/>
        <pt x="92" y="1518" on="1"/>
        <pt x="139" y="1569" on="1"/>
        <pt x="389" y="1335" on="1"/>
        <pt x="393" y="1335" on="1"/>
        <pt x="680" y="1577" on="1"/>
        <pt x="725" y="1524" on="1"/>
      </contour>
    </TTGlyph>
    <TTGlyph name="caroncomb.alt" xMin="235" yMin="1135" xMax="461" yMax="1588">
      <contour>
        <pt x="434" y="1561" on="1"/>
        <pt x="451" y="1525" on="0"/>
        <pt x="461" y="1474" on="0"/>
        <pt x="457" y="1438" on="1"/>
        <pt x="453" y="1397" on="0"/>
        <pt x="424" y="1316" on="0"/>
        <pt x="379" y="1239" on="0"/>
        <pt x="321" y="1167" on="0"/>
        <pt x="289" y="1135" on="1"/>
        <pt x="235" y="1175" on="1"/>
        <pt x="269" y="1239" on="0"/>
        <pt x="304" y="1350" on="0"/>
        <pt x="315" y="1450" on="0"/>
        <pt x="304" y="1542" on="0"/>
        <pt x="293" y="1588" on="1"/>
      </contour>
    </TTGlyph>
    <TTGlyph name="ccaron" xMin="80" yMin="-23" xMax="913" yMax="1577">
      <component glyphName="c" x="1" y="0" flags="0x0"/>
      <component glyphName="caron" x="188" y="0" flags="0x0"/>
    </TTGlyph>
    <TTGlyph name="ccedilla" xMin="80" yMin="-492" xMax="895" yMax="1047">
      <contour>
        <pt x="572" y="-119" on="1"/>
        <pt x="638" y="-119" on="0"/>
        <pt x="707" y="-190" on="0"/>
        <pt x="707" y="-242" on="1"/>
        <pt x="707" y="-285" on="0"/>
        <pt x="666" y="-353" on="0"/>
        <pt x="600" y="-405" on="0"/>
        <pt x="514" y="-443" on="0"/>
        <pt x="424" y="-470" on="0"/>
        <pt x="336" y="-487" on="0"/>
        <pt x="301" y="-492" on="1"/>
        <pt x="293" y="-428" on="1"/>
        <pt x="345" y="-419" on="0"/>
        <pt x="440" y="-390" on="0"/>
        <pt x="512" y="-351" on="0"/>
        <pt x="555" y="-302" on="0"/>
        <pt x="555" y="-272" on="1"/>
        <pt x="555" y="-238" on="0"/>
        <pt x="515" y="-209" on="0"/>
        <pt x="487" y="-209" on="1"/>
        <pt x="463" y="-209" on="0"/>
        <pt x="411" y="-226" on="0"/>
        <pt x="391" y="-240" on="1"/>
        <pt x="322" y="-205" on="1"/>
        <pt x="383" y="-15" on="1"/>
        <pt x="313" y="-3" on="0"/>
        <pt x="201" y="63" on="0"/>
        <pt x="122" y="172" on="0"/>
        <pt x="80" y="326" on="0"/>
        <pt x="80" y="426" on="1"/>
        <pt x="80" y="493" on="0"/>
        <pt x="105" y="637" on="0"/>
        <pt x="158" y="775" on="0"/>
        <pt x="237" y="899" on="0"/>
        <pt x="346" y="992" on="0"/>
        <pt x="485" y="1047" on="0"/>
        <pt x="570" y="1047" on="1"/>
        <pt x="636" y="1047" on="0"/>
        <pt x="748" y="1010" on="0"/>
        <pt x="831" y="945" on="0"/>
        <pt x="877" y="858" on="0"/>
        <pt x="877" y="807" on="1"/>
        <pt x="877" y="759" on="0"/>
        <pt x="829" y="706" on="0"/>
        <pt x="785" y="706" on="1"/>
        <pt x="762" y="706" on="0"/>
        <pt x="731" y="723" on="0"/>
        <pt x="712" y="749" on="0"/>
        <pt x="703" y="777" on="0"/>
        <pt x="703" y="789" on="1"/>
        <pt x="703" y="807" on="0"/>
        <pt x="712" y="848" on="0"/>
        <pt x="729" y="866" on="1"/>
        <pt x="718" y="923" on="0"/>
        <pt x="627" y="975" on="0"/>
        <pt x="567" y="975" on="1"/>
        <pt x="508" y="975" on="0"/>
        <pt x="416" y="931" on="0"/>
        <pt x="348" y="855" on="0"/>
        <pt x="301" y="755" on="0"/>
        <pt x="273" y="644" on="0"/>
        <pt x="260" y="527" on="0"/>
        <pt x="260" y="473" on="1"/>
        <pt x="260" y="365" on="0"/>
        <pt x="297" y="215" on="0"/>
        <pt x="364" y="121" on="0"/>
        <pt x="456" y="78" on="0"/>
        <pt x="510" y="78" on="1"/>
        <pt x="550" y="78" on="0"/>
        <pt x="636" y="103" on="0"/>
        <pt x="718" y="163" on="0"/>
        <pt x="793" y="261" on="0"/>
        <pt x="823" y="335" on="1"/>
        <pt x="895" y="301" on="1"/>
        <pt x="856" y="213" on="0"/>
        <pt x="762" y="91" on="0"/>
        <pt x="656" y="14" on="0"/>
        <pt x="541" y="-22" on="0"/>
        <pt x="482" y="-23" on="1"/>
        <pt x="434" y="-158" on="1"/>
        <pt x="463" y="-139" on="0"/>
        <pt x="537" y="-119" on="0"/>
      </contour>
    </TTGlyph>
    <TTGlyph name="cedilla" xMin="92" yMin="-492" xMax="506" yMax="16">
      <contour>
        <pt x="371" y="-119" on="1"/>
        <pt x="437" y="-119" on="0"/>
        <pt x="506" y="-190" on="0"/>
        <pt x="506" y="-242" on="1"/>
        <pt x="506" y="-285" on="0"/>
        <pt x="465" y="-353" on="0"/>
        <pt x="399" y="-405" on="0"/>
        <pt x="313" y="-443" on="0"/>
        <pt x="223" y="-470" on="0"/>
        <pt x="135" y="-487" on="0"/>
        <pt x="100" y="-492" on="1"/>
        <pt x="92" y="-428" on="1"/>
        <pt x="144" y="-419" on="0"/>
        <pt x="239" y="-390" on="0"/>
        <pt x="311" y="-351" on="0"/>
        <pt x="354" y="-302" on="0"/>
        <pt x="354" y="-272" on="1"/>
        <pt x="354" y="-238" on="0"/>
        <pt x="314" y="-209" on="0"/>
        <pt x="286" y="-209" on="1"/>
        <pt x="262" y="-209" on="0"/>
        <pt x="210" y="-226" on="0"/>
        <pt x="190" y="-240" on="1"/>
        <pt x="121" y="-205" on="1"/>
        <pt x="193" y="16" on="1"/>
        <pt x="295" y="16" on="1"/>
        <pt x="233" y="-158" on="1"/>
        <pt x="262" y="-139" on="0"/>
        <pt x="336" y="-119" on="0"/>
      </contour>
    </TTGlyph>
    <TTGlyph name="cent" xMin="84" yMin="-264" xMax="899" yMax="1274">
      <contour>
        <pt x="881" y="807" on="1"/>
        <pt x="881" y="759" on="0"/>
        <pt x="833" y="706" on="0"/>
        <pt x="789" y="706" on="1"/>
        <pt x="766" y="706" on="0"/>
        <pt x="735" y="723" on="0"/>
        <pt x="716" y="749" on="0"/>
        <pt x="707" y="777" on="0"/>
        <pt x="707" y="789" on="1"/>
        <pt x="707" y="807" on="0"/>
        <pt x="716" y="848" on="0"/>
        <pt x="733" y="866" on="1"/>
        <pt x="722" y="923" on="0"/>
        <pt x="631" y="976" on="0"/>
        <pt x="571" y="976" on="1"/>
        <pt x="512" y="976" on="0"/>
        <pt x="420" y="932" on="0"/>
        <pt x="352" y="856" on="0"/>
        <pt x="305" y="756" on="0"/>
        <pt x="277" y="644" on="0"/>
        <pt x="264" y="527" on="0"/>
        <pt x="264" y="473" on="1"/>
        <pt x="264" y="365" on="0"/>
        <pt x="301" y="214" on="0"/>
        <pt x="368" y="118" on="0"/>
        <pt x="460" y="74" on="0"/>
        <pt x="514" y="74" on="1"/>
        <pt x="554" y="74" on="0"/>
        <pt x="640" y="104" on="0"/>
        <pt x="722" y="169" on="0"/>
        <pt x="797" y="272" on="0"/>
        <pt x="827" y="345" on="1"/>
        <pt x="899" y="311" on="1"/>
        <pt x="864" y="231" on="0"/>
        <pt x="780" y="112" on="0"/>
        <pt x="685" y="30" on="0"/>
        <pt x="582" y="-16" on="0"/>
        <pt x="529" y="-23" on="1"/>
        <pt x="506" y="-264" on="1"/>
        <pt x="399" y="-264" on="1"/>
        <pt x="420" y="-23" on="1"/>
        <pt x="342" y="-14" on="0"/>
        <pt x="218" y="49" on="0"/>
        <pt x="131" y="160" on="0"/>
        <pt x="84" y="320" on="0"/>
        <pt x="84" y="426" on="1"/>
        <pt x="84" y="491" on="0"/>
        <pt x="108" y="630" on="0"/>
        <pt x="156" y="764" on="0"/>
        <pt x="231" y="886" on="0"/>
        <pt x="332" y="980" on="0"/>
        <pt x="462" y="1041" on="0"/>
        <pt x="541" y="1047" on="1"/>
        <pt x="559" y="1274" on="1"/>
        <pt x="680" y="1274" on="1"/>
        <pt x="658" y="1039" on="1"/>
        <pt x="707" y="1029" on="0"/>
        <pt x="790" y="985" on="0"/>
        <pt x="848" y="924" on="0"/>
        <pt x="881" y="849" on="0"/>
      </contour>
    </TTGlyph>
    <TTGlyph name="circumflex" xMin="92" yMin="1206" xMax="727" yMax="1589">
      <contour>
        <pt x="436" y="1589" on="1"/>
        <pt x="440" y="1589" on="1"/>
        <pt x="727" y="1260" on="1"/>
        <pt x="676" y="1206" on="1"/>
        <pt x="420" y="1438" on="1"/>
        <pt x="416" y="1438" on="1"/>
        <pt x="137" y="1214" on="1"/>
        <pt x="92" y="1268" on="1"/>
      </contour>
    </TTGlyph>
    <TTGlyph name="colon" xMin="120" yMin="-33" xMax="384" yMax="1057">
      <component glyphName="period" x="33" y="0" flags="0x4"/>
      <component glyphName="period" x="64" y="832" flags="0x4"/>
    </TTGlyph>
    <TTGlyph name="comma" xMin="89" yMin="-366" xMax="335" yMax="201">
      <contour>
        <pt x="116" y="-325" on="1"/>
        <pt x="134" y="-305" on="0"/>
        <pt x="174" y="-237" on="0"/>
        <pt x="208" y="-154" on="0"/>
        <pt x="230" y="-62" on="0"/>
        <pt x="230" y="0" on="1"/>
        <pt x="227" y="0" on="1"/>
        <pt x="214" y="-5" on="0"/>
        <pt x="190" y="-9" on="0"/>
        <pt x="179" y="-9" on="1"/>
        <pt x="159" y="-9" on="0"/>
        <pt x="126" y="7" on="0"/>
        <pt x="102" y="33" on="0"/>
        <pt x="89" y="68" on="0"/>
        <pt x="89" y="86" on="1"/>
        <pt x="89" y="114" on="0"/>
        <pt x="107" y="157" on="0"/>
        <pt x="139" y="186" on="0"/>
        <pt x="180" y="201" on="0"/>
        <pt x="204" y="201" on="1"/>
        <pt x="267" y="201" on="0"/>
        <pt x="335" y="112" on="0"/>
        <pt x="335" y="40" on="1"/>
        <pt x="335" y="2" on="0"/>
        <pt x="314" y="-99" on="0"/>
        <pt x="272" y="-208" on="0"/>
        <pt x="209" y="-318" on="0"/>
        <pt x="167" y="-366" on="1"/>
      </contour>
    </TTGlyph>
    <TTGlyph name="commaaccentcomb" xMin="97" yMin="-531" xMax="341" yMax="-115">
      <contour>
        <pt x="321" y="-115" on="1"/>
        <pt x="341" y="-166" on="0"/>
        <pt x="336" y="-221" on="1"/>
        <pt x="329" y="-299" on="0"/>
        <pt x="227" y="-458" on="0"/>
        <pt x="148" y="-531" on="1"/>
        <pt x="97" y="-491" on="1"/>
        <pt x="136" y="-430" on="0"/>
        <pt x="174" y="-339" on="0"/>
        <pt x="187" y="-263" on="0"/>
        <pt x="182" y="-190" on="0"/>
        <pt x="177" y="-147" on="1"/>
      </contour>
    </TTGlyph>
    <TTGlyph name="copyright" xMin="93" yMin="-102" xMax="1715" yMax="1536">
      <contour>
        <pt x="94" y="713" on="1"/>
        <pt x="100" y="827" on="0"/>
        <pt x="166" y="1037" on="0"/>
        <pt x="277" y="1220" on="0"/>
        <pt x="429" y="1370" on="0"/>
        <pt x="615" y="1477" on="0"/>
        <pt x="830" y="1536" on="0"/>
        <pt x="948" y="1536" on="1"/>
        <pt x="1064" y="1536" on="0"/>
        <pt x="1267" y="1481" on="0"/>
        <pt x="1438" y="1381" on="0"/>
        <pt x="1572" y="1240" on="0"/>
        <pt x="1666" y="1068" on="0"/>
        <pt x="1715" y="870" on="0"/>
        <pt x="1715" y="762" on="1"/>
        <pt x="1715" y="643" on="0"/>
        <pt x="1654" y="422" on="0"/>
        <pt x="1543" y="230" on="0"/>
        <pt x="1387" y="73" on="0"/>
        <pt x="1197" y="-40" on="0"/>
        <pt x="978" y="-102" on="0"/>
        <pt x="860" y="-102" on="1"/>
        <pt x="684" y="-102" on="0"/>
        <pt x="400" y="10" on="0"/>
        <pt x="201" y="213" on="0"/>
        <pt x="93" y="493" on="0"/>
        <pt x="93" y="661" on="1"/>
        <pt x="93" y="674" on="0"/>
        <pt x="93" y="699" on="0"/>
      </contour>
      <contour>
        <pt x="225" y="713" on="1"/>
        <pt x="224" y="702" on="0"/>
        <pt x="224" y="679" on="0"/>
        <pt x="224" y="668" on="1"/>
        <pt x="224" y="531" on="0"/>
        <pt x="310" y="287" on="0"/>
        <pt x="475" y="104" on="0"/>
        <pt x="715" y="-4" on="0"/>
        <pt x="868" y="-4" on="1"/>
        <pt x="975" y="-4" on="0"/>
        <pt x="1165" y="53" on="0"/>
        <pt x="1324" y="155" on="0"/>
        <pt x="1450" y="296" on="0"/>
        <pt x="1538" y="465" on="0"/>
        <pt x="1584" y="655" on="0"/>
        <pt x="1584" y="755" on="1"/>
        <pt x="1584" y="893" on="0"/>
        <pt x="1494" y="1142" on="0"/>
        <pt x="1326" y="1331" on="0"/>
        <pt x="1087" y="1442" on="0"/>
        <pt x="938" y="1442" on="1"/>
        <pt x="785" y="1442" on="0"/>
        <pt x="531" y="1328" on="0"/>
        <pt x="344" y="1131" on="0"/>
        <pt x="234" y="865" on="0"/>
      </contour>
      <contour>
        <pt x="950" y="1122" on="1"/>
        <pt x="890" y="1122" on="0"/>
        <pt x="765" y="1068" on="0"/>
        <pt x="663" y="962" on="0"/>
        <pt x="599" y="807" on="0"/>
        <pt x="599" y="706" on="1"/>
        <pt x="599" y="626" on="0"/>
        <pt x="652" y="489" on="0"/>
        <pt x="746" y="389" on="0"/>
        <pt x="877" y="332" on="0"/>
        <pt x="954" y="332" on="1"/>
        <pt x="988" y="332" on="0"/>
        <pt x="1069" y="352" on="0"/>
        <pt x="1150" y="390" on="0"/>
        <pt x="1226" y="446" on="0"/>
        <pt x="1256" y="481" on="1"/>
        <pt x="1315" y="418" on="1"/>
        <pt x="1267" y="356" on="0"/>
        <pt x="1154" y="275" on="0"/>
        <pt x="1039" y="228" on="0"/>
        <pt x="930" y="209" on="0"/>
        <pt x="887" y="209" on="1"/>
        <pt x="784" y="209" on="0"/>
        <pt x="612" y="281" on="0"/>
        <pt x="487" y="409" on="0"/>
        <pt x="417" y="582" on="0"/>
        <pt x="417" y="683" on="1"/>
        <pt x="417" y="745" on="0"/>
        <pt x="448" y="873" on="0"/>
        <pt x="509" y="994" on="0"/>
        <pt x="599" y="1101" on="0"/>
        <pt x="717" y="1181" on="0"/>
        <pt x="863" y="1227" on="0"/>
        <pt x="948" y="1227" on="1"/>
        <pt x="1023" y="1227" on="0"/>
        <pt x="1162" y="1181" on="0"/>
        <pt x="1213" y="1143" on="1"/>
        <pt x="1215" y="1143" on="1"/>
        <pt x="1210" y="1217" on="1"/>
        <pt x="1309" y="1217" on="1"/>
        <pt x="1290" y="872" on="1"/>
        <pt x="1213" y="872" on="1"/>
        <pt x="1208" y="939" on="0"/>
        <pt x="1165" y="1034" on="0"/>
        <pt x="1095" y="1094" on="0"/>
        <pt x="1003" y="1122" on="0"/>
      </contour>
    </TTGlyph>
    <TTGlyph name="currency" xMin="119" yMin="82" xMax="1003" yMax="976">
      <contour>
        <pt x="245" y="976" on="1"/>
        <pt x="348" y="837" on="1"/>
        <pt x="396" y="875" on="0"/>
        <pt x="511" y="918" on="0"/>
        <pt x="583" y="918" on="1"/>
        <pt x="653" y="918" on="0"/>
        <pt x="766" y="875" on="0"/>
        <pt x="809" y="837" on="1"/>
        <pt x="927" y="976" on="1"/>
        <pt x="1003" y="910" on="1"/>
        <pt x="870" y="767" on="1"/>
        <pt x="903" y="716" on="0"/>
        <pt x="937" y="601" on="0"/>
        <pt x="937" y="540" on="1"/>
        <pt x="937" y="471" on="0"/>
        <pt x="893" y="340" on="0"/>
        <pt x="852" y="286" on="1"/>
        <pt x="967" y="148" on="1"/>
        <pt x="884" y="82" on="1"/>
        <pt x="783" y="216" on="1"/>
        <pt x="735" y="180" on="0"/>
        <pt x="616" y="138" on="0"/>
        <pt x="541" y="138" on="1"/>
        <pt x="466" y="138" on="0"/>
        <pt x="353" y="179" on="0"/>
        <pt x="308" y="215" on="1"/>
        <pt x="195" y="82" on="1"/>
        <pt x="119" y="148" on="1"/>
        <pt x="246" y="285" on="1"/>
        <pt x="216" y="331" on="0"/>
        <pt x="186" y="437" on="0"/>
        <pt x="186" y="495" on="1"/>
        <pt x="186" y="567" on="0"/>
        <pt x="232" y="708" on="0"/>
        <pt x="279" y="768" on="1"/>
        <pt x="162" y="910" on="1"/>
      </contour>
      <contour>
        <pt x="579" y="845" on="1"/>
        <pt x="534" y="845" on="0"/>
        <pt x="466" y="809" on="0"/>
        <pt x="416" y="751" on="0"/>
        <pt x="384" y="679" on="0"/>
        <pt x="365" y="606" on="0"/>
        <pt x="357" y="540" on="0"/>
        <pt x="357" y="518" on="1"/>
        <pt x="357" y="470" on="0"/>
        <pt x="374" y="364" on="0"/>
        <pt x="418" y="275" on="0"/>
        <pt x="490" y="218" on="0"/>
        <pt x="546" y="218" on="1"/>
        <pt x="588" y="218" on="0"/>
        <pt x="653" y="252" on="0"/>
        <pt x="703" y="309" on="0"/>
        <pt x="738" y="382" on="0"/>
        <pt x="760" y="461" on="0"/>
        <pt x="770" y="539" on="0"/>
        <pt x="770" y="571" on="1"/>
        <pt x="770" y="611" on="0"/>
        <pt x="751" y="706" on="0"/>
        <pt x="707" y="789" on="0"/>
        <pt x="634" y="845" on="0"/>
      </contour>
    </TTGlyph>
    <TTGlyph name="d" xMin="78" yMin="-23" xMax="1137" yMax="1546">
      <contour>
        <pt x="842" y="1417" on="1"/>
        <pt x="693" y="1409" on="1"/>
        <pt x="701" y="1491" on="1"/>
        <pt x="768" y="1491" on="0"/>
        <pt x="857" y="1500" on="0"/>
        <pt x="915" y="1515" on="0"/>
        <pt x="949" y="1535" on="0"/>
        <pt x="961" y="1546" on="1"/>
        <pt x="1020" y="1546" on="1"/>
        <pt x="1014" y="1508" on="0"/>
        <pt x="1000" y="1414" on="0"/>
        <pt x="986" y="1318" on="0"/>
        <pt x="975" y="1228" on="0"/>
        <pt x="971" y="1194" on="1"/>
        <pt x="934" y="874" on="1"/>
        <pt x="923" y="776" on="0"/>
        <pt x="901" y="578" on="0"/>
        <pt x="885" y="398" on="0"/>
        <pt x="875" y="243" on="0"/>
        <pt x="875" y="188" on="1"/>
        <pt x="875" y="168" on="0"/>
        <pt x="877" y="129" on="0"/>
        <pt x="888" y="99" on="0"/>
        <pt x="910" y="80" on="0"/>
        <pt x="930" y="80" on="1"/>
        <pt x="947" y="80" on="0"/>
        <pt x="986" y="101" on="0"/>
        <pt x="1025" y="148" on="0"/>
        <pt x="1062" y="224" on="0"/>
        <pt x="1077" y="279" on="1"/>
        <pt x="1137" y="266" on="1"/>
        <pt x="1130" y="230" on="0"/>
        <pt x="1091" y="131" on="0"/>
        <pt x="1025" y="40" on="0"/>
        <pt x="932" y="-23" on="0"/>
        <pt x="871" y="-23" on="1"/>
        <pt x="829" y="-23" on="0"/>
        <pt x="770" y="4" on="0"/>
        <pt x="731" y="52" on="0"/>
        <pt x="713" y="120" on="0"/>
        <pt x="713" y="162" on="1"/>
        <pt x="713" y="222" on="0"/>
        <pt x="728" y="348" on="0"/>
        <pt x="744" y="426" on="1"/>
        <pt x="738" y="426" on="1"/>
        <pt x="696" y="285" on="0"/>
        <pt x="599" y="110" on="0"/>
        <pt x="499" y="12" on="0"/>
        <pt x="400" y="-23" on="0"/>
        <pt x="355" y="-23" on="1"/>
        <pt x="284" y="-23" on="0"/>
        <pt x="180" y="38" on="0"/>
        <pt x="111" y="144" on="0"/>
        <pt x="78" y="285" on="0"/>
        <pt x="78" y="366" on="1"/>
        <pt x="78" y="516" on="0"/>
        <pt x="153" y="766" on="0"/>
        <pt x="303" y="946" on="0"/>
        <pt x="526" y="1047" on="0"/>
        <pt x="674" y="1047" on="1"/>
        <pt x="733" y="1047" on="0"/>
        <pt x="789" y="1038" on="1"/>
        <pt x="795" y="1095" on="0"/>
        <pt x="809" y="1220" on="0"/>
        <pt x="819" y="1292" on="1"/>
        <pt x="824" y="1329" on="0"/>
        <pt x="834" y="1388" on="0"/>
      </contour>
      <contour>
        <pt x="639" y="973" on="1"/>
        <pt x="567" y="973" on="0"/>
        <pt x="454" y="923" on="0"/>
        <pt x="368" y="838" on="0"/>
        <pt x="308" y="725" on="0"/>
        <pt x="271" y="598" on="0"/>
        <pt x="254" y="464" on="0"/>
        <pt x="254" y="402" on="1"/>
        <pt x="254" y="332" on="0"/>
        <pt x="269" y="212" on="0"/>
        <pt x="303" y="123" on="0"/>
        <pt x="358" y="73" on="0"/>
        <pt x="398" y="73" on="1"/>
        <pt x="446" y="73" on="0"/>
        <pt x="545" y="160" on="0"/>
        <pt x="633" y="304" on="0"/>
        <pt x="705" y="491" on="0"/>
        <pt x="727" y="592" on="1"/>
        <pt x="743" y="664" on="0"/>
        <pt x="766" y="838" on="0"/>
        <pt x="779" y="953" on="1"/>
        <pt x="745" y="964" on="0"/>
        <pt x="674" y="973" on="0"/>
      </contour>
    </TTGlyph>
    <TTGlyph name="dagger" xMin="71" yMin="-555" xMax="1013" yMax="1556">
      <contour>
        <pt x="438" y="-555" on="1"/>
        <pt x="437" y="-331" on="0"/>
        <pt x="439" y="-116" on="0"/>
        <pt x="439" y="142" on="0"/>
        <pt x="432" y="432" on="0"/>
        <pt x="421" y="573" on="1"/>
        <pt x="446" y="630" on="0"/>
        <pt x="492" y="796" on="0"/>
        <pt x="521" y="911" on="1"/>
        <pt x="443" y="896" on="0"/>
        <pt x="294" y="873" on="0"/>
        <pt x="203" y="860" on="0"/>
        <pt x="176" y="858" on="0"/>
        <pt x="162" y="858" on="1"/>
        <pt x="144" y="858" on="0"/>
        <pt x="111" y="864" on="0"/>
        <pt x="86" y="879" on="0"/>
        <pt x="71" y="907" on="0"/>
        <pt x="71" y="928" on="1"/>
        <pt x="71" y="949" on="0"/>
        <pt x="87" y="975" on="0"/>
        <pt x="114" y="991" on="0"/>
        <pt x="150" y="997" on="0"/>
        <pt x="169" y="997" on="1"/>
        <pt x="183" y="997" on="0"/>
        <pt x="211" y="995" on="0"/>
        <pt x="300" y="983" on="0"/>
        <pt x="449" y="960" on="0"/>
        <pt x="524" y="944" on="1"/>
        <pt x="518" y="991" on="0"/>
        <pt x="503" y="1108" on="0"/>
        <pt x="482" y="1356" on="0"/>
        <pt x="481" y="1418" on="1"/>
        <pt x="481" y="1442" on="0"/>
        <pt x="491" y="1491" on="0"/>
        <pt x="513" y="1531" on="0"/>
        <pt x="550" y="1556" on="0"/>
        <pt x="577" y="1556" on="1"/>
        <pt x="599" y="1556" on="0"/>
        <pt x="630" y="1537" on="0"/>
        <pt x="648" y="1507" on="0"/>
        <pt x="656" y="1468" on="0"/>
        <pt x="656" y="1448" on="1"/>
        <pt x="656" y="1426" on="0"/>
        <pt x="653" y="1407" on="1"/>
        <pt x="645" y="1350" on="0"/>
        <pt x="623" y="1226" on="0"/>
        <pt x="597" y="1104" on="0"/>
        <pt x="572" y="990" on="0"/>
        <pt x="561" y="944" on="1"/>
        <pt x="639" y="960" on="0"/>
        <pt x="790" y="983" on="0"/>
        <pt x="882" y="995" on="0"/>
        <pt x="912" y="997" on="0"/>
        <pt x="927" y="997" on="1"/>
        <pt x="944" y="997" on="0"/>
        <pt x="975" y="991" on="0"/>
        <pt x="999" y="976" on="0"/>
        <pt x="1013" y="949" on="0"/>
        <pt x="1013" y="928" on="1"/>
        <pt x="1013" y="907" on="0"/>
        <pt x="997" y="879" on="0"/>
        <pt x="969" y="864" on="0"/>
        <pt x="933" y="858" on="0"/>
        <pt x="914" y="858" on="1"/>
        <pt x="900" y="858" on="0"/>
        <pt x="872" y="860" on="0"/>
        <pt x="784" y="873" on="0"/>
        <pt x="636" y="896" on="0"/>
        <pt x="561" y="911" on="1"/>
        <pt x="578" y="796" on="0"/>
        <pt x="606" y="630" on="0"/>
        <pt x="626" y="573" on="1"/>
        <pt x="601" y="438" on="0"/>
        <pt x="566" y="158" on="0"/>
        <pt x="537" y="-126" on="0"/>
        <pt x="511" y="-413" on="0"/>
        <pt x="495" y="-555" on="1"/>
      </contour>
    </TTGlyph>
    <TTGlyph name="daggerdbl" xMin="47" yMin="-555" xMax="1032" yMax="1556">
      <contour>
        <pt x="645" y="515" on="1"/>
        <pt x="632" y="487" on="0"/>
        <pt x="606" y="396" on="0"/>
        <pt x="580" y="286" on="0"/>
        <pt x="553" y="164" on="0"/>
        <pt x="538" y="106" on="1"/>
        <pt x="614" y="122" on="0"/>
        <pt x="766" y="149" on="0"/>
        <pt x="866" y="162" on="0"/>
        <pt x="891" y="162" on="1"/>
        <pt x="911" y="162" on="0"/>
        <pt x="947" y="155" on="0"/>
        <pt x="974" y="139" on="0"/>
        <pt x="989" y="111" on="0"/>
        <pt x="989" y="89" on="1"/>
        <pt x="987" y="67" on="0"/>
        <pt x="969" y="39" on="0"/>
        <pt x="940" y="23" on="0"/>
        <pt x="903" y="17" on="0"/>
        <pt x="883" y="17" on="1"/>
        <pt x="857" y="17" on="0"/>
        <pt x="760" y="29" on="0"/>
        <pt x="611" y="57" on="0"/>
        <pt x="536" y="73" on="1"/>
        <pt x="542" y="25" on="0"/>
        <pt x="558" y="-96" on="0"/>
        <pt x="583" y="-358" on="0"/>
        <pt x="583" y="-416" on="1"/>
        <pt x="583" y="-440" on="0"/>
        <pt x="572" y="-489" on="0"/>
        <pt x="548" y="-529" on="0"/>
        <pt x="510" y="-555" on="0"/>
        <pt x="483" y="-555" on="1"/>
        <pt x="460" y="-555" on="0"/>
        <pt x="428" y="-536" on="0"/>
        <pt x="409" y="-504" on="0"/>
        <pt x="400" y="-464" on="0"/>
        <pt x="400" y="-443" on="1"/>
        <pt x="400" y="-424" on="0"/>
        <pt x="411" y="-349" on="0"/>
        <pt x="461" y="-92" on="0"/>
        <pt x="487" y="26" on="0"/>
        <pt x="498" y="73" on="1"/>
        <pt x="420" y="57" on="0"/>
        <pt x="267" y="30" on="0"/>
        <pt x="169" y="17" on="0"/>
        <pt x="145" y="17" on="1"/>
        <pt x="126" y="17" on="0"/>
        <pt x="91" y="23" on="0"/>
        <pt x="64" y="38" on="0"/>
        <pt x="47" y="63" on="0"/>
        <pt x="47" y="83" on="1"/>
        <pt x="47" y="107" on="0"/>
        <pt x="64" y="137" on="0"/>
        <pt x="94" y="155" on="0"/>
        <pt x="132" y="162" on="0"/>
        <pt x="153" y="162" on="1"/>
        <pt x="178" y="162" on="0"/>
        <pt x="276" y="149" on="0"/>
        <pt x="424" y="121" on="0"/>
        <pt x="499" y="106" on="1"/>
        <pt x="490" y="164" on="0"/>
        <pt x="476" y="285" on="0"/>
        <pt x="462" y="395" on="0"/>
        <pt x="446" y="486" on="0"/>
        <pt x="436" y="515" on="1"/>
        <pt x="449" y="543" on="0"/>
        <pt x="473" y="630" on="0"/>
        <pt x="498" y="736" on="0"/>
        <pt x="525" y="853" on="0"/>
        <pt x="540" y="911" on="1"/>
        <pt x="462" y="895" on="0"/>
        <pt x="313" y="868" on="0"/>
        <pt x="212" y="855" on="0"/>
        <pt x="189" y="855" on="1"/>
        <pt x="170" y="855" on="0"/>
        <pt x="134" y="861" on="0"/>
        <pt x="107" y="876" on="0"/>
        <pt x="90" y="902" on="0"/>
        <pt x="90" y="922" on="1"/>
        <pt x="90" y="946" on="0"/>
        <pt x="107" y="976" on="0"/>
        <pt x="136" y="993" on="0"/>
        <pt x="173" y="1000" on="0"/>
        <pt x="194" y="1000" on="1"/>
        <pt x="220" y="1000" on="0"/>
        <pt x="319" y="987" on="0"/>
        <pt x="468" y="960" on="0"/>
        <pt x="543" y="944" on="1"/>
        <pt x="537" y="990" on="0"/>
        <pt x="520" y="1107" on="0"/>
        <pt x="505" y="1232" on="0"/>
        <pt x="495" y="1359" on="0"/>
        <pt x="495" y="1416" on="1"/>
        <pt x="495" y="1440" on="0"/>
        <pt x="506" y="1490" on="0"/>
        <pt x="531" y="1530" on="0"/>
        <pt x="569" y="1556" on="0"/>
        <pt x="596" y="1556" on="1"/>
        <pt x="619" y="1556" on="0"/>
        <pt x="651" y="1537" on="0"/>
        <pt x="670" y="1505" on="0"/>
        <pt x="679" y="1465" on="0"/>
        <pt x="679" y="1444" on="1"/>
        <pt x="679" y="1425" on="0"/>
        <pt x="668" y="1350" on="0"/>
        <pt x="644" y="1226" on="0"/>
        <pt x="618" y="1104" on="0"/>
        <pt x="591" y="990" on="0"/>
        <pt x="580" y="944" on="1"/>
        <pt x="658" y="960" on="0"/>
        <pt x="811" y="987" on="0"/>
        <pt x="911" y="1000" on="0"/>
        <pt x="937" y="1000" on="1"/>
        <pt x="977" y="1000" on="0"/>
        <pt x="1032" y="971" on="0"/>
        <pt x="1032" y="928" on="1"/>
        <pt x="1030" y="906" on="0"/>
        <pt x="1012" y="878" on="0"/>
        <pt x="983" y="861" on="0"/>
        <pt x="945" y="855" on="0"/>
        <pt x="925" y="855" on="1"/>
        <pt x="900" y="855" on="0"/>
        <pt x="803" y="867" on="0"/>
        <pt x="655" y="895" on="0"/>
        <pt x="580" y="911" on="1"/>
        <pt x="589" y="853" on="0"/>
        <pt x="604" y="736" on="0"/>
        <pt x="619" y="630" on="0"/>
        <pt x="635" y="543" on="0"/>
      </contour>
    </TTGlyph>
    <TTGlyph name="dcaron" xMin="78" yMin="-23" xMax="1350" yMax="1588">
      <component glyphName="caroncomb.alt" x="889" y="0" flags="0x4"/>
      <component glyphName="d" x="0" y="0" flags="0x4"/>
    </TTGlyph>
    <TTGlyph name="dcroat" xMin="78" yMin="-23" xMax="1139" yMax="1546">
      <contour>
        <pt x="934" y="874" on="1"/>
        <pt x="923" y="776" on="0"/>
        <pt x="902" y="578" on="0"/>
        <pt x="885" y="398" on="0"/>
        <pt x="875" y="243" on="0"/>
        <pt x="875" y="188" on="1"/>
        <pt x="875" y="168" on="0"/>
        <pt x="877" y="129" on="0"/>
        <pt x="888" y="99" on="0"/>
        <pt x="910" y="80" on="0"/>
        <pt x="930" y="80" on="1"/>
        <pt x="947" y="80" on="0"/>
        <pt x="986" y="101" on="0"/>
        <pt x="1025" y="148" on="0"/>
        <pt x="1062" y="224" on="0"/>
        <pt x="1077" y="279" on="1"/>
        <pt x="1137" y="266" on="1"/>
        <pt x="1130" y="230" on="0"/>
        <pt x="1091" y="131" on="0"/>
        <pt x="1025" y="40" on="0"/>
        <pt x="932" y="-23" on="0"/>
        <pt x="871" y="-23" on="1"/>
        <pt x="829" y="-23" on="0"/>
        <pt x="770" y="4" on="0"/>
        <pt x="731" y="52" on="0"/>
        <pt x="713" y="120" on="0"/>
        <pt x="713" y="162" on="1"/>
        <pt x="713" y="221" on="0"/>
        <pt x="728" y="349" on="0"/>
        <pt x="744" y="426" on="1"/>
        <pt x="738" y="426" on="1"/>
        <pt x="696" y="285" on="0"/>
        <pt x="599" y="110" on="0"/>
        <pt x="499" y="12" on="0"/>
        <pt x="400" y="-23" on="0"/>
        <pt x="355" y="-23" on="1"/>
        <pt x="284" y="-23" on="0"/>
        <pt x="180" y="38" on="0"/>
        <pt x="111" y="144" on="0"/>
        <pt x="78" y="285" on="0"/>
        <pt x="78" y="366" on="1"/>
        <pt x="78" y="516" on="0"/>
        <pt x="153" y="766" on="0"/>
        <pt x="303" y="946" on="0"/>
        <pt x="526" y="1047" on="0"/>
        <pt x="674" y="1047" on="1"/>
        <pt x="733" y="1047" on="0"/>
        <pt x="789" y="1038" on="1"/>
        <pt x="793" y="1073" on="0"/>
        <pt x="801" y="1147" on="0"/>
        <pt x="806" y="1187" on="1"/>
        <pt x="430" y="1183" on="1"/>
        <pt x="436" y="1272" on="1"/>
        <pt x="816" y="1272" on="1"/>
        <pt x="819" y="1292" on="1"/>
        <pt x="824" y="1329" on="0"/>
        <pt x="834" y="1388" on="0"/>
        <pt x="842" y="1417" on="1"/>
        <pt x="692" y="1409" on="1"/>
        <pt x="701" y="1491" on="1"/>
        <pt x="768" y="1491" on="0"/>
        <pt x="857" y="1500" on="0"/>
        <pt x="915" y="1516" on="0"/>
        <pt x="949" y="1535" on="0"/>
        <pt x="961" y="1546" on="1"/>
        <pt x="1020" y="1546" on="1"/>
        <pt x="1015" y="1517" on="0"/>
        <pt x="1005" y="1449" on="0"/>
        <pt x="995" y="1377" on="0"/>
        <pt x="984" y="1305" on="0"/>
        <pt x="980" y="1272" on="1"/>
        <pt x="1139" y="1272" on="1"/>
        <pt x="1133" y="1191" on="1"/>
        <pt x="970" y="1189" on="1"/>
      </contour>
      <contour>
        <pt x="727" y="592" on="1"/>
        <pt x="743" y="664" on="0"/>
        <pt x="766" y="838" on="0"/>
        <pt x="779" y="953" on="1"/>
        <pt x="745" y="964" on="0"/>
        <pt x="674" y="973" on="0"/>
        <pt x="639" y="973" on="1"/>
        <pt x="567" y="973" on="0"/>
        <pt x="454" y="923" on="0"/>
        <pt x="368" y="838" on="0"/>
        <pt x="308" y="725" on="0"/>
        <pt x="271" y="598" on="0"/>
        <pt x="254" y="464" on="0"/>
        <pt x="254" y="402" on="1"/>
        <pt x="254" y="332" on="0"/>
        <pt x="269" y="212" on="0"/>
        <pt x="303" y="123" on="0"/>
        <pt x="358" y="73" on="0"/>
        <pt x="398" y="73" on="1"/>
        <pt x="446" y="73" on="0"/>
        <pt x="545" y="160" on="0"/>
        <pt x="633" y="304" on="0"/>
        <pt x="705" y="491" on="0"/>
      </contour>
    </TTGlyph>
</ttFont>
